<svg xmlns="http://www.w3.org/2000/svg" width="573" height="127" fill="none" xmlns:v="https://vecta.io/nano"><path d="M533 66H183v-2h350v2zM158.712 17.936H14.936v90.294h143.776V17.936zM160.648 16v94.165H13V16h147.648z" fill-rule="evenodd" fill="#232323"/><path d="M41.428 52.879V45.19l.028-4.054.098-2.307c.042-1.132.252-1.985.603-2.586.35-.587.967-.965 1.836-1.118l.953-.14.701-.056a.65.65 0 0 0 .364-.098c.112-.07.168-.168.168-.294 0-.196-.084-.322-.252-.405-.182-.084-.449-.112-.799-.112l-2.481.056-2.593.084-1.374.056c-.266 0-1.178-.042-2.733-.098l-4.696-.098c-.364 0-.631.028-.799.112s-.252.21-.252.405c0 .126.056.224.168.294.098.07.224.098.364.098l1.135.056a8.17 8.17 0 0 1 1.093.14c1.065.21 1.794.615 2.187 1.188.392.587.603 1.426.645 2.516l.098 2.307.028 4.054v7.689 18.816c0 5.508-.224 9.799-.687 12.861-.462 3.075-1.149 5.452-2.089 7.129s-2.117 3.201-3.532 4.543c-.308.308-.659.615-1.079.951-.407.336-.827.629-1.219.853-.294.196-.533.349-.687.489s-.238.294-.238.489c0 .126.056.224.154.294s.196.098.308.098c.182 0 .336-.056.463-.126.336-.168.743-.419 1.206-.713l1.36-.909c2.649-1.817 4.738-3.523 6.28-5.13s2.649-3.229 3.322-4.837a20.62 20.62 0 0 0 1.388-4.697c.28-1.622.449-3.579.519-5.871.056-2.293.084-5.172.07-8.639V52.851" fill="#232323"/><g fill-rule="evenodd"><path d="M55.922 61.056c-1.892-.042-3.448-.699-4.682-1.971s-1.864-2.95-1.906-5.033c.014-1.3.294-2.391.841-3.299a6.53 6.53 0 0 1 2.117-2.167c.505.713 1.163 1.524 1.962 2.432l1.92 2.125 1.514 1.496 2.271 2.111 2.173 1.887c-.561.601-1.346 1.146-2.383 1.636s-2.313.755-3.841.783m-1.149 1.719c1.626-.028 3-.28 4.135-.741s2.032-.979 2.705-1.524l1.388-1.244 2.846 2.055c.715.433 1.36.713 1.949.839s1.262.182 2.046.168h3.224c.154 0 .28-.028.393-.07s.168-.098.168-.168c0-.098-.042-.154-.126-.182-.07-.028-.196-.042-.336-.042-.617 0-1.29-.154-2.004-.405-.729-.252-1.36-.545-1.906-.867-.463-.252-1.051-.629-1.808-1.118-.743-.503-1.654-1.202-2.733-2.111.771-.923 1.5-2.097 2.173-3.509s1.037-2.81 1.093-4.166c0-.168-.028-.307-.112-.419s-.238-.196-.477-.238l-2.369-.182-1.584-.042a1 1 0 0 0-.364.056c-.098.028-.154.084-.168.168 0 .084.042.14.126.168.07.042.168.056.266.056a3.59 3.59 0 0 1 .827.098 1.72 1.72 0 0 1 .785.419c.238.252.407.517.491.797s.14.545.126.797c0 1.02-.182 2.013-.491 2.992-.322.979-.715 1.775-1.191 2.419l-1.836-1.636-2.509-2.349-1.878-1.845c-1.71-1.803-3.014-3.327-3.883-4.599-.869-1.258-1.318-2.516-1.318-3.733.056-1.524.505-2.614 1.36-3.285.841-.671 1.794-.993 2.832-.979.729 0 1.36.154 1.92.433.547.28 1.009.615 1.374.992.406.433.673.895.813 1.384s.21.951.21 1.384c0 .238 0 .405.042.489.028.098.084.14.154.126.07 0 .126-.028.168-.098.056-.07.112-.224.154-.461.028-.182.07-.503.098-.965l.084-1.482.042-1.3c0-.196 0-.349-.07-.461-.056-.112-.168-.238-.364-.35-.449-.252-1.009-.447-1.696-.587-.687-.154-1.444-.224-2.285-.224-1.472.028-2.748.349-3.799.978s-1.864 1.398-2.425 2.307-.841 1.803-.855 2.698c0 .727.112 1.44.35 2.153.238.727.659 1.496 1.262 2.334-1.332.741-2.495 1.761-3.476 3.047s-1.5 2.88-1.556 4.781c0 .979.252 2.027.799 3.131.533 1.104 1.402 2.041 2.565 2.838 1.178.783 2.719 1.202 4.626 1.23" fill="#232323"/><path d="M80.046 61.671c-.098 0-.168-.042-.224-.112-.042-.07-.042-.182.028-.349l5.789-17.572c.322-.978.659-.978.981 0l6.252 17.572c.042.126.042.238.014.322s-.126.126-.28.126H80.032m-9.21 14.385c-.561 1.663-1.248 3.034-2.075 4.138-.827 1.09-1.976 1.761-3.448 1.985l-.981.098-.925.042c-.168 0-.308.028-.421.098-.112.056-.168.154-.168.294 0 .196.098.322.308.405.196.084.519.112.939.112l4.612-.084 2.832-.098 2.243.098 2.888.084c.294 0 .533-.028.715-.112.182-.07.266-.21.266-.405 0-.266-.21-.391-.659-.391h-.659c-.589 0-1.149-.154-1.668-.461s-.799-.783-.827-1.426c0-.601.084-1.258.238-2.013s.392-1.538.687-2.362l3.953-11.519c.07-.168.154-.294.252-.377.112-.098.238-.14.407-.14h14.144c.154 0 .294.028.364.098.098.056.168.168.224.294l6.126 16.02c.182.517.21.923.098 1.216s-.281.475-.491.531c-.14.028-.238.084-.323.154a.37.37 0 0 0-.14.294c0 .182.182.294.519.349s.827.084 1.458.112l6.504.112 3.827.014c.365 0 .687-.028.925-.112.253-.07.379-.21.393-.405 0-.154-.07-.266-.183-.322-.112-.042-.28-.07-.476-.07-.337 0-.729-.028-1.192-.07-.462-.056-.939-.154-1.429-.322-.701-.112-1.514-.643-2.453-1.594-.94-.937-2.019-2.824-3.197-5.634l-3.952-9.953-4.851-12.442-4.289-11.058-2.243-5.773-.869-1.929c-.196-.294-.392-.447-.575-.419-.182-.028-.379.126-.575.461s-.491 1.034-.869 2.069L70.879 76.042h-.056z" fill="#232323"/></g><path d="M119.927 64.326l-.042 8.388-.281 5.746c-.112.951-.308 1.761-.56 2.39-.267.643-.715 1.034-1.346 1.174l-.995.182c-.351.056-.687.084-.982.084-.196 0-.336.042-.42.126a.33.33 0 0 0-.112.266.41.41 0 0 0 .252.405c.168.083.435.126.799.112l1.78-.07 2.033-.056 1.78-.056.841-.014 1.977.056 3.168.14 4.667.126 6.449.07c1.233.028 2.088-.028 2.565-.21.462-.182.799-.671.981-1.468l.364-2.125.337-2.628.154-1.566c0-.238 0-.461-.056-.657-.042-.196-.154-.308-.35-.322-.155 0-.281.07-.379.224-.084.154-.154.405-.21.755-.224 1.328-.561 2.349-1.009 3.076a3.95 3.95 0 0 1-1.949 1.608c-.911.335-1.962.559-3.154.629l-3.168.084c-3.126.056-5.186-.266-6.168-.992-.981-.713-1.471-2.167-1.471-4.348l-.029-3.006v-4.571l.015-3.565v-5.731c0-.14.028-.238.098-.322s.196-.126.364-.14l2.537.042 3.883.112 2.986.168c1.248.154 2.117.447 2.579.895s.757.909.841 1.384a5.66 5.66 0 0 1 .239 1.146l.042.993c0 .168.028.307.098.419s.182.168.35.168c.224 0 .351-.154.407-.419.042-.266.07-.531.056-.811l.084-1.761.182-2.404.336-2.474.183-1.16c0-.196-.028-.336-.084-.405a.28.28 0 0 0-.239-.112c-.126 0-.266.084-.42.224l-.561.615c-.28.322-.687.531-1.163.657-.505.126-1.136.21-1.921.252l-3.196.098-4.514.042h-2.747c-.168 0-.266-.056-.322-.154s-.084-.266-.07-.489V37.164c0-.224.028-.391.098-.503.07-.098.168-.154.294-.154l2.411.028 3.939.07 2.677.112c1.725.196 2.888.489 3.505.867s.995.825 1.163 1.342c.168.405.267.839.323 1.3.056.447.07.797.07 1.048 0 .266.042.461.112.615.084.154.21.224.42.224.127 0 .225-.084.309-.238a1.82 1.82 0 0 0 .154-.489c.07-.475.126-1.202.196-2.195l.14-2.097.337-2.041.196-1.021a1.69 1.69 0 0 0-.056-.419c-.042-.112-.112-.168-.21-.168-.154 0-.309.056-.463.14-.14.084-.294.14-.462.182-.267.07-.645.126-1.136.196l-1.682.14-2.93.042-5.004.014h-4.808-2.341l-2.691-.126-2.355-.056h-2.397c-.365 0-.631.042-.799.112-.183.084-.267.21-.267.405 0 .126.056.224.169.293.098.07.224.098.364.098l1.149.056c.449.028.814.084 1.094.14 1.065.21 1.794.615 2.187 1.202s.616 1.426.644 2.516l.085 2.321.042 4.054v19.152m69.153-23.408c0 4.994 0 6.906-.93 9.111-.637 1.541-1.992 3.002-4.516 4.728-.398.292-.903.611-1.195.77a.5.5 0 0 1-.212.053c-.08 0-.213-.053-.213-.186 0-.186.159-.266.425-.452.372-.213.797-.584 1.089-.877 2.019-2.045 2.975-3.666 2.975-11.635v-8.925l-.053-6.667c-.053-1.036-.319-1.541-1.328-1.753a6.54 6.54 0 0 0-1.063-.106c-.132 0-.239-.053-.239-.186 0-.186.16-.239.505-.239 1.381 0 3.347.106 3.48.106s2.098-.106 3.028-.106c.345 0 .505.053.505.239 0 .133-.133.186-.239.186-.213 0-.399.027-.771.106-.823.159-1.089.691-1.142 1.753-.053.983-.053 1.86-.053 6.667v7.411h-.053zm19.71-15.592c.372-1.009.478-1.195.664-1.195s.319.159.691 1.116l7.198 18.621c1.116 2.736 2.019 3.241 2.657 3.427.451.159.929.186 1.221.186.186 0 .319.027.319.186 0 .186-.265.239-.611.239-.451 0-2.709 0-4.861-.053-.584-.027-.93-.027-.93-.212 0-.133.08-.186.213-.212.186-.053.372-.345.186-.824l-2.869-7.597s-.133-.186-.292-.186h-6.641c-.159 0-.239.08-.319.239l-1.859 5.472c-.266.77-.425 1.514-.425 2.072 0 .611.637.903 1.169.903h.318c.213 0 .319.053.319.186 0 .186-.186.239-.451.239-.744 0-2.072-.106-2.418-.106s-2.045.106-3.479.106c-.399 0-.585-.053-.585-.239 0-.133.133-.186.266-.186.212 0 .637-.027.903-.053 1.408-.186 2.045-1.355 2.603-2.895l7.013-19.232zm3.214 12.352c.159 0 .159-.08.133-.212l-2.922-8.341c-.16-.451-.319-.451-.452 0l-2.709 8.341c-.053.159 0 .212.079.212h5.898-.027zm19.843 6.029c.053 2.524.372 3.347 1.195 3.586a6.54 6.54 0 0 0 1.541.186c.159 0 .239.053.239.186 0 .186-.186.239-.558.239-1.753 0-3.002-.106-3.267-.106l-2.949.106c-.319 0-.504-.027-.504-.239 0-.133.106-.186.239-.186.239 0 .797-.027 1.275-.186.77-.212.929-1.116.929-3.931V25.671c.027-1.195.133-1.541.372-1.541s.771.664 1.089.983c.452.531 5.047 5.499 9.802 10.599l7.411 8.049-.345-15.672c-.027-2.019-.239-2.683-1.195-2.922a7.62 7.62 0 0 0-1.514-.159c-.213 0-.239-.106-.239-.212 0-.186.239-.212.61-.212 1.382 0 2.869.106 3.215.106s1.354-.106 2.629-.106c.346 0 .558.027.558.212 0 .133-.133.212-.345.212-.159 0-.372 0-.744.08-1.009.212-1.142.903-1.142 2.736l-.053 18.09c0 2.045-.053 2.178-.292 2.178s-.611-.345-2.258-1.966c-.346-.319-4.782-4.835-8.049-8.367l-8.049-8.872.399 14.796v.027zm33.47-10.2l-.054-6.667c-.053-1.063-.318-1.541-1.328-1.753-.239-.053-.77-.08-1.062-.08-.133 0-.239-.053-.239-.186 0-.186.159-.239.504-.239l3.48.08 7.066-.027c.584-.027 1.089-.106 1.328-.159.16-.027.266-.159.425-.159.08 0 .133.133.133.292 0 .212-.159.584-.239 1.435l-.159 2.045c-.027.159-.08.345-.213.345-.186 0-.239-.159-.239-.398 0-.213-.027-.744-.186-1.116-.212-.478-.531-.876-2.205-1.036-.531-.053-3.878-.08-4.223-.08-.133 0-.186.08-.186.319v8.527c0 .212.026.319.186.319l4.914-.053c.744-.053 1.169-.133 1.461-.425.212-.239.345-.399.452-.399s.159.053.159.239-.159.717-.239 1.727l-.133 1.966c0 .239 0 .584-.213.584-.159 0-.212-.133-.212-.266 0-.319 0-.611-.133-1.009-.133-.425-.398-.956-1.594-1.089-.823-.106-3.878-.159-4.409-.159-.16 0-.213.106-.213.213v2.709 5.286c.107 2.125.558 2.523 3.586 2.523.797 0 2.152 0 2.975-.345.797-.345 1.169-.956 1.382-2.231.053-.345.133-.452.265-.452.186 0 .186.239.186.452 0 .239-.239 2.338-.398 3.002-.213.797-.452.797-1.674.797-4.648 0-6.72-.186-7.623-.186l-3.028.106c-.346 0-.505-.053-.505-.239 0-.106.053-.186.239-.186a3.93 3.93 0 0 0 .93-.133c.611-.133.77-.797.903-1.7.159-1.302.159-3.745.159-6.694V33.56l-.026-.053zm43.431-8.181c.371-1.009.504-1.195.69-1.195s.319.159.691 1.116l7.199 18.621c1.115 2.736 2.018 3.241 2.656 3.427.451.159.93.186 1.222.186.186 0 .319.027.319.186 0 .186-.266.239-.611.239-.452 0-2.71 0-4.835-.053-.584-.027-.93-.027-.93-.212 0-.133.08-.186.213-.212.186-.053.372-.345.186-.824l-2.869-7.597s-.133-.186-.292-.186h-6.641c-.159 0-.239.08-.319.239l-1.859 5.472c-.266.77-.425 1.514-.425 2.072 0 .611.637.903 1.169.903h.318c.213 0 .319.053.319.186 0 .186-.186.239-.452.239-.743 0-2.071-.106-2.417-.106s-2.045.106-3.48.106c-.398 0-.584-.053-.584-.239 0-.133.133-.186.266-.186a11.19 11.19 0 0 0 .903-.053c1.408-.186 2.045-1.355 2.603-2.895l7.013-19.179-.053-.053zm3.214 12.352c.159 0 .159-.08.133-.212l-2.922-8.341c-.16-.451-.319-.451-.479 0l-2.709 8.341c-.053.159 0 .212.08.212h5.897zm19.843 6.029c.053 2.524.371 3.347 1.195 3.586.584.159 1.275.186 1.541.186.159 0 .239.053.239.186 0 .186-.186.239-.558.239-1.753 0-3.002-.106-3.267-.106l-2.949.106c-.319 0-.505-.027-.505-.239 0-.133.107-.186.239-.186.239 0 .797-.027 1.275-.186.771-.212.93-1.116.93-3.931V25.671c.027-1.195.133-1.541.372-1.541s.77.664 1.089.983c.452.531 5.047 5.499 9.802 10.599l7.411 8.049-.345-15.672c-.027-2.019-.239-2.683-1.196-2.922-.557-.133-1.275-.159-1.514-.159-.212 0-.239-.106-.239-.212 0-.186.239-.212.611-.212 1.382 0 2.869.106 3.214.106s1.355-.106 2.63-.106c.346 0 .558.027.558.212 0 .133-.133.212-.345.212-.16 0-.372 0-.744.08-1.009.212-1.142.903-1.142 2.736l-.053 18.09c0 2.045-.054 2.178-.293 2.178s-.611-.345-2.258-1.966c-.345-.319-4.781-4.835-8.048-8.367l-8.049-8.872.399 14.796v.027zm33.469-10.2l-.053-6.667c-.053-1.036-.319-1.541-1.328-1.753a6.55 6.55 0 0 0-1.062-.106c-.133 0-.24-.053-.24-.186 0-.186.16-.239.505-.239l3.48.106 4.17-.106c3.055 0 8.713-.266 12.379 3.506 1.541 1.594 3.002 4.17 3.002 7.836 0 3.905-1.594 6.88-3.347 8.713-1.329 1.381-4.118 3.56-9.351 3.56-2.656 0-6.534-.372-6.853-.372-.159 0-2.099.106-3.028.106-.346 0-.505-.053-.505-.239 0-.08.053-.186.239-.186.266 0 .638-.053.93-.133.611-.133.77-.797.903-1.7.159-1.302.159-3.745.159-6.694v-5.419-.027zm2.604 3.321l.053 6.694c.026.77.106 2.019.345 2.338.398.584 1.62 1.222 5.26 1.222 2.868 0 5.525-1.062 7.358-2.869 1.593-1.567 2.47-4.542 2.47-7.385 0-3.931-1.7-6.455-2.975-7.783-2.896-3.055-6.428-3.48-10.094-3.48-.611 0-1.753.106-2.019.213-.266.133-.372.266-.372.611-.026 1.036-.026 4.197-.026 6.588v3.825.027zm50.311-11.502c.371-1.009.504-1.195.69-1.195s.319.159.691 1.116l7.198 18.621c1.116 2.736 2.019 3.241 2.657 3.427.451.159.93.186 1.222.186.186 0 .318.027.318.186 0 .186-.265.239-.61.239-.452 0-2.71 0-4.835-.053-.584-.027-.93-.027-.93-.212 0-.133.08-.186.213-.212.186-.053.372-.345.186-.824l-2.869-7.597s-.133-.186-.292-.186h-6.641c-.16 0-.239.08-.319.239l-1.859 5.472c-.266.77-.425 1.514-.425 2.072 0 .611.664.903 1.168.903h.319c.213 0 .319.053.319.186 0 .186-.186.239-.452.239-.743 0-2.072-.106-2.417-.106s-2.045.106-3.48.106c-.398 0-.584-.053-.584-.239 0-.133.133-.186.266-.186a11.19 11.19 0 0 0 .903-.053c1.408-.186 2.045-1.355 2.603-2.895l7.013-19.179-.053-.053zm3.214 12.352c.159 0 .159-.08.132-.212l-2.921-8.341c-.16-.451-.319-.451-.479 0l-2.709 8.341c-.053.159 0 .212.08.212h5.897zm23.455-12.352c.372-1.009.505-1.195.691-1.195s.318.159.69 1.116l7.199 18.621c1.116 2.736 2.019 3.241 2.656 3.427.452.159.93.186 1.222.186.186 0 .319.027.319.186 0 .186-.266.239-.611.239-.451 0-2.709 0-4.861-.053-.584-.027-.93-.027-.93-.212 0-.133.08-.186.213-.212.186-.053.372-.345.186-.824l-2.869-7.597s-.133-.186-.292-.186h-6.641c-.16 0-.239.08-.319.239l-1.859 5.472c-.266.77-.425 1.514-.425 2.072 0 .611.637.903 1.168.903h.319c.213 0 .319.053.319.186 0 .186-.186.239-.452.239-.743 0-2.072-.106-2.417-.106s-2.045.106-3.48.106c-.398 0-.584-.053-.584-.239 0-.133.133-.186.266-.186.212 0 .637-.027.903-.053 1.408-.186 2.045-1.355 2.603-2.895l7.013-19.179-.027-.053zm3.214 12.352c.16 0 .16-.08.133-.212l-2.922-8.341c-.159-.451-.319-.451-.478 0l-2.709 8.341c-.054.159 0 .212.079.212h5.897zm23.429 1.275l.159 6.694c.08.903.266 1.567 1.196 1.7l1.381.133c.186 0 .239.106.239.186 0 .159-.159.239-.505.239-1.7 0-3.639-.08-3.798-.08l-3.028.08c-.346 0-.505-.053-.505-.239 0-.08.053-.186.239-.186.266 0 .638-.053.93-.133.611-.133.77-.797.903-1.7.159-1.302.159-3.745.159-6.694v-13.07l-4.569.053c-1.912.027-2.656.239-3.134.983-.345.531-.425.744-.531.956-.08.239-.186.319-.319.319-.106 0-.159-.106-.159-.266 0-.319.61-2.975.69-3.214.053-.186.186-.584.319-.584.212 0 .531.319 1.355.372l2.443.159h11.582c1.966 0 2.816-.319 3.055-.319.159 0 .159.186.159.372l-.079 3.4c0 .266-.107.399-.213.399-.159 0-.212-.106-.239-.531v-.345c-.159-.93-.877-1.647-3.825-1.7l-3.878-.053v13.043l-.027.027zm27.546-14.823c6.933 0 12.14 4.383 12.14 11.582s-4.888 12.618-12.326 12.618c-8.447 0-11.98-6.588-11.98-12.139 0-4.994 3.639-12.06 12.166-12.06zm.638 23.03c2.789 0 8.527-1.594 8.527-10.599 0-7.411-4.516-11.396-9.377-11.396-5.154 0-9.005 3.4-9.005 10.147 0 7.199 4.33 11.821 9.881 11.821m22.048.373c-.425-.213-.452-.345-.452-1.169l.16-3.267c.026-.345.079-.478.239-.478.186 0 .212.106.212.345 0 .266 0 .717.08 1.142.452 2.284 2.497 3.161 4.569 3.161 2.975 0 4.409-2.125 4.409-4.117 0-2.125-.903-3.373-3.559-5.552l-1.381-1.142c-3.268-2.683-4.011-4.595-4.011-6.694 0-3.347 2.47-5.605 6.375-5.605 1.195 0 2.098.133 2.869.319.584.133.823.159 1.089.159s.318.053.318.212-.132 1.169-.132 3.267c0 .505-.054.717-.213.717-.186 0-.212-.159-.239-.398-.027-.372-.212-1.195-.398-1.541s-1.01-1.647-3.852-1.647c-2.125 0-3.799 1.328-3.799 3.586 0 1.753.877 2.816 3.772 5.18l.877.691c3.639 2.869 4.516 4.781 4.516 7.252 0 1.275-.478 3.613-2.63 5.127-1.328.93-3.002 1.302-4.675 1.302-1.461 0-2.869-.212-4.144-.823M186.463 89.078l-.053-6.667c-.054-1.062-.319-1.541-1.329-1.753-.239-.053-.77-.08-1.062-.08-.133 0-.239-.053-.239-.186 0-.186.159-.239.504-.239l3.48.08 7.066-.026c.584-.027 1.089-.106 1.328-.159.16-.027.266-.159.425-.159.08 0 .133.133.133.292 0 .213-.159.584-.239 1.434l-.159 2.045c-.027.159-.08.345-.213.345-.186 0-.239-.159-.239-.398 0-.213-.027-.744-.186-1.116-.212-.478-.531-.877-2.205-1.036-.531-.053-3.878-.08-4.223-.08-.133 0-.186.08-.186.319v8.527c0 .212.026.319.186.319l4.914-.053c.744-.053 1.169-.133 1.461-.425.212-.239.345-.398.452-.398s.159.053.159.239-.159.717-.239 1.727l-.133 1.966c0 .239 0 .584-.212.584-.16 0-.213-.133-.213-.266 0-.319 0-.611-.133-1.009-.133-.425-.398-.956-1.594-1.089-.823-.106-3.878-.159-4.409-.159-.159 0-.213.106-.213.213v2.709 5.286c.107 2.125.558 2.524 3.586 2.524.797 0 2.152 0 2.976-.346.796-.345 1.168-.956 1.381-2.231.053-.345.133-.452.265-.452.186 0 .186.239.186.452 0 .239-.239 2.338-.398 3.002-.213.797-.452.797-1.674.797-4.648 0-6.72-.186-7.623-.186l-3.028.106c-.346 0-.505-.053-.505-.239 0-.106.053-.186.239-.186.266 0 .637-.053.93-.133.611-.133.77-.797.903-1.7.159-1.301.159-3.745.159-6.694v-5.445l-.026-.053z" fill="#232323"/><path d="M204.526 89.078l-.053-6.667c-.054-1.036-.319-1.541-1.329-1.753-.239-.053-.77-.08-1.062-.08-.133 0-.239-.053-.239-.186 0-.186.159-.239.505-.239l3.479.106 3.639-.106c1.94 0 4.012.186 5.658 1.355.771.558 2.126 2.072 2.126 4.197 0 2.284-.957 4.569-3.746 7.119 2.524 3.241 4.622 5.977 6.428 7.889 1.674 1.753 3.002 2.099 3.772 2.232.585.079 1.01.079 1.196.079.159 0 .265.08.265.186 0 .186-.186.239-.743.239h-2.179c-1.726 0-2.497-.159-3.293-.584-1.329-.717-2.418-2.231-4.171-4.543-1.301-1.7-2.736-3.772-3.373-4.569-.133-.133-.213-.186-.399-.186l-3.798-.053c-.16 0-.213.08-.213.239v.744c0 2.975 0 5.392.159 6.694.08.904.266 1.568 1.196 1.7.425.054 1.115.133 1.381.133.186 0 .239.08.239.186 0 .16-.159.239-.505.239-1.7 0-3.639-.106-3.798-.106-.027 0-1.966.106-2.895.106-.346 0-.505-.053-.505-.239 0-.106.053-.186.239-.186.266 0 .637-.053.93-.133.611-.132.77-.796.903-1.7.159-1.301.159-3.745.159-6.694v-5.445l.027.027zm2.47 2.683c0 .159.053.292.213.372.451.266 1.886.505 3.24.505.744 0 1.594-.106 2.311-.584 1.089-.744 1.886-2.417 1.886-4.755 0-3.852-2.045-6.163-5.339-6.163-.93 0-1.753.106-2.072.186-.159.053-.239.186-.239.372v10.094-.027z" fill="#232323"/><path d="M227.051 89.078l-.053-6.667c-.053-1.062-.318-1.541-1.328-1.753-.239-.053-.77-.08-1.062-.08-.133 0-.24-.053-.24-.186 0-.186.16-.239.505-.239l3.4.08 3.002-.08c.345 0 .505.053.505.239 0 .133-.133.186-.239.186-.213 0-.399.027-.771.08-.823.159-1.089.691-1.142 1.753l-.053 6.667v1.859h.133c.531-.584 6.109-6.269 7.225-7.464.877-.903 1.673-1.7 1.673-2.231 0-.372-.159-.558-.398-.637-.159-.053-.292-.133-.292-.239 0-.159.159-.213.372-.213.611 0 1.567.08 2.311.08.159 0 2.204-.08 2.975-.08.345 0 .451.053.451.213s-.053.213-.292.213c-.451 0-1.115.159-1.726.425-1.275.558-1.94 1.328-3.347 2.656l-6.801 6.747c.797.903 7.226 7.544 8.501 8.713 2.603 2.418 3.108 2.896 4.595 3.507.797.345 1.7.398 1.913.398s.398.053.398.186c0 .16-.159.239-.691.239h-1.567c-.876 0-1.461 0-2.125-.053-1.647-.159-2.417-.823-3.745-1.886-1.382-1.142-7.943-8.208-9.404-10.041h-.159v3.028c0 2.975 0 5.392.159 6.694.08.904.266 1.568 1.196 1.7.425.054.929.133 1.195.133.186 0 .239.08.239.186 0 .16-.159.239-.505.239-1.514 0-3.293-.106-3.559-.106s-2.046.106-2.975.106c-.346 0-.505-.053-.505-.239 0-.106.053-.186.239-.186.266 0 .638-.053.93-.133.611-.132.77-.796.903-1.7.159-1.301.159-3.745.159-6.694v-5.445.027z" fill="#232323"/><path d="M249.497 89.078l-.053-6.667c-.053-1.062-.318-1.541-1.328-1.753-.239-.053-.77-.08-1.062-.08-.133 0-.239-.053-.239-.186 0-.186.159-.239.504-.239l3.4.08 3.002-.08c.345 0 .505.053.505.239 0 .133-.133.186-.239.186-.213 0-.399.027-.771.08-.823.159-1.089.691-1.142 1.753l-.053 6.667v1.859h.133c.531-.584 6.109-6.269 7.225-7.464.877-.903 1.673-1.7 1.673-2.231 0-.372-.159-.558-.398-.637-.159-.053-.292-.133-.292-.239 0-.159.159-.213.372-.213.611 0 1.567.08 2.311.08.159 0 2.204-.08 2.975-.08.345 0 .451.053.451.213s-.053.213-.292.213c-.451 0-1.115.159-1.726.425-1.275.558-1.94 1.328-3.347 2.656l-6.801 6.747c.797.903 7.226 7.544 8.501 8.713 2.603 2.418 3.108 2.896 4.595 3.507.797.345 1.7.398 1.913.398s.398.053.398.186c0 .16-.159.239-.691.239h-1.567c-.876 0-1.461 0-2.125-.053-1.647-.159-2.417-.823-3.745-1.886-1.382-1.142-7.916-8.208-9.404-10.041h-.159v3.028c0 2.975 0 5.392.159 6.694.08.904.266 1.568 1.196 1.7.425.054.929.133 1.195.133.186 0 .239.08.239.186 0 .16-.159.239-.505.239-1.514 0-3.293-.106-3.559-.106s-2.045.106-2.975.106c-.346 0-.505-.053-.505-.239 0-.106.053-.186.239-.186.266 0 .638-.053.93-.133.611-.132.77-.796.903-1.7.159-1.301.159-3.745.159-6.694v-5.445.027zm31.159-9.377c6.933 0 12.14 4.383 12.14 11.582S287.908 103.9 280.47 103.9c-8.447 0-11.98-6.588-11.98-12.14 0-4.994 3.639-12.06 12.166-12.06zm.638 23.03c2.789 0 8.527-1.594 8.527-10.599 0-7.411-4.516-11.396-9.377-11.396-5.154 0-9.005 3.4-9.005 10.147 0 7.199 4.33 11.82 9.881 11.82m27.44-13.625l-.053-6.667c-.053-1.062-.319-1.541-1.328-1.753a6.65 6.65 0 0 0-1.063-.08c-.132 0-.239-.053-.239-.186 0-.186.16-.239.505-.239l3.48.08 7.597-.026c.584-.027 1.089-.027 1.355-.133.186-.053.318-.186.425-.186s.186.133.186.292c0 .213-.16.584-.239 1.434l-.16 2.045c-.026.159-.08.345-.239.345s-.212-.159-.212-.372a3.26 3.26 0 0 0-.266-1.169c-.186-.398-.903-.956-2.099-.983l-4.754-.106c-.186 0-.266.106-.266.345v8.527c0 .186.027.266.212.266h3.958l1.382-.053c.743-.053 1.142-.159 1.408-.558.132-.159.212-.319.345-.319s.159.106.159.239c0 .186-.159.717-.239 1.727l-.133 2.072c0 .266 0 .584-.212.584-.16 0-.213-.133-.213-.266-.026-.319-.053-.744-.186-1.116-.159-.425-.637-.983-1.593-1.116-.771-.106-4.144-.106-4.676-.106-.159 0-.212.053-.212.266v2.63l.159 6.694c.08.904.266 1.568 1.196 1.7l1.381.133c.186 0 .239.08.239.186 0 .16-.159.239-.505.239-1.7 0-3.639-.106-3.798-.106l-3.028.106c-.346 0-.505-.053-.505-.239 0-.106.053-.186.239-.186.266 0 .637-.053.93-.133.611-.132.77-.796.903-1.7.159-1.301.159-3.745.159-6.694v-5.445.027zm26.138-9.377c6.934 0 12.14 4.383 12.14 11.582S342.15 103.9 334.713 103.9c-8.448 0-11.981-6.588-11.981-12.14 0-4.994 3.64-12.06 12.166-12.06zm.638 23.03c2.789 0 8.527-1.594 8.527-10.599 0-7.411-4.516-11.396-9.377-11.396-5.153 0-9.005 3.4-9.005 10.147 0 7.199 4.33 11.82 9.882 11.82m16.389-13.625l-.053-6.667c-.053-1.062-.319-1.541-1.328-1.753-.239-.053-.771-.08-1.063-.08-.133 0-.239-.053-.239-.186 0-.186.16-.239.505-.239l3.559.08 3.055-.08c.346 0 .505.053.505.239 0 .133-.133.186-.239.186-.213 0-.399.027-.771.08-.823.133-1.089.691-1.142 1.753l-.053 6.667v4.33c0 4.436.983 6.349 2.311 7.624 1.514 1.434 2.896 1.7 4.675 1.7 1.886 0 3.746-.903 4.835-2.231 1.408-1.754 1.78-4.383 1.78-7.571v-3.852l-.054-6.667c-.053-1.062-.318-1.541-1.328-1.753-.239-.053-.77-.08-1.062-.08-.133 0-.239-.053-.239-.186 0-.186.159-.239.504-.239l3.268.08 2.603-.08c.345 0 .505.053.505.239 0 .133-.133.186-.239.186-.213 0-.399 0-.771.08-.823.159-1.089.691-1.142 1.753l-.053 6.667v3.294c0 3.32-.372 7.039-2.842 9.218-2.232 1.966-4.543 2.284-6.349 2.284-1.063 0-4.171-.133-6.349-2.204-1.514-1.461-2.683-3.613-2.683-8.129v-4.516l-.106.053zm27.467 10.2c.053 2.523.371 3.347 1.195 3.586.584.159 1.275.186 1.541.186.159 0 .239.053.239.186 0 .186-.186.239-.558.239-1.753 0-3.002-.107-3.267-.107l-2.949.107c-.319 0-.505-.027-.505-.239 0-.133.107-.186.239-.186.24 0 .797-.027 1.275-.186.771-.213.93-1.116.93-3.932V81.241c.027-1.195.133-1.541.372-1.541s.77.664 1.089.983c.452.531 5.047 5.499 9.802 10.599l7.411 8.049-.345-15.672c-.027-2.019-.239-2.683-1.195-2.922-.558-.133-1.276-.159-1.515-.159-.212 0-.239-.106-.239-.213 0-.186.239-.212.611-.212 1.382 0 2.869.106 3.214.106s1.355-.106 2.63-.106c.346 0 .558.027.558.212 0 .133-.133.213-.345.213-.16 0-.372 0-.744.08-1.009.212-1.142.903-1.142 2.736l-.053 18.089c0 2.046-.053 2.179-.293 2.179s-.611-.346-2.257-1.966c-.346-.319-4.782-4.834-8.049-8.367l-8.049-8.872.399 14.796v.026zm27.625-10.2l-.053-6.667c-.053-1.036-.318-1.541-1.328-1.753a6.54 6.54 0 0 0-1.062-.106c-.133 0-.239-.053-.239-.186 0-.186.159-.239.504-.239l3.48.106 4.171-.106c3.054 0 8.712-.266 12.378 3.506 1.541 1.594 3.002 4.17 3.002 7.836 0 3.905-1.594 6.88-3.347 8.713-1.328 1.381-4.118 3.559-9.351 3.559-2.656 0-6.534-.371-6.853-.371-.159 0-2.098.106-3.028.106-.345 0-.505-.053-.505-.239 0-.08.053-.186.239-.186.266 0 .638-.053.93-.133.611-.133.77-.797.903-1.7.159-1.302.159-3.745.159-6.694v-5.419-.026zm2.604 3.32l.053 6.694c.026.77.106 2.019.345 2.337.399.585 1.62 1.222 5.26 1.222 2.869 0 5.525-1.062 7.358-2.868 1.593-1.567 2.47-4.542 2.47-7.385 0-3.931-1.7-6.455-2.975-7.783-2.895-3.055-6.428-3.48-10.094-3.48-.611 0-1.753.106-2.019.212-.266.133-.372.266-.372.611-.026 1.036-.026 4.197-.026 6.588v3.825.027zm29.087-11.502c.371-1.009.504-1.195.69-1.195s.319.159.691 1.116l7.198 18.621c1.116 2.736 2.019 3.241 2.657 3.427.451.159.93.186 1.222.186.186 0 .318.026.318.186 0 .186-.265.239-.61.239-.452 0-2.71 0-4.835-.053-.584-.027-.93-.027-.93-.213 0-.133.08-.186.213-.212.186-.054.372-.346.186-.824l-2.869-7.597s-.133-.186-.292-.186h-6.641c-.16 0-.239.08-.319.239l-1.859 5.472c-.266.771-.425 1.514-.425 2.072 0 .611.637.903 1.168.903h.319c.213 0 .319.053.319.186 0 .186-.186.239-.452.239-.743 0-2.072-.106-2.417-.106s-2.045.106-3.48.106c-.398 0-.584-.053-.584-.239 0-.133.133-.186.266-.186.212 0 .637-.026.903-.053 1.408-.186 2.045-1.355 2.603-2.895l7.013-19.179-.053-.053zm3.214 12.352c.159 0 .159-.08.132-.213l-2.921-8.341c-.16-.452-.319-.452-.479 0l-2.709 8.341c-.053.159 0 .213.08.213h5.897zm17.611 1.275l.16 6.694c.079.903.265 1.567 1.195 1.7l1.381.133c.186 0 .239.106.239.186 0 .159-.159.239-.504.239-1.701 0-3.64-.08-3.799-.08l-3.028.08c-.346 0-.505-.053-.505-.239 0-.08.053-.186.239-.186.266 0 .638-.053.93-.133.611-.133.77-.797.903-1.7.159-1.302.159-3.745.159-6.694V81.48l-4.569.053c-1.912.026-2.656.239-3.134.983-.345.531-.425.744-.531.956-.08.239-.186.319-.319.319-.106 0-.159-.106-.159-.266 0-.319.611-2.975.69-3.214.053-.186.186-.584.319-.584.213 0 .531.319 1.355.372l2.444.159h11.581c1.966 0 2.816-.319 3.055-.319.159 0 .159.186.159.372l-.079 3.4c0 .266-.107.398-.213.398-.159 0-.212-.106-.239-.531v-.345c-.159-.93-.877-1.647-3.825-1.7l-3.878-.053v13.043h-.027zm16.576 0l.159 6.694c.08.903.266 1.567 1.195 1.7l1.382.133c.186 0 .239.106.239.186 0 .159-.16.239-.505.239-1.7 0-3.639-.08-3.798-.08l-3.029.08c-.345 0-.504-.053-.504-.239 0-.08.053-.186.239-.186.265 0 .637-.053.929-.133.611-.133.771-.797.904-1.7.159-1.302.159-3.745.159-6.694v-5.419l-.053-6.667c-.053-1.063-.372-1.567-1.063-1.727-.345-.106-.744-.133-.956-.133-.133 0-.239-.053-.239-.186 0-.186.159-.239.505-.239l3.108.106 3.028-.106c.345 0 .504.053.504.239 0 .133-.132.186-.239.186-.212 0-.398.027-.77.08-.823.159-1.089.691-1.142 1.753l-.053 6.667v5.419.027zm18.089-14.822c6.933 0 12.14 4.383 12.14 11.582s-4.888 12.618-12.326 12.618c-8.447 0-11.98-6.588-11.98-12.14 0-4.994 3.639-12.06 12.166-12.06zm.638 23.03c2.789 0 8.527-1.594 8.527-10.599 0-7.411-4.516-11.396-9.377-11.396-5.153 0-9.005 3.4-9.005 10.147 0 7.199 4.33 11.82 9.881 11.82m18.86-3.425c.053 2.523.372 3.347 1.196 3.586.584.159 1.275.186 1.54.186.16 0 .239.053.239.186 0 .186-.186.239-.557.239-1.754 0-3.002-.107-3.268-.107l-2.948.107c-.319 0-.505-.027-.505-.239 0-.133.106-.186.239-.186.239 0 .797-.027 1.275-.186.77-.213.93-1.116.93-3.932V81.241c.026-1.195.133-1.541.372-1.541s.77.664 1.089.983c.451.531 5.047 5.499 9.802 10.599l7.411 8.049-.345-15.672c-.027-2.019-.239-2.683-1.196-2.922a7.64 7.64 0 0 0-1.514-.159c-.212 0-.239-.106-.239-.213 0-.186.239-.212.611-.212 1.381 0 2.869.106 3.214.106s1.355-.106 2.63-.106c.345 0 .558.027.558.212 0 .133-.133.213-.346.213-.159 0-.371 0-.743.08-1.01.212-1.143.903-1.143 2.736l-.053 18.089c0 2.046-.053 2.179-.292 2.179s-.611-.346-2.258-1.966c-.345-.319-4.781-4.834-8.048-8.367l-8.049-8.872.398 14.796v.026z" fill="#232323"/></svg>