<?xml version="1.0" encoding="UTF-8"?>
<svg xmlns="http://www.w3.org/2000/svg" width="510" height="127" viewBox="0 0 510 127" fill="none">
  <path d="M189.122 41.5061C189.122 46.5116 189.122 48.4467 188.193 50.6399C187.548 52.188 186.18 53.6329 183.678 55.3874C183.291 55.6712 182.775 56.0066 182.465 56.1614C182.413 56.1872 182.336 56.213 182.259 56.213C182.181 56.213 182.052 56.1614 182.052 56.0324C182.052 55.8518 182.207 55.7486 182.491 55.568C182.852 55.3616 183.291 54.9745 183.574 54.6907C185.587 52.6524 186.542 51.0011 186.542 43.0284V34.101C186.542 29.2761 186.542 28.3989 186.49 27.4184C186.438 26.3605 186.18 25.8703 185.148 25.6639C184.89 25.6123 184.374 25.5607 184.091 25.5607C183.962 25.5607 183.833 25.5091 183.833 25.3801C183.833 25.1995 183.987 25.1221 184.323 25.1221C185.716 25.1221 187.651 25.2253 187.806 25.2253C187.961 25.2253 189.922 25.1221 190.851 25.1221C191.186 25.1221 191.341 25.1737 191.341 25.3801C191.341 25.5091 191.212 25.5607 191.083 25.5607C190.876 25.5607 190.67 25.5865 190.309 25.6639C189.483 25.8187 189.225 26.3347 189.173 27.4184C189.122 28.3989 189.122 29.2761 189.122 34.101V41.5319V41.5061Z" fill="#232323"></path>
  <path d="M204.912 25.8703C205.274 24.8382 205.403 24.6576 205.583 24.6576C205.764 24.6576 205.893 24.8124 206.254 25.7671C206.719 26.9281 211.569 39.7257 213.453 44.4216C214.562 47.1824 215.465 47.6726 216.11 47.8532C216.575 48.0081 217.039 48.0339 217.349 48.0339C217.529 48.0339 217.658 48.0597 217.658 48.2145C217.658 48.3951 217.375 48.4725 217.039 48.4725C216.575 48.4725 214.304 48.4725 212.188 48.4209C211.595 48.3951 211.26 48.3951 211.26 48.2145C211.26 48.0855 211.363 48.0339 211.466 48.0081C211.647 47.9565 211.827 47.6726 211.647 47.1824L208.757 39.5709C208.757 39.5709 208.628 39.3903 208.473 39.3903H201.816C201.661 39.3903 201.558 39.4935 201.507 39.6483L199.649 45.1183C199.365 45.8923 199.21 46.6406 199.21 47.1824C199.21 47.8016 199.855 48.0855 200.397 48.0855H200.707C200.913 48.0855 201.016 48.1371 201.016 48.2661C201.016 48.4467 200.836 48.5241 200.552 48.5241C199.804 48.5241 198.488 48.4209 198.127 48.4209C197.765 48.4209 196.088 48.5241 194.643 48.5241C194.231 48.5241 194.05 48.4725 194.05 48.2661C194.05 48.1371 194.179 48.0855 194.334 48.0855C194.54 48.0855 194.979 48.0597 195.237 48.0339C196.656 47.8532 197.275 46.6664 197.843 45.1183L204.861 25.8961L204.912 25.8703ZM208.138 38.255C208.292 38.255 208.292 38.1518 208.267 38.0486L205.325 29.6889C205.17 29.2245 205.016 29.2245 204.861 29.6889L202.126 38.0486C202.074 38.2034 202.126 38.255 202.229 38.255H208.138Z" fill="#232323"></path>
  <path d="M224.109 44.2926C224.16 46.8212 224.47 47.6468 225.321 47.879C225.915 48.0339 226.586 48.0597 226.87 48.0597C227.024 48.0597 227.128 48.1113 227.128 48.2403C227.128 48.4209 226.947 48.4983 226.56 48.4983C224.805 48.4983 223.567 48.3951 223.283 48.3951C222.999 48.3951 221.709 48.4983 220.316 48.4983C220.006 48.4983 219.826 48.4725 219.826 48.2403C219.826 48.1113 219.929 48.0597 220.084 48.0597C220.342 48.0597 220.884 48.0339 221.348 47.879C222.122 47.6726 222.277 46.7696 222.277 43.9572V26.2057C222.303 24.993 222.406 24.6576 222.638 24.6576C222.87 24.6576 223.412 25.3284 223.722 25.6381C224.186 26.1799 228.805 31.1338 233.552 36.2425C236.623 39.5193 239.977 43.2864 240.983 44.3184L240.648 28.6052C240.622 26.5927 240.39 25.9219 239.435 25.6639C238.867 25.5348 238.171 25.509 237.913 25.509C237.706 25.509 237.655 25.4058 237.655 25.3026C237.655 25.122 237.913 25.0962 238.274 25.0962C239.667 25.0962 241.164 25.1994 241.499 25.1994C241.835 25.1994 242.867 25.0962 244.131 25.0962C244.466 25.0962 244.673 25.122 244.673 25.3026C244.673 25.4316 244.544 25.509 244.337 25.509C244.182 25.509 243.976 25.509 243.589 25.6123C242.557 25.8187 242.454 26.5153 242.454 28.373L242.402 46.5116C242.402 48.5499 242.351 48.7047 242.118 48.7047C241.86 48.7047 241.499 48.3693 239.848 46.718C239.512 46.4084 235.049 41.8673 231.772 38.3324C228.185 34.4622 224.702 30.5662 223.696 29.4567L224.109 44.2668V44.2926Z" fill="#232323"></path>
  <path d="M253.729 34.0752C253.729 29.2503 253.729 28.373 253.677 27.3926C253.626 26.3347 253.368 25.8445 252.362 25.6381C252.104 25.5865 251.588 25.5349 251.304 25.5349C251.175 25.5349 251.046 25.4833 251.046 25.3542C251.046 25.1736 251.201 25.0962 251.536 25.0962C252.929 25.0962 254.89 25.1994 255.019 25.1994C255.226 25.1994 261.392 25.1994 262.115 25.1736C262.708 25.1478 263.198 25.0704 263.456 25.0188C263.611 24.993 263.74 24.864 263.895 24.864C263.998 24.864 264.024 24.993 264.024 25.1478C264.024 25.3542 263.869 25.7413 263.766 26.5927C263.74 26.9023 263.663 28.2698 263.611 28.631C263.585 28.7859 263.508 28.9665 263.405 28.9665C263.224 28.9665 263.147 28.8117 263.147 28.5536C263.147 28.3472 263.121 27.8054 262.966 27.4442C262.76 26.9539 262.45 26.5669 260.773 26.3863C260.257 26.3347 256.877 26.2831 256.541 26.2831C256.412 26.2831 256.361 26.3863 256.361 26.5927V35.1331C256.361 35.3395 256.387 35.4427 256.541 35.4427C256.954 35.4427 260.747 35.4427 261.47 35.3911C262.218 35.3395 262.656 35.2621 262.914 34.9524C263.121 34.6944 263.25 34.5396 263.379 34.5396C263.482 34.5396 263.534 34.5912 263.534 34.7976C263.534 35.004 263.379 35.5201 263.276 36.5263C263.224 37.1456 263.147 38.2809 263.147 38.5131C263.147 38.7711 263.147 39.1065 262.94 39.1065C262.785 39.1065 262.734 38.9775 262.734 38.8227C262.734 38.5131 262.734 38.2034 262.605 37.7906C262.476 37.352 262.192 36.836 261.005 36.707C260.179 36.6037 257.109 36.5521 256.593 36.5521C256.438 36.5521 256.387 36.6554 256.387 36.7586V39.4935C256.387 40.5514 256.361 44.1378 256.387 44.7829C256.49 46.9244 256.954 47.3114 259.973 47.3114C260.773 47.3114 262.14 47.3114 262.94 46.976C263.74 46.6406 264.127 46.0213 264.334 44.7571C264.385 44.4216 264.463 44.2926 264.617 44.2926C264.798 44.2926 264.798 44.5506 264.798 44.7571C264.798 45.0151 264.54 47.105 264.411 47.75C264.205 48.5499 263.947 48.5499 262.734 48.5499C258.064 48.5499 256 48.3693 255.097 48.3693C254.942 48.3693 252.981 48.4725 252.052 48.4725C251.717 48.4725 251.562 48.4209 251.562 48.2145C251.562 48.1113 251.613 48.0339 251.82 48.0339C252.104 48.0339 252.465 47.9823 252.749 47.9049C253.368 47.7758 253.523 47.105 253.652 46.202C253.806 44.9119 253.806 42.4607 253.806 39.4935V34.0494L253.729 34.0752Z" fill="#232323"></path>
  <path d="M293.593 24.6576C300.559 24.6576 305.745 29.0439 305.745 36.2683C305.745 43.4928 300.843 48.9111 293.386 48.9111C284.897 48.9111 281.388 42.3317 281.388 36.7586C281.388 31.753 285.052 24.6576 293.567 24.6576M294.212 47.7242C296.998 47.7242 302.752 46.1245 302.752 37.1198C302.752 29.6889 298.237 25.7155 293.335 25.7155C288.174 25.7155 284.304 29.1213 284.304 35.8813C284.304 43.0799 288.639 47.7242 294.212 47.7242Z" fill="#232323"></path>
  <path d="M314.621 45.5828C311.628 42.8994 310.88 39.3646 310.88 36.4232C310.88 34.3591 311.602 30.7211 314.337 27.9861C316.195 26.1284 319.007 24.6835 323.78 24.6835C325.019 24.6835 326.748 24.7867 328.27 25.0447C329.457 25.2511 330.437 25.4575 331.418 25.5091C331.753 25.5349 331.831 25.6639 331.831 25.8445C331.831 26.1026 331.727 26.4638 331.676 27.5733C331.624 28.6053 331.624 30.3082 331.573 30.7727C331.547 31.2371 331.469 31.4177 331.289 31.4177C331.082 31.4177 331.031 31.2113 331.031 30.7727C331.031 29.56 330.541 28.2957 329.741 27.6249C328.657 26.696 326.283 25.8703 323.548 25.8703C319.42 25.8703 317.511 27.083 316.427 28.1409C314.156 30.3082 313.64 33.069 313.64 36.2168C313.64 42.1254 318.182 47.5437 324.813 47.5437C327.135 47.5437 328.967 47.2599 330.205 45.9956C330.85 45.3248 331.263 43.9573 331.34 43.3896C331.392 43.0542 331.469 42.9252 331.65 42.9252C331.805 42.9252 331.856 43.1316 331.856 43.3896C331.856 43.5961 331.495 46.3052 331.186 47.3631C331.005 47.9565 330.928 48.0081 330.386 48.2661C329.147 48.7564 326.799 48.9886 324.813 48.9886C320.168 48.9886 317.046 47.8533 314.595 45.6344" fill="#232323"></path>
  <path d="M359.129 39.5193C359.129 42.4865 359.129 44.9376 359.284 46.2277C359.387 47.1308 359.567 47.8016 360.496 47.9306C360.935 47.9822 361.606 48.0596 361.889 48.0596C362.07 48.0596 362.148 48.1628 362.148 48.2402C362.148 48.3951 361.993 48.4983 361.657 48.4983C359.954 48.4983 358.019 48.3951 357.839 48.3951C357.658 48.3951 355.723 48.4983 354.82 48.4983C354.484 48.4983 354.33 48.4467 354.33 48.2402C354.33 48.137 354.381 48.0596 354.588 48.0596C354.871 48.0596 355.233 48.008 355.516 47.9306C356.136 47.8016 356.291 47.1308 356.42 46.2277C356.574 44.9376 356.574 42.4865 356.574 39.5193V36.2683C356.574 36.2683 356.471 36.0877 356.394 36.0877H343.286C343.286 36.0877 343.106 36.1135 343.106 36.2683V39.5193C343.106 42.4865 343.106 44.9376 343.261 46.2277C343.364 47.1308 343.545 47.8016 344.473 47.9306C344.912 47.9822 345.583 48.0596 345.867 48.0596C346.047 48.0596 346.125 48.1628 346.125 48.2402C346.125 48.3951 345.97 48.4983 345.634 48.4983C343.932 48.4983 341.971 48.3951 341.816 48.3951C341.661 48.3951 339.7 48.4983 338.797 48.4983C338.462 48.4983 338.307 48.4467 338.307 48.2402C338.307 48.137 338.358 48.0596 338.565 48.0596C338.849 48.0596 339.21 48.008 339.494 47.9306C340.113 47.8016 340.268 47.1308 340.397 46.2277C340.552 44.9376 340.552 42.4865 340.552 39.5193V34.0752C340.552 29.2503 340.552 28.373 340.5 27.3925C340.448 26.3347 340.19 25.8444 339.158 25.638C338.9 25.5864 338.384 25.5348 338.1 25.5348C337.971 25.5348 337.842 25.4832 337.842 25.3542C337.842 25.1736 337.997 25.0962 338.333 25.0962C339.726 25.0962 341.687 25.1994 341.842 25.1994C341.996 25.1994 343.957 25.0962 344.86 25.0962C345.196 25.0962 345.351 25.1478 345.351 25.3542C345.351 25.4832 345.222 25.5348 345.093 25.5348C344.886 25.5348 344.68 25.5606 344.319 25.638C343.493 25.7928 343.235 26.3089 343.183 27.3925C343.132 28.373 343.132 29.2503 343.132 34.0752V34.7202C343.132 34.875 343.235 34.9008 343.312 34.9008H356.42C356.42 34.9008 356.6 34.875 356.6 34.7202V34.0752C356.6 29.2503 356.6 28.373 356.549 27.3925C356.497 26.3347 356.239 25.8444 355.207 25.638C354.949 25.5864 354.433 25.5348 354.149 25.5348C354.02 25.5348 353.891 25.4832 353.891 25.3542C353.891 25.1736 354.046 25.0962 354.381 25.0962C355.774 25.0962 357.71 25.1994 357.864 25.1994C358.019 25.1994 359.98 25.0962 360.909 25.0962C361.244 25.0962 361.399 25.1478 361.399 25.3542C361.399 25.4832 361.27 25.5348 361.141 25.5348C360.935 25.5348 360.728 25.5606 360.367 25.638C359.542 25.7928 359.284 26.3089 359.232 27.3925C359.18 28.373 359.18 29.2503 359.18 34.0752V39.5193H359.129Z" fill="#232323"></path>
  <path d="M386.943 25.8703C387.304 24.8382 387.433 24.6576 387.614 24.6576C387.794 24.6576 387.923 24.8124 388.285 25.7671C388.749 26.9281 393.6 39.7257 395.483 44.4216C396.593 47.1824 397.496 47.6726 398.141 47.8532C398.605 48.0081 399.07 48.0339 399.379 48.0339C399.56 48.0339 399.689 48.0597 399.689 48.2145C399.689 48.3951 399.405 48.4725 399.07 48.4725C398.605 48.4725 396.335 48.4725 394.219 48.4209C393.625 48.3951 393.29 48.3951 393.29 48.2145C393.29 48.0855 393.393 48.0339 393.496 48.0081C393.677 47.9565 393.858 47.6726 393.677 47.1824L390.787 39.5709C390.787 39.5709 390.658 39.3903 390.503 39.3903H383.847C383.692 39.3903 383.589 39.4935 383.537 39.6483L381.679 45.1183C381.395 45.8923 381.241 46.6406 381.241 47.1824C381.241 47.8016 381.886 48.0855 382.428 48.0855H382.737C382.944 48.0855 383.047 48.1371 383.047 48.2661C383.047 48.4467 382.866 48.5241 382.582 48.5241C381.834 48.5241 380.518 48.4209 380.157 48.4209C379.796 48.4209 378.119 48.5241 376.674 48.5241C376.261 48.5241 376.08 48.4725 376.08 48.2661C376.08 48.1371 376.209 48.0855 376.364 48.0855C376.571 48.0855 377.009 48.0597 377.267 48.0339C378.686 47.8532 379.306 46.6664 379.873 45.1183L386.891 25.8961L386.943 25.8703ZM390.168 38.255C390.323 38.255 390.323 38.1518 390.297 38.0486L387.356 29.6889C387.201 29.2245 387.046 29.2245 386.891 29.6889L384.156 38.0486C384.105 38.2034 384.156 38.255 384.259 38.255H390.168Z" fill="#232323"></path>
  <path d="M409.751 25.8703C410.113 24.8382 410.242 24.6576 410.422 24.6576C410.603 24.6576 410.732 24.8124 411.093 25.7671C411.558 26.9281 416.408 39.7257 418.292 44.4216C419.401 47.1824 420.304 47.6726 420.949 47.8532C421.414 48.0081 421.878 48.0339 422.188 48.0339C422.368 48.0339 422.497 48.0597 422.497 48.2145C422.497 48.3951 422.214 48.4725 421.878 48.4725C421.414 48.4725 419.143 48.4725 417.028 48.4209C416.434 48.3951 416.099 48.3951 416.099 48.2145C416.099 48.0855 416.202 48.0339 416.305 48.0081C416.486 47.9565 416.666 47.6726 416.486 47.1824L413.596 39.5709C413.596 39.5709 413.467 39.3903 413.312 39.3903H406.655C406.5 39.3903 406.397 39.4935 406.346 39.6483L404.488 45.1183C404.204 45.8923 404.049 46.6406 404.049 47.1824C404.049 47.8016 404.694 48.0855 405.236 48.0855H405.546C405.752 48.0855 405.855 48.1371 405.855 48.2661C405.855 48.4467 405.675 48.5241 405.391 48.5241C404.643 48.5241 403.327 48.4209 402.966 48.4209C402.604 48.4209 400.927 48.5241 399.482 48.5241C399.07 48.5241 398.889 48.4725 398.889 48.2661C398.889 48.1371 399.018 48.0855 399.173 48.0855C399.379 48.0855 399.818 48.0597 400.076 48.0339C401.495 47.8532 402.114 46.6664 402.682 45.1183L409.7 25.8961L409.751 25.8703ZM412.977 38.255C413.131 38.255 413.131 38.1518 413.106 38.0486L410.164 29.6889C410.009 29.2245 409.855 29.2245 409.7 29.6889L406.965 38.0486C406.913 38.2034 406.965 38.255 407.068 38.255H412.977Z" fill="#232323"></path>
  <path d="M432.534 39.5194C432.534 42.4866 432.534 44.9377 432.689 46.2278C432.792 47.1308 432.973 47.8017 433.902 47.9307C434.34 47.9823 435.011 48.0597 435.295 48.0597C435.476 48.0597 435.553 48.1629 435.553 48.2403C435.553 48.3951 435.398 48.4983 435.063 48.4983C433.36 48.4983 431.425 48.3951 431.244 48.3951C431.064 48.3951 429.154 48.4983 428.225 48.4983C427.89 48.4983 427.735 48.4467 427.735 48.2403C427.735 48.1371 427.787 48.0597 427.993 48.0597C428.277 48.0597 428.638 48.0081 428.922 47.9307C429.541 47.8017 429.696 47.1308 429.825 46.2278C429.98 44.9377 429.98 42.4866 429.98 39.5194V26.4379L425.413 26.4896C423.504 26.5154 422.755 26.7476 422.265 27.47C421.93 27.986 421.827 28.2183 421.749 28.4247C421.646 28.6827 421.569 28.7343 421.44 28.7343C421.336 28.7343 421.285 28.6311 421.285 28.4505C421.285 28.1409 421.904 25.4833 421.956 25.2253C422.007 25.0447 422.136 24.6318 422.265 24.6318C422.472 24.6318 422.781 24.9415 423.633 24.9931C424.536 25.0963 425.697 25.1479 426.084 25.1479H437.695C439.681 25.1479 440.507 24.8382 440.765 24.8382C440.92 24.8382 440.92 25.0189 440.92 25.1995C440.92 26.1283 440.817 28.2699 440.817 28.6053C440.817 28.8891 440.739 29.0181 440.61 29.0181C440.455 29.0181 440.404 28.9149 440.352 28.5021V28.1667C440.197 27.2378 439.475 26.5412 436.508 26.4638L432.612 26.4121V39.4936L432.534 39.5194Z" fill="#232323"></path>
  <path d="M456.22 24.6576C463.187 24.6576 468.373 29.0439 468.373 36.2683C468.373 43.4928 463.47 48.9111 456.014 48.9111C447.525 48.9111 444.016 42.3317 444.016 36.7586C444.016 31.753 447.68 24.6576 456.194 24.6576M456.839 47.7242C459.626 47.7242 465.38 46.1245 465.38 37.1198C465.38 29.6889 460.864 25.7155 455.962 25.7155C450.802 25.7155 446.932 29.1213 446.932 35.8813C446.932 43.0799 451.266 47.7242 456.839 47.7242Z" fill="#232323"></path>
  <path d="M475.03 48.0855C474.591 47.8791 474.565 47.7501 474.565 46.8986C474.565 45.3505 474.694 44.1121 474.72 43.6218C474.746 43.2864 474.823 43.1316 474.978 43.1316C475.159 43.1316 475.184 43.2348 475.184 43.467C475.184 43.7508 475.184 44.1895 475.288 44.6023C475.752 46.8986 477.79 47.7501 479.854 47.7501C482.822 47.7501 484.267 45.6085 484.267 43.6218C484.267 41.4803 483.363 40.2418 480.706 38.0487L479.313 36.9134C476.036 34.23 475.288 32.2949 475.288 30.205C475.288 26.9024 477.765 24.6318 481.686 24.6318C482.899 24.6318 483.802 24.7608 484.55 24.9415C485.144 25.0705 485.376 25.0963 485.634 25.0963C485.892 25.0963 485.944 25.1479 485.944 25.3027C485.944 25.4575 485.815 26.4896 485.815 28.5795C485.815 29.0697 485.763 29.3019 485.608 29.3019C485.428 29.3019 485.402 29.1471 485.35 28.8891C485.324 28.5279 485.144 27.6764 484.937 27.341C484.757 27.0056 483.905 25.6897 481.067 25.6897C478.926 25.6897 477.274 27.0056 477.274 29.2761C477.274 31.0306 478.152 32.0885 481.041 34.4623L481.893 35.1331C485.557 38.0229 486.408 39.9322 486.408 42.4091C486.408 43.6734 485.918 46.0214 483.776 47.5437C482.435 48.4725 480.783 48.8337 479.106 48.8337C477.661 48.8337 476.216 48.6273 474.952 48.0081" fill="#232323"></path>
  <path d="M186.516 89.7809C186.516 84.956 186.516 84.0787 186.464 83.0983C186.413 82.0404 186.155 81.5502 185.148 81.3437C184.89 81.2921 184.374 81.2405 184.091 81.2405C183.961 81.2405 183.832 81.1889 183.832 81.0599C183.832 80.8793 183.987 80.8019 184.323 80.8019C185.716 80.8019 187.677 80.9051 187.806 80.9051C188.012 80.9051 194.179 80.9051 194.901 80.8793C195.495 80.8535 195.985 80.7761 196.217 80.7245C196.372 80.6987 196.501 80.5697 196.656 80.5697C196.759 80.5697 196.785 80.6987 196.785 80.8535C196.785 81.0599 196.63 81.447 196.527 82.2984C196.501 82.608 196.424 83.9755 196.372 84.3367C196.346 84.4915 196.269 84.6722 196.166 84.6722C195.985 84.6722 195.908 84.5173 195.908 84.2593C195.908 84.0529 195.882 83.5111 195.727 83.1499C195.521 82.6596 195.211 82.2726 193.534 82.092C193.018 82.0404 189.638 81.9888 189.302 81.9888C189.173 81.9888 189.122 82.092 189.122 82.2984V90.8387C189.122 91.0452 189.148 91.1484 189.302 91.1484C189.715 91.1484 193.508 91.1484 194.231 91.0968C194.979 91.0452 195.417 90.9678 195.675 90.6581C195.882 90.4001 196.011 90.2453 196.14 90.2453C196.243 90.2453 196.295 90.2969 196.295 90.5033C196.295 90.7097 196.14 91.2258 196.037 92.232C195.985 92.8513 195.908 93.9865 195.908 94.2188C195.908 94.4768 195.908 94.8122 195.701 94.8122C195.546 94.8122 195.495 94.6832 195.495 94.5284C195.495 94.2188 195.495 93.9091 195.366 93.4963C195.237 93.0577 194.953 92.5417 193.766 92.4126C192.94 92.3094 189.87 92.2578 189.328 92.2578C189.173 92.2578 189.122 92.361 189.122 92.4642V95.1734C189.122 96.2313 189.096 99.8177 189.122 100.463C189.225 102.604 189.689 102.991 192.708 102.991C193.508 102.991 194.876 102.991 195.675 102.656C196.475 102.32 196.862 101.701 197.069 100.437C197.12 100.102 197.198 99.9725 197.353 99.9725C197.533 99.9725 197.533 100.231 197.533 100.437C197.533 100.695 197.275 102.785 197.146 103.43C196.94 104.23 196.682 104.23 195.469 104.23C190.799 104.23 188.735 104.049 187.832 104.049C187.677 104.049 185.716 104.152 184.787 104.152C184.452 104.152 184.297 104.101 184.297 103.894C184.297 103.791 184.349 103.714 184.555 103.714C184.839 103.714 185.2 103.662 185.484 103.585C186.103 103.456 186.258 102.785 186.387 101.882C186.542 100.592 186.542 98.1406 186.542 95.1734V89.7293L186.516 89.7809Z" fill="#232323"></path>
  <path d="M205.067 89.781C205.067 84.9561 205.067 84.0788 205.016 83.0983C204.964 82.0405 204.706 81.5502 203.674 81.3438C203.416 81.2922 202.9 81.2406 202.616 81.2406C202.487 81.2406 202.358 81.189 202.358 81.06C202.358 80.8794 202.513 80.802 202.848 80.802C204.242 80.802 206.177 80.9052 206.331 80.9052C206.667 80.9052 209.015 80.802 209.995 80.802C211.93 80.802 214.02 80.9826 215.646 82.1695C216.42 82.7371 217.787 84.2336 217.787 86.3752C217.787 88.6715 216.833 90.942 214.046 93.5222C216.575 96.7732 218.69 99.5082 220.471 101.443C222.148 103.198 223.464 103.559 224.238 103.662C224.831 103.765 225.27 103.765 225.45 103.765C225.605 103.765 225.734 103.869 225.734 103.946C225.734 104.127 225.554 104.204 224.986 104.204H222.793C221.064 104.204 220.29 104.049 219.49 103.611C218.149 102.888 217.065 101.392 215.31 99.0695C214.02 97.3666 212.55 95.3025 211.93 94.5027C211.801 94.3736 211.724 94.322 211.543 94.322L207.751 94.2704C207.596 94.2704 207.544 94.3736 207.544 94.5285V95.2767C207.544 98.2439 207.544 100.695 207.699 101.985C207.802 102.888 207.983 103.559 208.912 103.688C209.35 103.74 210.021 103.817 210.305 103.817C210.486 103.817 210.563 103.92 210.563 103.998C210.563 104.152 210.408 104.256 210.073 104.256C208.37 104.256 206.435 104.152 206.28 104.152C206.254 104.152 204.293 104.256 203.364 104.256C203.029 104.256 202.874 104.204 202.874 103.998C202.874 103.894 202.951 103.817 203.132 103.817C203.416 103.817 203.777 103.765 204.061 103.688C204.68 103.559 204.835 102.888 204.964 101.985C205.119 100.695 205.119 98.2439 205.119 95.2767V89.8326L205.067 89.781ZM207.544 92.4643C207.544 92.6191 207.596 92.7481 207.751 92.8256C208.215 93.1094 209.634 93.3158 211.002 93.3158C211.75 93.3158 212.601 93.2126 213.324 92.7223C214.407 91.9741 215.207 90.3228 215.207 87.949C215.207 84.0788 213.169 81.7567 209.841 81.7567C208.912 81.7567 208.086 81.8599 207.776 81.9373C207.622 81.9889 207.518 82.1179 207.518 82.2985V92.4127L207.544 92.4643Z" fill="#232323"></path>
  <path d="M228.108 89.781C228.108 84.9561 228.108 84.0788 228.056 83.0983C228.005 82.0405 227.747 81.5502 226.741 81.3438C226.483 81.2922 225.967 81.2406 225.683 81.2406C225.554 81.2406 225.425 81.189 225.425 81.06C225.425 80.8794 225.58 80.802 225.915 80.802C227.308 80.802 229.14 80.9052 229.321 80.9052C229.605 80.9052 231.385 80.802 232.314 80.802C232.649 80.802 232.804 80.8536 232.804 81.06C232.804 81.189 232.675 81.2406 232.546 81.2406C232.34 81.2406 232.133 81.2664 231.772 81.3438C230.946 81.4986 230.688 82.0147 230.637 83.0983C230.585 84.0788 230.585 84.9561 230.585 89.781V91.6387H230.714C231.23 91.0452 236.829 85.3689 237.964 84.1562C238.842 83.2532 239.641 82.4533 239.641 81.9373C239.641 81.576 239.487 81.3696 239.229 81.2922C239.074 81.2406 238.945 81.1632 238.945 81.0342C238.945 80.8794 239.1 80.8278 239.306 80.8278C239.925 80.8278 240.88 80.931 241.628 80.931C241.783 80.931 243.821 80.8278 244.595 80.8278C244.931 80.8278 245.06 80.8794 245.06 81.0342C245.06 81.189 245.008 81.2406 244.75 81.2406C244.286 81.2406 243.641 81.3954 243.021 81.6793C241.757 82.2469 241.06 83.0209 239.693 84.3368C238.919 85.0851 233.526 90.3228 232.881 91.0968C233.681 91.9999 240.132 98.6567 241.396 99.8178C244.002 102.217 244.518 102.733 246.014 103.353C246.814 103.688 247.717 103.765 247.924 103.765C248.13 103.765 248.311 103.817 248.311 103.946C248.311 104.101 248.156 104.204 247.64 104.204H246.066C245.189 104.204 244.621 104.204 243.924 104.152C242.273 103.998 241.499 103.327 240.183 102.269C238.79 101.134 232.236 94.0382 230.74 92.2063H230.585V95.2251C230.585 98.1923 230.585 100.643 230.74 101.934C230.843 102.837 231.024 103.507 231.953 103.636C232.391 103.688 232.881 103.765 233.165 103.765C233.346 103.765 233.423 103.843 233.423 103.946C233.423 104.101 233.268 104.204 232.933 104.204C231.411 104.204 229.63 104.101 229.372 104.101C229.114 104.101 227.334 104.204 226.405 104.204C226.07 104.204 225.915 104.152 225.915 103.946C225.915 103.843 225.967 103.765 226.173 103.765C226.457 103.765 226.818 103.714 227.102 103.636C227.721 103.507 227.876 102.837 228.005 101.934C228.16 100.643 228.16 98.1923 228.16 95.2251V89.781H228.108Z" fill="#232323"></path>
  <path d="M251.046 89.781C251.046 84.9561 251.046 84.0788 250.994 83.0983C250.943 82.0405 250.685 81.5502 249.678 81.3438C249.42 81.2922 248.904 81.2406 248.62 81.2406C248.491 81.2406 248.362 81.189 248.362 81.06C248.362 80.8794 248.517 80.802 248.853 80.802C250.246 80.802 252.078 80.9052 252.258 80.9052C252.542 80.9052 254.323 80.802 255.251 80.802C255.587 80.802 255.742 80.8536 255.742 81.06C255.742 81.189 255.613 81.2406 255.484 81.2406C255.277 81.2406 255.071 81.2664 254.71 81.3438C253.884 81.4986 253.626 82.0147 253.574 83.0983C253.523 84.0788 253.523 84.9561 253.523 89.781V91.6387H253.652C254.168 91.0452 259.767 85.3689 260.902 84.1562C261.779 83.2532 262.579 82.4533 262.579 81.9373C262.579 81.576 262.424 81.3696 262.166 81.2922C262.011 81.2406 261.882 81.1632 261.882 81.0342C261.882 80.8794 262.037 80.8278 262.244 80.8278C262.863 80.8278 263.818 80.931 264.566 80.931C264.721 80.931 266.759 80.8278 267.533 80.8278C267.868 80.8278 267.997 80.8794 267.997 81.0342C267.997 81.189 267.92 81.2406 267.688 81.2406C267.223 81.2406 266.578 81.3954 265.959 81.6793C264.695 82.2469 263.998 83.0209 262.631 84.3368C261.857 85.0851 256.464 90.3228 255.819 91.0968C256.619 91.9999 263.069 98.6567 264.334 99.8178C266.94 102.217 267.456 102.733 268.952 103.353C269.752 103.688 270.655 103.765 270.861 103.765C271.068 103.765 271.248 103.817 271.248 103.946C271.248 104.101 271.094 104.204 270.578 104.204H269.004C268.126 104.204 267.559 104.204 266.862 104.152C265.211 103.998 264.437 103.327 263.121 102.269C261.728 101.134 255.174 94.0382 253.677 92.2063H253.523V95.2251C253.523 98.1923 253.523 100.643 253.677 101.934C253.781 102.837 253.961 103.507 254.89 103.636C255.329 103.688 255.819 103.765 256.103 103.765C256.283 103.765 256.361 103.843 256.361 103.946C256.361 104.101 256.206 104.204 255.871 104.204C254.348 104.204 252.568 104.101 252.31 104.101C252.052 104.101 250.272 104.204 249.343 104.204C249.007 104.204 248.853 104.152 248.853 103.946C248.853 103.843 248.904 103.765 249.111 103.765C249.394 103.765 249.756 103.714 250.039 103.636C250.659 103.507 250.814 102.837 250.943 101.934C251.097 100.643 251.097 98.1923 251.097 95.2251V89.781H251.046Z" fill="#232323"></path>
  <path d="M282.782 80.3633C289.748 80.3633 294.934 84.7496 294.934 91.974C294.934 99.1985 290.058 104.617 282.601 104.617C274.112 104.617 270.603 98.0374 270.603 92.4642C270.603 87.4587 274.267 80.3633 282.782 80.3633ZM283.427 103.43C286.213 103.43 291.967 101.83 291.967 92.8255C291.967 85.3946 287.452 81.3953 282.575 81.3953C277.415 81.3953 273.545 84.8012 273.545 91.587C273.545 98.7856 277.879 103.43 283.453 103.43" fill="#232323"></path>
  <path d="M300.12 103.791C299.682 103.585 299.656 103.456 299.656 102.604C299.656 101.056 299.785 99.8177 299.811 99.3275C299.837 98.9921 299.914 98.8373 300.069 98.8373C300.249 98.8373 300.275 98.9405 300.275 99.1727C300.275 99.4565 300.275 99.8951 300.378 100.308C300.843 102.604 302.881 103.456 304.945 103.456C307.913 103.456 309.357 101.314 309.357 99.3275C309.357 97.186 308.454 95.9475 305.797 93.7544L304.403 92.6191C301.127 89.9357 300.378 88.0006 300.378 85.9107C300.378 82.6081 302.855 80.3375 306.777 80.3375C307.99 80.3375 308.893 80.4665 309.641 80.6471C310.235 80.7761 310.467 80.802 310.725 80.802C310.983 80.802 311.034 80.8536 311.034 81.0084C311.034 81.1632 310.905 82.1952 310.905 84.2852C310.905 84.7754 310.854 85.0076 310.699 85.0076C310.518 85.0076 310.493 84.8528 310.441 84.5948C310.415 84.2336 310.235 83.3821 310.028 83.0467C309.848 82.7113 308.996 81.3954 306.158 81.3954C304.016 81.3954 302.365 82.7113 302.365 84.9818C302.365 86.7363 303.242 87.7942 306.132 90.1679L306.984 90.8388C310.647 93.7286 311.499 95.6379 311.499 98.1148C311.499 99.3791 311.009 101.727 308.867 103.249C307.525 104.178 305.874 104.539 304.197 104.539C302.752 104.539 301.333 104.333 300.043 103.714" fill="#232323"></path>
  <path d="M327.212 103.791C326.773 103.585 326.748 103.456 326.748 102.604C326.748 101.056 326.877 99.8177 326.902 99.3275C326.928 98.9921 327.006 98.8373 327.16 98.8373C327.341 98.8373 327.367 98.9405 327.367 99.1727C327.367 99.4565 327.367 99.8951 327.47 100.308C327.935 102.604 329.973 103.456 332.037 103.456C335.004 103.456 336.449 101.314 336.449 99.3275C336.449 97.186 335.546 95.9475 332.888 93.7544L331.495 92.6191C328.218 89.9357 327.47 88.0006 327.47 85.9107C327.47 82.6081 329.947 80.3375 333.869 80.3375C335.082 80.3375 335.985 80.4665 336.733 80.6471C337.326 80.7761 337.559 80.802 337.817 80.802C338.075 80.802 338.126 80.8536 338.126 81.0084C338.126 81.1632 337.997 82.1952 337.997 84.2852C337.997 84.7754 337.946 85.0076 337.791 85.0076C337.61 85.0076 337.584 84.8528 337.533 84.5948C337.507 84.2336 337.326 83.3821 337.12 83.0467C336.939 82.7113 336.088 81.3954 333.25 81.3954C331.108 81.3954 329.457 82.7113 329.457 84.9818C329.457 86.7363 330.334 87.7942 333.224 90.1679L334.075 90.8388C337.739 93.7286 338.591 95.6379 338.591 98.1148C338.591 99.3791 338.1 101.727 335.959 103.249C334.617 104.178 332.966 104.539 331.289 104.539C329.844 104.539 328.399 104.333 327.135 103.714" fill="#232323"></path>
  <path d="M353.091 95.2251C353.091 98.1922 353.091 100.643 353.246 101.933C353.349 102.837 353.53 103.507 354.459 103.636C354.897 103.688 355.568 103.765 355.852 103.765C356.033 103.765 356.11 103.843 356.11 103.946C356.11 104.101 355.955 104.204 355.62 104.204C353.917 104.204 351.982 104.101 351.801 104.101C351.62 104.101 349.711 104.204 348.782 104.204C348.447 104.204 348.292 104.152 348.292 103.946C348.292 103.843 348.344 103.765 348.55 103.765C348.834 103.765 349.195 103.714 349.479 103.636C350.098 103.507 350.253 102.837 350.382 101.933C350.537 100.643 350.537 98.1922 350.537 95.2251V82.1436L345.97 82.1952C344.061 82.221 343.312 82.4533 342.822 83.1757C342.487 83.6917 342.383 83.9239 342.306 84.1304C342.203 84.3884 342.125 84.44 341.996 84.44C341.893 84.44 341.842 84.3368 341.842 84.1562C341.842 83.8465 342.461 81.189 342.512 80.931C342.564 80.7503 342.693 80.3375 342.822 80.3375C343.029 80.3375 343.338 80.6471 344.19 80.6987C345.093 80.802 346.254 80.8536 346.641 80.8536H358.251C360.238 80.8536 361.064 80.5439 361.322 80.5439C361.477 80.5439 361.477 80.7245 361.477 80.9052C361.477 81.834 361.373 83.9756 361.373 84.311C361.373 84.5948 361.296 84.698 361.167 84.698C361.012 84.698 360.961 84.5948 360.909 84.182V83.8465C360.754 82.9177 360.032 82.221 357.065 82.1436L353.169 82.092V95.1735L353.091 95.2251Z" fill="#232323"></path>
  <path d="M370.172 95.2251C370.172 98.1923 370.172 100.643 370.327 101.934C370.43 102.837 370.61 103.507 371.539 103.636C371.978 103.688 372.649 103.765 372.933 103.765C373.113 103.765 373.191 103.843 373.191 103.946C373.191 104.101 373.036 104.204 372.7 104.204C370.997 104.204 369.062 104.101 368.882 104.101C368.701 104.101 366.792 104.204 365.863 104.204C365.527 104.204 365.373 104.152 365.373 103.946C365.373 103.843 365.424 103.765 365.631 103.765C365.915 103.765 366.276 103.714 366.56 103.636C367.179 103.507 367.334 102.837 367.463 101.934C367.617 100.643 367.617 98.1923 367.617 95.2251V89.781C367.617 84.9561 367.617 84.0788 367.566 83.0983C367.514 82.0405 367.205 81.5244 366.508 81.3696C366.173 81.2664 365.76 81.2406 365.553 81.2406C365.424 81.2406 365.295 81.189 365.295 81.06C365.295 80.8794 365.45 80.802 365.785 80.802C366.818 80.802 368.753 80.9052 368.908 80.9052C369.062 80.9052 371.023 80.802 371.952 80.802C372.288 80.802 372.442 80.8536 372.442 81.06C372.442 81.189 372.313 81.2406 372.184 81.2406C371.978 81.2406 371.771 81.2664 371.41 81.3438C370.585 81.4986 370.327 82.0147 370.275 83.0983C370.223 84.0788 370.223 84.9561 370.223 89.781V95.2251H370.172Z" fill="#232323"></path>
  <path d="M380.879 89.7809C380.879 84.956 380.879 84.0787 380.828 83.0983C380.776 82.0404 380.518 81.5502 379.512 81.3437C379.254 81.2921 378.738 81.2405 378.454 81.2405C378.325 81.2405 378.196 81.1889 378.196 81.0599C378.196 80.8793 378.351 80.8019 378.686 80.8019C380.08 80.8019 382.015 80.9051 382.195 80.9051C382.815 80.9051 389.084 80.9051 389.807 80.8793C390.4 80.8535 390.891 80.8535 391.174 80.7503C391.355 80.6987 391.484 80.5697 391.613 80.5697C391.742 80.5697 391.794 80.6987 391.794 80.8535C391.794 81.0599 391.639 81.447 391.536 82.2984C391.51 82.608 391.432 83.9755 391.381 84.3367C391.355 84.4915 391.278 84.6722 391.123 84.6722C390.968 84.6722 390.916 84.5173 390.916 84.3109C390.916 84.0529 390.813 83.5369 390.633 83.1241C390.452 82.7112 389.729 82.1694 388.517 82.1436L383.743 82.0404C383.563 82.0404 383.46 82.1436 383.46 82.3758V90.9162C383.46 91.0968 383.485 91.2 383.666 91.2H387.64C388.156 91.1742 388.594 91.1742 389.033 91.1484C389.781 91.0968 390.168 90.9936 390.452 90.6065C390.581 90.4517 390.658 90.2969 390.787 90.2969C390.916 90.2969 390.942 90.4001 390.942 90.5549C390.942 90.7355 390.787 91.2774 390.684 92.2836C390.633 92.9029 390.555 94.1414 390.555 94.3478C390.555 94.6316 390.555 94.9412 390.349 94.9412C390.194 94.9412 390.142 94.8122 390.142 94.6574C390.116 94.3478 390.091 93.9091 389.962 93.5479C389.807 93.1093 389.317 92.5674 388.362 92.4384C387.588 92.3352 384.208 92.3352 383.692 92.3352C383.537 92.3352 383.485 92.3868 383.485 92.6191V95.2508C383.485 98.218 383.485 100.669 383.64 101.959C383.743 102.862 383.924 103.533 384.853 103.662C385.292 103.714 385.962 103.791 386.246 103.791C386.427 103.791 386.504 103.869 386.504 103.972C386.504 104.127 386.349 104.23 386.014 104.23C384.311 104.23 382.376 104.127 382.221 104.127C382.066 104.127 380.105 104.23 379.177 104.23C378.841 104.23 378.686 104.178 378.686 103.972C378.686 103.869 378.738 103.791 378.944 103.791C379.228 103.791 379.589 103.74 379.873 103.662C380.492 103.533 380.647 102.862 380.776 101.959C380.931 100.669 380.931 98.218 380.931 95.2508V89.8067L380.879 89.7809Z" fill="#232323"></path>
  <path d="M405.494 95.2251C405.494 98.1922 405.494 100.643 405.649 101.933C405.752 102.837 405.933 103.507 406.862 103.636C407.3 103.688 407.971 103.765 408.255 103.765C408.436 103.765 408.513 103.843 408.513 103.946C408.513 104.101 408.358 104.204 408.023 104.204C406.32 104.204 404.385 104.101 404.204 104.101C404.024 104.101 402.114 104.204 401.185 104.204C400.85 104.204 400.695 104.152 400.695 103.946C400.695 103.843 400.747 103.765 400.953 103.765C401.237 103.765 401.598 103.714 401.882 103.636C402.501 103.507 402.656 102.837 402.785 101.933C402.94 100.643 402.94 98.1922 402.94 95.2251V82.1436L398.373 82.1952C396.464 82.221 395.715 82.4533 395.225 83.1757C394.89 83.6917 394.787 83.9239 394.709 84.1304C394.606 84.3884 394.529 84.44 394.4 84.44C394.296 84.44 394.245 84.3368 394.245 84.1562C394.245 83.8465 394.864 81.189 394.916 80.931C394.967 80.7503 395.096 80.3375 395.225 80.3375C395.432 80.3375 395.741 80.6471 396.593 80.6987C397.496 80.802 398.657 80.8536 399.044 80.8536H410.655C412.641 80.8536 413.467 80.5439 413.725 80.5439C413.88 80.5439 413.88 80.7245 413.88 80.9052C413.88 81.834 413.777 83.9756 413.777 84.311C413.777 84.5948 413.699 84.698 413.57 84.698C413.415 84.698 413.364 84.5948 413.312 84.182V83.8465C413.157 82.9177 412.435 82.221 409.468 82.1436L405.572 82.092V95.1735L405.494 95.2251Z" fill="#232323"></path>
  <path d="M419.969 89.7809C419.969 84.956 419.969 84.0787 419.917 83.0983C419.866 82.0404 419.608 81.5502 418.601 81.3437C418.343 81.2921 417.827 81.2405 417.544 81.2405C417.415 81.2405 417.286 81.1889 417.286 81.0599C417.286 80.8793 417.44 80.8019 417.776 80.8019C419.169 80.8019 421.104 80.9051 421.285 80.9051C421.491 80.9051 427.658 80.9051 428.38 80.8793C428.974 80.8535 429.464 80.7761 429.696 80.7245C429.851 80.6987 429.98 80.5697 430.135 80.5697C430.238 80.5697 430.264 80.6987 430.264 80.8535C430.264 81.0599 430.109 81.447 430.006 82.2984C429.98 82.608 429.903 83.9755 429.851 84.3367C429.825 84.4915 429.748 84.6722 429.645 84.6722C429.464 84.6722 429.387 84.5173 429.387 84.2593C429.387 84.0529 429.361 83.5111 429.206 83.1499C428.999 82.6596 428.69 82.2726 427.013 82.092C426.497 82.0404 423.117 81.9888 422.781 81.9888C422.652 81.9888 422.601 82.092 422.601 82.2984V90.8387C422.601 91.0452 422.627 91.1484 422.781 91.1484C423.194 91.1484 426.987 91.1484 427.709 91.0968C428.458 91.0452 428.87 90.9678 429.154 90.6581C429.361 90.4001 429.49 90.2453 429.619 90.2453C429.722 90.2453 429.774 90.2969 429.774 90.5033C429.774 90.7097 429.619 91.2258 429.515 92.232C429.464 92.8513 429.387 93.9865 429.387 94.2188C429.387 94.4768 429.387 94.8122 429.18 94.8122C429.025 94.8122 428.974 94.6832 428.974 94.5284C428.974 94.2188 428.974 93.9091 428.845 93.4963C428.716 93.0577 428.432 92.5417 427.245 92.4126C426.419 92.3094 423.349 92.2578 422.807 92.2578C422.652 92.2578 422.601 92.361 422.601 92.4642V95.1734C422.601 96.2313 422.575 99.8177 422.601 100.463C422.704 102.604 423.168 102.991 426.187 102.991C426.987 102.991 428.354 102.991 429.154 102.656C429.954 102.32 430.315 101.701 430.548 100.437C430.599 100.102 430.677 99.9725 430.831 99.9725C431.012 99.9725 431.012 100.231 431.012 100.437C431.012 100.695 430.754 102.785 430.599 103.43C430.393 104.23 430.135 104.23 428.922 104.23C424.252 104.23 422.188 104.049 421.285 104.049C421.13 104.049 419.169 104.152 418.24 104.152C417.905 104.152 417.75 104.101 417.75 103.894C417.75 103.791 417.802 103.714 418.008 103.714C418.292 103.714 418.653 103.662 418.937 103.585C419.556 103.456 419.711 102.785 419.84 101.882C419.995 100.592 419.995 98.1406 419.995 95.1734V89.7293L419.969 89.7809Z" fill="#232323"></path>
  <path d="M441.126 95.2767C441.126 99.8178 441.255 101.805 441.797 102.372C442.287 102.862 443.087 103.095 445.513 103.095C447.164 103.095 448.505 103.069 449.254 102.166C449.667 101.676 449.976 100.901 450.054 100.308C450.079 100.05 450.157 99.8952 450.337 99.8952C450.492 99.8952 450.518 100.024 450.518 100.36C450.518 100.695 450.312 102.553 450.054 103.456C449.847 104.178 449.744 104.281 448.093 104.281C443.629 104.281 441.591 104.101 439.81 104.101C439.527 104.101 437.72 104.204 436.792 104.204C436.456 104.204 436.301 104.152 436.301 103.946C436.301 103.843 436.353 103.765 436.559 103.765C436.843 103.765 437.204 103.688 437.488 103.636C438.107 103.507 438.262 102.837 438.391 101.934C438.546 100.643 438.546 98.1923 438.546 95.2251V89.781C438.546 84.9561 438.546 84.0788 438.494 83.0983C438.443 82.0405 438.185 81.5502 437.153 81.3438C436.895 81.2922 436.379 81.2406 436.095 81.2406C435.966 81.2406 435.837 81.189 435.837 81.06C435.837 80.8794 435.992 80.802 436.327 80.802C437.72 80.802 439.656 80.9052 439.81 80.9052C439.965 80.9052 442.236 80.802 443.165 80.802C443.5 80.802 443.655 80.8536 443.655 81.06C443.655 81.189 443.526 81.2406 443.397 81.2406C443.19 81.2406 442.752 81.2664 442.365 81.3438C441.462 81.4986 441.229 82.0147 441.152 83.0983C441.1 84.0788 441.1 84.9561 441.1 89.781V95.2767H441.126Z" fill="#232323"></path>
  <path d="M454.543 103.791C454.104 103.585 454.079 103.456 454.079 102.604C454.079 101.056 454.208 99.8177 454.233 99.3275C454.259 98.9921 454.337 98.8373 454.491 98.8373C454.672 98.8373 454.698 98.9405 454.698 99.1727C454.698 99.4565 454.698 99.8951 454.801 100.308C455.265 102.604 457.304 103.456 459.368 103.456C462.335 103.456 463.78 101.314 463.78 99.3275C463.78 97.186 462.877 95.9475 460.219 93.7544L458.826 92.6191C455.549 89.9357 454.801 88.0006 454.801 85.9107C454.801 82.6081 457.278 80.3375 461.2 80.3375C462.413 80.3375 463.316 80.4665 464.064 80.6471C464.657 80.7761 464.89 80.802 465.148 80.802C465.406 80.802 465.457 80.8536 465.457 81.0084C465.457 81.1632 465.328 82.1952 465.328 84.2852C465.328 84.7754 465.277 85.0076 465.122 85.0076C464.941 85.0076 464.915 84.8528 464.864 84.5948C464.838 84.2336 464.657 83.3821 464.451 83.0467C464.27 82.7113 463.419 81.3954 460.581 81.3954C458.439 81.3954 456.788 82.7113 456.788 84.9818C456.788 86.7363 457.665 87.7942 460.555 90.1679L461.406 90.8388C465.07 93.7286 465.922 95.6379 465.922 98.1148C465.922 99.3791 465.431 101.727 463.29 103.249C461.948 104.178 460.297 104.539 458.62 104.539C457.175 104.539 455.756 104.333 454.466 103.714" fill="#232323"></path>
  <path d="M473.868 89.7809C473.868 84.956 473.868 84.0787 473.817 83.0983C473.765 82.0404 473.507 81.5502 472.501 81.3437C472.243 81.2921 471.727 81.2405 471.443 81.2405C471.314 81.2405 471.185 81.1889 471.185 81.0599C471.185 80.8793 471.34 80.8019 471.675 80.8019C473.069 80.8019 475.004 80.9051 475.184 80.9051C475.391 80.9051 481.557 80.9051 482.28 80.8793C482.873 80.8535 483.363 80.7761 483.596 80.7245C483.751 80.6987 483.88 80.5697 484.034 80.5697C484.138 80.5697 484.163 80.6987 484.163 80.8535C484.163 81.0599 484.009 81.447 483.905 82.2984C483.879 82.608 483.802 83.9755 483.75 84.3367C483.725 84.4915 483.647 84.6722 483.544 84.6722C483.363 84.6722 483.286 84.5173 483.286 84.2593C483.286 84.0529 483.26 83.5111 483.105 83.1499C482.899 82.6596 482.589 82.2726 480.912 82.092C480.396 82.0404 477.016 81.9888 476.681 81.9888C476.552 81.9888 476.5 82.092 476.5 82.2984V90.8387C476.5 91.0452 476.526 91.1484 476.681 91.1484C477.094 91.1484 480.887 91.1484 481.609 91.0968C482.357 91.0452 482.77 90.9678 483.054 90.6581C483.26 90.4001 483.389 90.2453 483.518 90.2453C483.621 90.2453 483.673 90.2969 483.673 90.5033C483.673 90.7097 483.518 91.2258 483.415 92.232C483.363 92.8513 483.286 93.9865 483.286 94.2188C483.286 94.4768 483.286 94.8122 483.08 94.8122C482.925 94.8122 482.873 94.6832 482.873 94.5284C482.873 94.2188 482.873 93.9091 482.744 93.4963C482.615 93.0577 482.331 92.5417 481.145 92.4126C480.319 92.3094 477.248 92.2578 476.707 92.2578C476.552 92.2578 476.5 92.361 476.5 92.4642V95.1734C476.5 96.2313 476.474 99.8177 476.5 100.463C476.603 102.604 477.068 102.991 480.087 102.991C480.887 102.991 482.254 102.991 483.054 102.656C483.854 102.32 484.215 101.701 484.447 100.437C484.499 100.102 484.576 99.9725 484.731 99.9725C484.912 99.9725 484.912 100.231 484.912 100.437C484.912 100.695 484.654 102.785 484.499 103.43C484.292 104.23 484.034 104.23 482.822 104.23C478.152 104.23 476.087 104.049 475.184 104.049C475.03 104.049 473.069 104.152 472.14 104.152C471.804 104.152 471.65 104.101 471.65 103.894C471.65 103.791 471.701 103.714 471.908 103.714C472.191 103.714 472.553 103.662 472.836 103.585C473.456 103.456 473.61 102.785 473.739 101.882C473.894 100.592 473.894 98.1406 473.894 95.1734V89.7293L473.868 89.7809Z" fill="#232323"></path>
  <path fill-rule="evenodd" clip-rule="evenodd" d="M486 66H183V64H486V66Z" fill="#232323"></path>
  <path fill-rule="evenodd" clip-rule="evenodd" d="M158.712 17.9357H14.9357V108.23H158.712V17.9357ZM160.648 16V110.165H13V16H160.648Z" fill="#232323"></path>
  <path d="M41.4278 52.8785C41.4278 49.5514 41.4278 46.9931 41.4278 45.1898C41.4278 43.3865 41.4418 42.0444 41.4559 41.1358C41.4699 40.2411 41.5119 39.4583 41.554 38.8292C41.596 37.6968 41.8063 36.8441 42.1567 36.243C42.5072 35.6559 43.124 35.2784 43.9931 35.1246C44.3715 35.0547 44.6939 35.0128 44.9463 34.9848C45.1986 34.9569 45.4229 34.9289 45.6471 34.9289C45.7873 34.9289 45.8995 34.901 46.0116 34.8311C46.1237 34.7612 46.1798 34.6633 46.1798 34.5375C46.1798 34.3418 46.0957 34.216 45.9275 34.1321C45.7453 34.0482 45.4789 34.0203 45.1285 34.0203C44.4276 34.0203 43.6006 34.0342 42.6474 34.0762C41.6942 34.1041 40.8251 34.1321 40.0541 34.1601C39.2831 34.188 38.8205 34.202 38.6804 34.216C38.414 34.216 37.5029 34.174 35.9469 34.1181C34.405 34.0622 32.835 34.0342 31.251 34.0203C30.8866 34.0203 30.6202 34.0482 30.452 34.1321C30.2838 34.216 30.1997 34.3418 30.1997 34.5375C30.1997 34.6633 30.2558 34.7612 30.3679 34.8311C30.466 34.901 30.5922 34.9289 30.7324 34.9289C31.0548 34.9289 31.4333 34.9429 31.8678 34.9848C32.3164 35.0128 32.6808 35.0687 32.9612 35.1246C34.0265 35.3343 34.7554 35.7397 35.1479 36.3129C35.5404 36.9 35.7507 37.7388 35.7927 38.8292C35.8348 39.4722 35.8628 40.2411 35.8909 41.1358C35.9049 42.0444 35.9189 43.3865 35.9189 45.1898C35.9189 46.9931 35.9189 49.5514 35.9189 52.8785V71.6948C35.9189 77.2026 35.6946 81.4943 35.232 84.5558C34.7695 87.6313 34.0826 90.0078 33.1434 91.6853C32.2042 93.3628 31.0267 94.8866 29.611 96.2286C29.3026 96.5362 28.9521 96.8437 28.5316 97.1792C28.1251 97.5147 27.7046 97.8083 27.3121 98.032C27.0177 98.2277 26.7794 98.3814 26.6252 98.5212C26.471 98.661 26.3869 98.8148 26.3869 99.0105C26.3869 99.1363 26.443 99.2342 26.5411 99.3041C26.6392 99.374 26.7373 99.4019 26.8495 99.4019C27.0317 99.4019 27.1859 99.346 27.3121 99.2761C27.6485 99.1084 28.055 98.8567 28.5176 98.5632C28.9802 98.2556 29.4427 97.9621 29.8773 97.6545C32.5266 95.8372 34.6153 94.1317 36.1572 92.5241C37.6991 90.9164 38.8065 89.2948 39.4794 87.6872C40.1242 86.1914 40.5868 84.6257 40.8671 82.9901C41.1475 81.3685 41.3157 79.4114 41.3858 77.1188C41.4418 74.8261 41.4699 71.9464 41.4559 68.4795V52.8505" fill="#232323"></path>
  <path fill-rule="evenodd" clip-rule="evenodd" d="M55.922 61.0558C54.0297 61.0138 52.4737 60.3568 51.2401 59.0847C50.0066 57.8125 49.3758 56.135 49.3337 54.0521C49.3478 52.752 49.6281 51.6616 50.1748 50.7529C50.7215 49.8583 51.4224 49.1313 52.2915 48.5861C52.7961 49.2991 53.4549 50.1099 54.2539 51.0186C55.0529 51.9272 55.6978 52.6262 56.1744 53.1434C56.4827 53.465 56.9874 53.9682 57.6883 54.6392C58.3891 55.3102 59.1461 56.0232 59.9591 56.7501C60.7721 57.491 61.487 58.1201 62.1319 58.6373C61.5711 59.2384 60.7862 59.7836 59.7488 60.2729C58.7115 60.7622 57.4359 61.0278 55.908 61.0558M54.7586 62.7752C56.3846 62.7473 57.7583 62.4956 58.8938 62.0343C60.0292 61.573 60.9263 61.0558 61.5992 60.5106C62.272 59.9654 62.7346 59.546 62.9869 59.2664C64.1644 60.189 65.1176 60.874 65.8325 61.3214C66.5474 61.7547 67.1922 62.0343 67.781 62.1601C68.3697 62.286 69.0426 62.3419 69.8275 62.3279H73.0516C73.2058 62.3279 73.3319 62.2999 73.4441 62.258C73.5562 62.2161 73.6123 62.1601 73.6123 62.0903C73.6123 61.9924 73.5702 61.9365 73.4861 61.9085C73.4161 61.8806 73.2899 61.8666 73.1497 61.8666C72.5329 61.8666 71.8601 61.7128 71.1452 61.4612C70.4163 61.2095 69.7855 60.916 69.2388 60.5944C68.7762 60.3428 68.1875 59.9654 67.4305 59.4761C66.6876 58.9728 65.7764 58.2739 64.6971 57.3652C65.4681 56.4426 66.197 55.2683 66.8698 53.8564C67.5427 52.4445 67.9071 51.0465 67.9632 49.6905C67.9632 49.5228 67.9352 49.383 67.851 49.2711C67.7669 49.1593 67.6127 49.0754 67.3745 49.0335C66.4493 48.9496 65.6643 48.8797 65.0055 48.8517C64.3466 48.8238 63.828 48.8098 63.4215 48.8098C63.2813 48.8098 63.1692 48.8238 63.057 48.8657C62.9589 48.8937 62.9028 48.9496 62.8888 49.0335C62.8888 49.1174 62.9309 49.1733 63.015 49.2012C63.0851 49.2432 63.1832 49.2572 63.2813 49.2572C63.5336 49.2572 63.814 49.2851 64.1083 49.355C64.4027 49.4249 64.669 49.5647 64.8933 49.7744C65.1316 50.026 65.2998 50.2916 65.3839 50.5712C65.468 50.8508 65.5241 51.1164 65.5101 51.368C65.5101 52.3885 65.3279 53.3811 65.0195 54.3596C64.6971 55.3382 64.3046 56.135 63.828 56.7781C63.4355 56.4565 62.8327 55.9113 61.9917 55.1425C61.1506 54.3736 60.3236 53.5908 59.4825 52.7939C58.6415 51.9971 58.0107 51.382 57.6042 50.9487C55.894 49.1453 54.5904 47.6216 53.7213 46.3494C52.8522 45.0913 52.4036 43.8331 52.4036 42.6169C52.4597 41.0932 52.9082 40.0028 53.7633 39.3318C54.6044 38.6608 55.5576 38.3392 56.5949 38.3532C57.3238 38.3532 57.9546 38.507 58.5153 38.7866C59.062 39.0662 59.5246 39.4017 59.889 39.7791C60.2955 40.2125 60.5619 40.6738 60.702 41.1631C60.8422 41.6524 60.9123 42.1137 60.9123 42.547C60.9123 42.7847 60.9123 42.9524 60.9544 43.0363C60.9824 43.1342 61.0385 43.1761 61.1086 43.1621C61.1787 43.1621 61.2347 43.1342 61.2768 43.0643C61.3328 42.9944 61.3889 42.8406 61.431 42.603C61.459 42.4212 61.5011 42.0997 61.5291 41.6384C61.5571 41.1771 61.5852 40.6738 61.6132 40.1566C61.6412 39.6393 61.6552 39.206 61.6552 38.8565C61.6552 38.6608 61.6553 38.507 61.5852 38.3952C61.5291 38.2833 61.417 38.1575 61.2207 38.0457C60.7721 37.794 60.2114 37.5983 59.5246 37.4585C58.8377 37.3048 58.0808 37.2349 57.2397 37.2349C55.7678 37.2628 54.4922 37.5843 53.4409 38.2134C52.3896 38.8425 51.5766 39.6114 51.0159 40.52C50.4552 41.4287 50.1748 42.3234 50.1608 43.218C50.1608 43.945 50.2729 44.6579 50.5112 45.3709C50.7495 46.0978 51.1701 46.8667 51.7728 47.7054C50.4411 48.4463 49.2777 49.4668 48.2964 50.7529C47.3152 52.0391 46.7965 53.6327 46.7405 55.5339C46.7405 56.5125 46.9928 57.5609 47.5395 58.6653C48.0722 59.7697 48.9412 60.7063 50.1047 61.5031C51.2822 62.286 52.8241 62.7053 54.7305 62.7333" fill="#232323"></path>
  <path fill-rule="evenodd" clip-rule="evenodd" d="M80.0463 61.6707C79.9482 61.6707 79.8781 61.6287 79.822 61.5588C79.78 61.4889 79.78 61.3771 79.85 61.2093L85.6393 43.6372C85.9617 42.6587 86.2982 42.6587 86.6206 43.6372L92.8724 61.2093C92.9145 61.3352 92.9145 61.447 92.8864 61.5309C92.8584 61.6147 92.7603 61.6567 92.6061 61.6567H80.0323M70.8227 76.0415C70.262 77.705 69.5751 79.075 68.7481 80.1794C67.921 81.2698 66.7716 81.9408 65.2997 82.1645C65.0194 82.1924 64.697 82.2204 64.3185 82.2623C63.94 82.2903 63.6316 82.3043 63.3933 82.3043C63.2251 82.3043 63.0849 82.3322 62.9728 82.4021C62.8607 82.458 62.8046 82.5559 62.8046 82.6957C62.8046 82.8914 62.9027 83.0172 63.113 83.1011C63.3092 83.185 63.6316 83.2129 64.0522 83.2129C65.6782 83.2129 67.2061 83.185 68.664 83.129C70.1078 83.0731 71.061 83.0452 71.4955 83.0312C71.9301 83.0312 72.673 83.0731 73.7384 83.129C74.8037 83.185 75.7709 83.2129 76.626 83.2129C76.9204 83.2129 77.1587 83.185 77.3409 83.1011C77.5231 83.0312 77.6072 82.8914 77.6072 82.6957C77.6072 82.4301 77.397 82.3043 76.9484 82.3043H76.2896C75.7008 82.3043 75.1401 82.1505 74.6215 81.8429C74.1028 81.5354 73.8225 81.0601 73.7944 80.417C73.7944 79.8159 73.8785 79.1589 74.0327 78.404C74.1869 77.6491 74.4252 76.8663 74.7196 76.0415L78.6726 64.5225C78.7426 64.3547 78.8268 64.2289 78.9249 64.145C79.037 64.0472 79.1632 64.0052 79.3314 64.0052H93.4752C93.6294 64.0052 93.7696 64.0332 93.8396 64.1031C93.9378 64.159 94.0079 64.2708 94.0639 64.3966L100.19 80.417C100.372 80.9343 100.4 81.3397 100.288 81.6332C100.176 81.9268 100.007 82.1085 99.7971 82.1645C99.657 82.1924 99.5588 82.2483 99.4747 82.3182C99.3906 82.3881 99.3346 82.486 99.3346 82.6118C99.3346 82.7935 99.5168 82.9054 99.8532 82.9613C100.19 83.0172 100.68 83.0452 101.311 83.0731C103.666 83.129 105.839 83.171 107.815 83.185C109.792 83.1989 111.067 83.1989 111.642 83.1989C112.007 83.1989 112.329 83.171 112.567 83.0871C112.82 83.0172 112.946 82.8774 112.96 82.6817C112.96 82.5279 112.89 82.4161 112.777 82.3602C112.665 82.3182 112.497 82.2903 112.301 82.2903C111.964 82.2903 111.572 82.2623 111.109 82.2204C110.647 82.1645 110.17 82.0666 109.68 81.8989C108.979 81.787 108.166 81.2558 107.226 80.3052C106.287 79.3686 105.208 77.4814 104.03 74.6715C102.979 72.0853 101.676 68.7722 100.077 64.7182C98.4935 60.6641 96.8675 56.5123 95.2274 52.2765C93.5873 48.0407 92.1575 44.3502 90.938 41.2188C89.7325 38.0874 88.9755 36.1582 88.6952 35.4453C88.3027 34.4667 88.0223 33.8237 87.8261 33.5161C87.6298 33.2226 87.4336 33.0688 87.2514 33.0968C87.0691 33.0688 86.8729 33.2226 86.6766 33.5581C86.4804 33.8936 86.186 34.5925 85.8075 35.627L70.8788 76.0415H70.8227Z" fill="#232323"></path>
  <path d="M119.927 64.3263C119.927 67.4856 119.927 70.2815 119.885 72.7139C119.857 75.1464 119.758 77.0615 119.604 78.4595C119.492 79.4101 119.296 80.2209 119.043 80.85C118.777 81.493 118.329 81.8844 117.698 82.0242C117.389 82.0941 117.067 82.164 116.703 82.206C116.352 82.2619 116.016 82.2898 115.721 82.2898C115.525 82.2898 115.385 82.3318 115.301 82.4156C115.217 82.4855 115.189 82.5834 115.189 82.6813C115.189 82.877 115.273 83.0028 115.441 83.0867C115.609 83.1705 115.876 83.2125 116.24 83.1985C116.745 83.1985 117.347 83.1705 118.02 83.1286C118.707 83.0867 119.38 83.0727 120.053 83.0727C120.754 83.0447 121.356 83.0168 121.833 83.0168C122.324 83.0168 122.604 83.0028 122.674 83.0028C123.165 83.0028 123.824 83.0307 124.651 83.0587C125.478 83.0867 126.543 83.1426 127.819 83.1985C129.108 83.2404 130.65 83.2824 132.486 83.3243C134.323 83.3662 136.467 83.3942 138.935 83.3942C140.168 83.4222 141.023 83.3662 141.5 83.1845C141.962 83.0028 142.299 82.5135 142.481 81.7167C142.593 81.2134 142.719 80.5005 142.845 79.5918C142.972 78.6692 143.098 77.8024 143.182 76.9637C143.266 76.1389 143.322 75.6217 143.336 75.398C143.336 75.1603 143.336 74.9367 143.28 74.741C143.238 74.5452 143.126 74.4334 142.93 74.4194C142.775 74.4194 142.649 74.4893 142.551 74.6431C142.467 74.7969 142.397 75.0485 142.341 75.398C142.117 76.726 141.78 77.7465 141.332 78.4735C140.869 79.2144 140.224 79.7456 139.383 80.0811C138.472 80.4166 137.421 80.6403 136.229 80.7102C135.024 80.7801 133.972 80.822 133.061 80.794C129.935 80.85 127.875 80.5284 126.893 79.8015C125.912 79.0885 125.422 77.6347 125.422 75.4539C125.393 74.9227 125.393 73.9302 125.393 72.4483C125.393 70.9665 125.393 69.4428 125.393 67.8771C125.393 66.3114 125.393 65.1231 125.408 64.3123V58.5808C125.408 58.441 125.436 58.3431 125.506 58.2592C125.576 58.1754 125.702 58.1334 125.87 58.1194C126.305 58.1194 127.146 58.1334 128.407 58.1614C129.669 58.1893 130.958 58.2313 132.29 58.2732C133.622 58.3152 134.617 58.3711 135.276 58.441C136.524 58.5947 137.393 58.8883 137.855 59.3357C138.318 59.783 138.612 60.2443 138.696 60.7196C138.822 61.139 138.906 61.5164 138.935 61.8659C138.963 62.2154 138.977 62.5369 138.977 62.8585C138.977 63.0262 139.005 63.166 139.075 63.2778C139.145 63.3897 139.257 63.4456 139.425 63.4456C139.649 63.4456 139.776 63.2918 139.832 63.0262C139.874 62.7606 139.902 62.495 139.888 62.2154C139.888 61.9218 139.916 61.3347 139.972 60.454C140.028 59.5733 140.084 58.7625 140.154 58.0495C140.266 56.9871 140.378 56.1623 140.49 55.5752C140.603 54.9881 140.673 54.5966 140.673 54.4149C140.673 54.2192 140.645 54.0794 140.589 54.0095C140.519 53.9256 140.448 53.8977 140.35 53.8977C140.224 53.8977 140.084 53.9815 139.93 54.1213C139.776 54.2751 139.593 54.4708 139.369 54.7364C139.089 55.058 138.682 55.2676 138.206 55.3935C137.701 55.5193 137.07 55.6032 136.285 55.6451C135.696 55.687 134.631 55.715 133.089 55.7429C131.547 55.7569 130.047 55.7709 128.575 55.7849C127.118 55.7849 126.192 55.7849 125.828 55.7849C125.66 55.7849 125.562 55.729 125.506 55.6311C125.45 55.5333 125.422 55.3655 125.436 55.1418V37.1643C125.436 36.9407 125.464 36.7729 125.534 36.6611C125.604 36.5632 125.702 36.5073 125.828 36.5073C126.15 36.5073 126.949 36.5073 128.239 36.5352C129.529 36.5492 130.846 36.5632 132.178 36.6051C133.51 36.6331 134.407 36.675 134.855 36.717C136.58 36.9127 137.743 37.2063 138.36 37.5837C138.977 37.9611 139.355 38.4085 139.523 38.9257C139.691 39.3311 139.79 39.7645 139.846 40.2258C139.902 40.6732 139.916 41.0226 139.916 41.2743C139.916 41.5399 139.958 41.7356 140.028 41.8894C140.112 42.0431 140.238 42.113 140.448 42.113C140.575 42.113 140.673 42.0292 140.757 41.8754C140.827 41.7216 140.883 41.5678 140.911 41.3861C140.981 40.9108 141.037 40.1839 141.107 39.1913C141.163 38.2128 141.205 37.4998 141.247 37.0944C141.36 36.1997 141.472 35.5148 141.584 35.0534C141.696 34.5921 141.766 34.2426 141.78 34.0329C141.78 33.8652 141.752 33.7254 141.724 33.6136C141.682 33.5017 141.612 33.4458 141.514 33.4458C141.36 33.4458 141.205 33.5017 141.051 33.5856C140.911 33.6695 140.757 33.7254 140.589 33.7673C140.322 33.8372 139.944 33.8931 139.453 33.963C138.963 34.019 138.402 34.0749 137.771 34.1028C137.323 34.1028 136.355 34.1308 134.841 34.1448C133.341 34.1448 131.673 34.1588 129.837 34.1588C128.015 34.1588 126.417 34.1588 125.029 34.1588C123.655 34.1588 122.884 34.1588 122.688 34.1588L119.997 34.0329C119.254 34.005 118.483 33.977 117.642 33.977C116.815 33.977 116.03 33.977 115.245 33.977C114.88 33.977 114.614 34.019 114.446 34.0889C114.263 34.1727 114.179 34.2985 114.179 34.4943C114.179 34.6201 114.235 34.7179 114.348 34.7878C114.446 34.8577 114.572 34.8857 114.712 34.8857C115.034 34.8857 115.413 34.8997 115.861 34.9416C116.31 34.9696 116.675 35.0255 116.955 35.0814C118.02 35.2911 118.749 35.6965 119.142 36.2836C119.534 36.8708 119.758 37.7095 119.786 38.7999C119.828 39.443 119.857 40.2118 119.871 41.1205C119.899 42.0152 119.913 43.3712 119.913 45.1745C119.913 46.9779 119.913 49.5361 119.913 52.8772V64.3263" fill="#232323"></path>
</svg>
