<svg xmlns="http://www.w3.org/2000/svg" width="464" height="127" fill="#232323" xmlns:v="https://vecta.io/nano"><path fill-rule="evenodd" d="M158.712 17.936H14.936v90.294h143.776V17.936zM160.648 16v94.165H13V16h147.648z"/><path d="M41.428 52.878V45.19l.028-4.054.098-2.307c.042-1.132.252-1.985.603-2.586.35-.587.967-.965 1.836-1.118l.953-.14.701-.056a.65.65 0 0 0 .364-.098c.112-.07.168-.168.168-.294 0-.196-.084-.322-.252-.405-.182-.084-.449-.112-.799-.112l-2.481.056-2.593.084-1.374.056c-.266 0-1.178-.042-2.733-.098l-4.696-.098c-.364 0-.631.028-.799.112s-.252.21-.252.405c0 .126.056.224.168.294.098.07.224.098.364.098l1.135.056c.448.028.813.084 1.093.14 1.065.21 1.794.615 2.187 1.188.392.587.603 1.426.645 2.516l.098 2.307.028 4.054v7.689 18.816c0 5.508-.224 9.8-.687 12.861-.463 3.075-1.149 5.452-2.089 7.129s-2.117 3.201-3.532 4.543c-.308.308-.659.615-1.079.951-.407.336-.827.629-1.219.853-.294.196-.533.35-.687.489s-.238.294-.238.489c0 .126.056.224.154.294s.196.098.308.098c.182 0 .336-.056.463-.126.336-.168.743-.419 1.206-.713l1.36-.909c2.649-1.817 4.738-3.523 6.28-5.13s2.649-3.229 3.322-4.837a20.62 20.62 0 0 0 1.388-4.697c.28-1.622.449-3.579.519-5.871.056-2.293.084-5.172.07-8.639V52.851"/><g fill-rule="evenodd"><path d="M55.922 61.056c-1.892-.042-3.448-.699-4.682-1.971s-1.864-2.95-1.906-5.033c.014-1.3.294-2.391.841-3.299a6.53 6.53 0 0 1 2.117-2.167c.505.713 1.163 1.524 1.962 2.432l1.92 2.125 1.514 1.496 2.271 2.111 2.173 1.887c-.561.601-1.346 1.146-2.383 1.636s-2.313.755-3.841.783m-1.149 1.72c1.626-.028 3-.28 4.135-.741s2.032-.979 2.705-1.524l1.388-1.244 2.846 2.055c.715.433 1.36.713 1.948.839s1.262.182 2.047.168h3.224a1.09 1.09 0 0 0 .393-.07c.112-.042.168-.098.168-.168 0-.098-.042-.154-.126-.182-.07-.028-.196-.042-.336-.042-.617 0-1.29-.154-2.004-.405-.729-.252-1.36-.545-1.906-.867-.463-.252-1.051-.629-1.808-1.118-.743-.503-1.654-1.202-2.733-2.111.771-.923 1.5-2.097 2.173-3.509s1.037-2.81 1.093-4.166c0-.168-.028-.307-.112-.419s-.238-.196-.477-.238l-2.369-.182-1.584-.042c-.14 0-.252.014-.364.056-.098.028-.154.084-.168.168 0 .084.042.14.126.168.07.042.168.056.266.056a3.59 3.59 0 0 1 .827.098 1.72 1.72 0 0 1 .785.419c.238.252.407.517.491.797s.14.545.126.797c0 1.02-.182 2.013-.491 2.992-.322.979-.715 1.775-1.191 2.418l-1.836-1.636-2.509-2.349-1.878-1.845c-1.71-1.803-3.014-3.327-3.883-4.599-.869-1.258-1.318-2.516-1.318-3.733.056-1.524.505-2.614 1.36-3.285.841-.671 1.794-.992 2.832-.979.729 0 1.36.154 1.92.433.547.28 1.009.615 1.374.992.406.433.673.895.813 1.384s.21.951.21 1.384c0 .238 0 .405.042.489.028.098.084.14.154.126.07 0 .126-.028.168-.098.056-.07.112-.224.154-.461.028-.182.07-.503.098-.965l.084-1.482.042-1.3c0-.196 0-.349-.07-.461-.056-.112-.168-.238-.364-.35-.449-.252-1.009-.447-1.696-.587-.687-.154-1.444-.224-2.285-.224-1.472.028-2.748.349-3.799.979s-1.864 1.398-2.425 2.307-.841 1.803-.855 2.698a6.72 6.72 0 0 0 .35 2.153c.238.727.659 1.496 1.262 2.335-1.332.741-2.495 1.761-3.476 3.047s-1.5 2.88-1.556 4.781c0 .979.252 2.027.799 3.131.533 1.104 1.402 2.041 2.565 2.838 1.178.783 2.719 1.202 4.626 1.23"/><path d="M80.046 61.671c-.098 0-.168-.042-.224-.112-.042-.07-.042-.182.028-.349l5.789-17.572c.322-.979.659-.979.981 0l6.252 17.572c.042.126.042.238.014.322s-.126.126-.28.126H80.032m-9.21 14.385c-.561 1.663-1.248 3.034-2.075 4.138-.827 1.09-1.976 1.761-3.448 1.985l-.981.098-.925.042c-.168 0-.308.028-.421.098-.112.056-.168.154-.168.294 0 .196.098.322.308.405.196.084.519.112.939.112l4.612-.084 2.832-.098 2.243.098 2.888.084c.294 0 .533-.028.715-.112.182-.07.266-.21.266-.405 0-.266-.21-.392-.659-.392h-.659c-.589 0-1.149-.154-1.668-.461s-.799-.783-.827-1.426c0-.601.084-1.258.238-2.013s.392-1.538.687-2.362l3.953-11.519c.07-.168.154-.294.252-.377.112-.098.238-.14.407-.14h14.144c.154 0 .294.028.364.098.098.056.168.168.224.294l6.126 16.02c.182.517.21.923.098 1.216s-.281.475-.491.531c-.14.028-.238.084-.322.154a.37.37 0 0 0-.14.294c0 .182.182.293.519.349s.827.084 1.458.112l6.504.112 3.827.014c.364 0 .687-.028.925-.112.253-.07.379-.21.393-.405 0-.154-.07-.266-.183-.322-.112-.042-.28-.07-.476-.07-.337 0-.729-.028-1.192-.07-.462-.056-.939-.154-1.429-.322-.701-.112-1.514-.643-2.454-1.594-.939-.937-2.018-2.824-3.196-5.634l-3.953-9.953-4.85-12.442-4.289-11.058-2.243-5.773-.869-1.929c-.196-.294-.392-.447-.575-.419-.182-.028-.378.126-.575.461s-.491 1.035-.869 2.069L70.879 76.042h-.056z"/></g><path d="M119.927 64.326l-.042 8.388-.281 5.746c-.112.951-.308 1.761-.561 2.391-.266.643-.714 1.034-1.345 1.174l-.995.182c-.351.056-.687.084-.982.084-.196 0-.336.042-.42.126a.33.33 0 0 0-.112.266.41.41 0 0 0 .252.405c.168.083.434.126.799.112l1.78-.07 2.033-.056 1.78-.056.841-.014 1.977.056 3.168.14 4.667.126 6.449.07c1.233.028 2.088-.028 2.565-.21.462-.182.799-.671.981-1.468l.364-2.125.337-2.628.154-1.566c0-.238 0-.461-.056-.657-.042-.196-.154-.308-.35-.322-.155 0-.281.07-.379.224-.084.154-.154.405-.21.755-.224 1.328-.561 2.349-1.009 3.075a3.95 3.95 0 0 1-1.949 1.608c-.911.335-1.962.559-3.154.629l-3.168.084c-3.126.056-5.186-.266-6.168-.993-.981-.713-1.471-2.167-1.471-4.348l-.029-3.005v-4.571l.014-3.565v-5.732c0-.14.029-.238.099-.322s.196-.126.364-.14l2.537.042 3.883.112 2.986.168c1.247.154 2.117.447 2.579.895s.757.909.841 1.384a5.66 5.66 0 0 1 .239 1.146l.042.992c0 .168.028.308.098.419s.182.168.35.168c.224 0 .351-.154.407-.419.042-.266.07-.531.056-.811l.084-1.762.182-2.404.336-2.474.183-1.16c0-.196-.028-.335-.084-.405a.28.28 0 0 0-.239-.112c-.126 0-.266.084-.42.224l-.561.615c-.28.321-.687.531-1.163.657-.505.126-1.136.21-1.921.252l-3.196.098-4.514.042h-2.747c-.168 0-.266-.056-.322-.154s-.084-.266-.07-.489V37.164c0-.224.028-.392.098-.503.07-.098.168-.154.294-.154l2.411.028 3.939.07 2.677.112c1.725.196 2.888.489 3.505.867s.995.825 1.163 1.342c.168.405.267.839.323 1.3.056.447.07.797.07 1.048 0 .266.042.461.112.615.084.154.21.224.42.224.127 0 .225-.084.309-.238.07-.154.126-.308.154-.489.07-.475.126-1.202.196-2.195l.14-2.097.337-2.041.196-1.021a1.69 1.69 0 0 0-.056-.419c-.042-.112-.112-.168-.21-.168-.154 0-.309.056-.463.14-.14.084-.294.14-.462.182-.267.07-.645.126-1.136.196l-1.682.14-2.93.042-5.004.014h-4.808-2.341l-2.691-.126-2.355-.056h-2.397c-.365 0-.631.042-.799.112-.183.084-.267.21-.267.405 0 .126.056.224.169.294.098.07.224.098.364.098l1.149.056c.449.028.814.084 1.094.14 1.065.21 1.794.615 2.187 1.202s.616 1.426.644 2.516l.085 2.32.042 4.054v19.152m70.13-23.709c0 4.753 0 6.57-1.009 8.639-.701 1.468-2.173 2.838-4.878 4.473l-1.304.727c-.07.028-.14.056-.238.056s-.239-.056-.239-.182c0-.168.168-.266.477-.433.392-.196.869-.559 1.163-.825 2.173-1.929 3.21-3.481 3.21-11.044v-8.457l-.07-6.333c-.07-.992-.336-1.468-1.429-1.663-.267-.056-.842-.084-1.136-.084-.14 0-.266-.056-.266-.168 0-.182.168-.238.532-.238 1.5 0 3.603.084 3.771.084s2.271-.084 3.28-.084c.365 0 .533.056.533.238 0 .112-.14.168-.266.168-.239 0-.435.028-.841.084-.898.14-1.164.643-1.234 1.663-.07.937-.07 1.761-.07 6.333v7.032l.014.014zm15.84-14.802c.406-.965.532-1.146.729-1.146s.336.154.728 1.049l7.78 17.67c1.206 2.6 2.173 3.075 2.874 3.257a4.61 4.61 0 0 0 1.332.182c.196 0 .336.028.336.168 0 .182-.308.238-.673.238-.505 0-2.944 0-5.243-.056-.63-.028-.995-.028-.995-.21 0-.112.098-.168.239-.21.196-.056.406-.322.196-.797l-3.098-7.199c-.07-.112-.14-.182-.294-.182h-7.178c-.168 0-.266.098-.336.238l-2.004 5.186c-.295.727-.463 1.44-.463 1.957 0 .587.701.853 1.276.853h.336c.238 0 .336.056.336.168 0 .182-.196.238-.504.238-.799 0-2.243-.084-2.608-.084s-2.2.084-3.77.084c-.435 0-.631-.056-.631-.238 0-.112.14-.168.294-.168a11.9 11.9 0 0 0 .968-.056c1.541-.182 2.2-1.286 2.803-2.754l7.584-18.187h-.014zm3.476 11.715c.168 0 .168-.084.126-.21l-3.168-7.912c-.168-.447-.336-.447-.504 0l-2.944 7.912c-.07.14 0 .21.098.21h6.378.014zm15.994 5.717c.07 2.404.393 3.159 1.304 3.397.631.154 1.374.182 1.668.182.168 0 .266.056.266.168 0 .182-.196.238-.602.238-1.907 0-3.238-.084-3.533-.084l-3.21.084c-.336 0-.533-.028-.533-.238 0-.112.099-.168.267-.168.266 0 .869-.028 1.36-.182.841-.21 1.009-1.062 1.009-3.719l.028-16.789c0-1.146.098-1.468.364-1.468s.841.643 1.164.937c.504.503 5.481 5.214 10.625 10.051l8.018 7.647-.364-14.888c-.028-1.901-.267-2.544-1.304-2.782a11.04 11.04 0 0 0-1.64-.154c-.238 0-.266-.084-.266-.21 0-.182.266-.21.673-.21 1.499 0 3.111.098 3.476.098s1.472-.098 2.846-.098c.364 0 .602.028.602.21 0 .112-.14.21-.364.21-.168 0-.407 0-.799.084-1.108.21-1.234.853-1.234 2.614l-.07 17.167c0 1.929-.07 2.083-.294 2.083-.267 0-.673-.321-2.439-1.873-.365-.294-5.173-4.599-8.719-7.94l-8.719-8.416.434 14.035-.014.014zm30.727-9.662l-.07-6.333c-.07-.992-.337-1.468-1.43-1.677-.266-.056-.841-.084-1.135-.084-.141 0-.267-.056-.267-.168 0-.182.169-.238.533-.238l3.771.084 7.653-.028c.631-.028 1.164-.084 1.43-.154.168-.028.309-.14.463-.14.098 0 .14.112.14.266 0 .21-.168.559-.266 1.37l-.169 1.929c-.028.154-.098.322-.238.322-.196 0-.266-.14-.266-.377 0-.21-.028-.699-.197-1.049-.238-.475-.574-.825-2.368-.992-.561-.056-4.206-.084-4.584-.084-.14 0-.196.084-.196.294v8.08c0 .21.028.294.196.294l5.312-.056c.799-.056 1.276-.112 1.57-.405.239-.238.365-.377.505-.377.098 0 .168.056.168.238s-.168.671-.266 1.636l-.14 1.873c0 .238 0 .559-.239.559-.168 0-.238-.112-.238-.266 0-.294 0-.587-.14-.965-.14-.405-.435-.909-1.738-1.02-.897-.084-4.206-.14-4.78-.14-.168 0-.239.084-.239.196v2.572 5.005c.099 2.027.603 2.404 3.869 2.404.869 0 2.341 0 3.21-.322s1.262-.909 1.5-2.111c.07-.322.126-.433.295-.433.196 0 .196.238.196.433 0 .238-.266 2.223-.435 2.852-.238.755-.504.755-1.808.755-5.046 0-7.275-.182-8.242-.182l-3.28.084c-.365 0-.533-.056-.533-.238 0-.084.07-.168.266-.168a4.84 4.84 0 0 0 .995-.126c.673-.112.842-.755.968-1.608.168-1.23.168-3.537.168-6.361v-5.158l.056.014zm34.035 7.032c0 4.753 0 6.57-1.01 8.639-.7 1.468-2.172 2.838-4.878 4.473l-1.303.727a.6.6 0 0 1-.239.056c-.098 0-.238-.056-.238-.182 0-.168.168-.266.463-.433.406-.196.869-.559 1.163-.825 2.173-1.929 3.21-3.481 3.21-11.044v-8.457l-.07-6.333c-.07-.992-.336-1.468-1.43-1.663-.266-.056-.841-.084-1.135-.084-.14 0-.267-.056-.267-.168 0-.182.169-.238.533-.238 1.5 0 3.603.084 3.771.084s2.271-.084 3.28-.084c.364 0 .533.056.533.238 0 .112-.141.168-.267.168-.238 0-.434.028-.841.084-.911.14-1.177.643-1.233 1.663-.07.937-.07 1.761-.07 6.333v7.032l.028.014zm15.826-14.802c.406-.965.532-1.146.729-1.146s.336.154.728 1.049l7.78 17.67c1.206 2.6 2.173 3.075 2.874 3.257.49.154.995.182 1.332.182.196 0 .336.028.336.168 0 .182-.308.238-.673.238-.505 0-2.944 0-5.243-.056-.63-.028-.995-.028-.995-.21 0-.112.098-.168.239-.21.196-.056.406-.322.196-.797l-3.098-7.199c-.07-.112-.14-.182-.294-.182h-7.178c-.168 0-.266.098-.336.238l-2.004 5.186c-.295.727-.463 1.44-.463 1.957 0 .587.701.853 1.262.853h.336c.238 0 .336.056.336.168 0 .182-.196.238-.504.238-.799 0-2.243-.084-2.608-.084s-2.2.084-3.77.084c-.435 0-.631-.056-.631-.238 0-.112.14-.168.294-.168a11.9 11.9 0 0 0 .968-.056c1.541-.182 2.2-1.286 2.803-2.754l7.584-18.187zm3.476 11.715c.168 0 .168-.084.126-.21l-3.168-7.912c-.168-.447-.336-.447-.505 0l-2.943 7.912c-.07.14 0 .21.098.21h6.378.014zm30.769-11.715c.406-.965.532-1.146.729-1.146s.336.154.728 1.049l7.78 17.67c1.206 2.6 2.173 3.075 2.874 3.257.504.154 1.009.182 1.346.182.196 0 .336.028.336.168 0 .182-.308.238-.673.238-.505 0-2.944 0-5.242-.056-.631-.028-1.01-.028-1.01-.21 0-.112.098-.168.239-.21.196-.056.406-.322.196-.797l-3.098-7.199c-.07-.112-.14-.182-.308-.182h-7.178c-.168 0-.266.098-.336.238l-2.004 5.186c-.295.727-.463 1.44-.463 1.957 0 .587.701.853 1.262.853h.336c.238 0 .336.056.336.168 0 .182-.196.238-.504.238-.799 0-2.243-.084-2.608-.084s-2.2.084-3.77.084c-.435 0-.631-.056-.631-.238 0-.112.14-.168.308-.168a11.9 11.9 0 0 0 .968-.056c1.527-.182 2.2-1.286 2.803-2.754l7.584-18.187zm3.476 11.715c.168 0 .168-.084.126-.21l-3.168-7.912c-.168-.447-.336-.447-.504 0l-2.944 7.912c-.07.14 0 .21.098.21h6.378.014z"/><path d="M363.567 25.815c.407-.965.533-1.146.729-1.146s.336.154.729 1.049l7.78 17.67c1.205 2.6 2.172 3.075 2.873 3.257.505.154.996.182 1.332.182.196 0 .336.028.336.168 0 .182-.308.238-.672.238-.505 0-2.944 0-5.243-.056-.631-.028-1.009-.028-1.009-.21 0-.112.098-.168.238-.21.196-.056.392-.322.196-.797l-3.112-7.199c-.07-.112-.14-.182-.294-.182h-7.177c-.168 0-.266.098-.337.238l-2.004 5.186c-.294.727-.463 1.44-.463 1.957 0 .587.701.853 1.262.853h.336c.239 0 .337.056.337.168 0 .182-.196.238-.505.238-.799 0-2.243-.084-2.607-.084l-3.771.084c-.434 0-.631-.056-.631-.238 0-.112.141-.168.295-.168.238 0 .701-.028.967-.056 1.528-.182 2.215-1.286 2.803-2.754l7.584-18.187h.028zm3.476 11.715c.169 0 .169-.084.141-.21l-3.168-7.912c-.169-.447-.337-.447-.505 0l-2.93 7.912c-.07.14 0 .21.098.21h6.378-.014zm19.864 1.216l.168 6.361c.098.853.294 1.496 1.303 1.622l1.5.112c.197 0 .267.084.267.168 0 .154-.169.238-.533.238-1.836 0-3.939-.084-4.107-.084l-3.28.084c-.365 0-.533-.056-.533-.238 0-.084.07-.168.266-.168.295 0 .701-.056.996-.112.658-.126.841-.769.967-1.622.168-1.23.168-3.537.168-6.361v-12.4l-4.934.056c-2.075.028-2.874.238-3.406.937-.365.503-.463.699-.575.909-.098.238-.196.294-.337.294-.098 0-.168-.084-.168-.266 0-.293.673-2.81.743-3.047.07-.168.196-.559.337-.559.238 0 .574.294 1.471.35l2.636.154h12.518c2.13 0 3.041-.294 3.308-.294.168 0 .168.182.168.349l-.098 3.229c0 .266-.098.377-.239.377-.168 0-.238-.084-.266-.503l-.042-.322c-.14-.881-.897-1.552-4.107-1.608l-4.205-.056v12.386l.014.014zm24.348-14.064c7.514 0 13.121 4.152 13.121 10.988s-5.285 11.98-13.317 11.98c-9.154 0-12.966-6.235-12.966-11.519 0-4.753 3.939-11.449 13.162-11.449zm.701 21.85c3 0 9.21-1.524 9.21-10.051 0-7.032-4.878-10.806-10.149-10.806-5.579 0-9.756 3.215-9.756 9.646 0 6.822 4.682 11.225 10.695 11.225m18.377.307c-.462-.21-.504-.322-.504-1.118 0-1.468.14-2.642.168-3.103.028-.322.098-.461.266-.461.21 0 .238.084.238.322 0 .266 0 .671.099 1.09.504 2.167 2.705 2.992 4.948 2.992 3.196 0 4.766-2.027 4.766-3.9 0-2.027-.967-3.201-3.841-5.27l-1.5-1.09c-3.546-2.544-4.345-4.362-4.345-6.361 0-3.131 2.677-5.27 6.91-5.27 1.304 0 2.271.112 3.098.294l1.178.154c.28 0 .336.056.336.21s-.14 1.118-.14 3.103c0 .475-.07.671-.238.671-.197 0-.239-.14-.267-.377-.042-.35-.238-1.146-.434-1.468s-1.108-1.552-4.178-1.552c-2.312 0-4.107 1.258-4.107 3.397 0 1.678.939 2.67 4.065 4.921l.94.643c3.939 2.726 4.878 4.543 4.878 6.892 0 1.202-.533 3.425-2.846 4.865-1.43.881-3.238 1.23-5.046 1.23-1.57 0-3.112-.21-4.472-.797m-248 41.013l-.07-6.333c-.07-.993-.336-1.468-1.43-1.663-.266-.056-.841-.084-1.135-.084-.14 0-.267-.056-.267-.168 0-.182.169-.238.533-.238l3.771.084 7.654-.028c.63-.028 1.163-.084 1.429-.154.169-.028.309-.154.463-.154.098 0 .14.112.14.266 0 .21-.168.559-.266 1.37l-.168 1.943c-.028.14-.099.322-.239.322-.196 0-.266-.154-.266-.377 0-.21-.028-.699-.196-1.048-.239-.475-.575-.825-2.369-.993-.561-.056-4.206-.084-4.584-.084-.14 0-.196.084-.196.294v8.08c0 .21.028.294.196.294l5.313-.056c.799-.056 1.275-.126 1.57-.405.238-.238.364-.377.504-.377.098 0 .168.056.168.238s-.168.671-.266 1.636l-.14 1.873c0 .238 0 .559-.238.559-.169 0-.239-.112-.239-.266 0-.293 0-.587-.14-.965-.14-.419-.434-.909-1.738-1.02-.897-.084-4.205-.14-4.766-.14-.168 0-.238.084-.238.196v2.572 5.005c.098 2.027.602 2.405 3.869 2.405.869 0 2.34 0 3.21-.322s1.261-.908 1.499-2.111c.071-.322.141-.433.295-.433.196 0 .196.238.196.433a25.4 25.4 0 0 1-.435 2.852c-.238.755-.504.755-1.808.755-5.046 0-7.275-.182-8.242-.182l-3.28.084c-.365 0-.533-.056-.533-.237 0-.084.07-.168.266-.168.295 0 .701-.056.996-.112.672-.126.841-.769.967-1.608.168-1.23.168-3.537.168-6.361v-5.158l.042-.014z"/><path d="M202.378 87.881l-.07-6.333c-.07-.992-.336-1.468-1.43-1.663-.266-.056-.841-.084-1.135-.084-.14 0-.266-.056-.266-.168 0-.182.168-.238.532-.238l3.771.084 3.939-.084c2.103 0 4.345.182 6.112 1.286.841.531 2.299 1.957 2.299 3.984 0 2.167-1.038 4.334-4.038 6.766 2.748 3.075 5.005 5.69 6.953 7.507 1.808 1.677 3.238 1.999 4.079 2.11.631.084 1.108.084 1.304.084.168 0 .294.084.294.168 0 .182-.196.238-.799.238h-2.369c-1.864 0-2.705-.14-3.574-.559-1.43-.671-2.607-2.111-4.5-4.306-1.402-1.608-2.972-3.579-3.644-4.334-.127-.112-.239-.182-.435-.182l-4.107-.056c-.168 0-.238.084-.238.238v.699c0 2.81 0 5.13.168 6.361.098.853.294 1.496 1.303 1.608.463.055 1.206.111 1.5.111.197 0 .267.084.267.168 0 .14-.169.238-.533.238-1.836 0-3.939-.084-4.107-.084-.028 0-2.145.084-3.14.084-.365 0-.533-.056-.533-.238 0-.084.07-.168.267-.168.294 0 .7-.056 1.009-.111.673-.126.827-.769.967-1.608.168-1.23.168-3.537.168-6.361V87.88h-.014zm2.664 2.544c0 .154.07.266.238.35.505.266 2.032.475 3.504.475.799 0 1.738-.084 2.509-.559 1.164-.699 2.033-2.293 2.033-4.515 0-3.663-2.201-5.857-5.775-5.857-1.01 0-1.907.084-2.243.182-.168.056-.266.168-.266.349v9.576zm22.218-2.541l-.07-6.333c-.07-.993-.337-1.468-1.43-1.663-.266-.056-.841-.084-1.136-.084-.14 0-.266-.056-.266-.168 0-.182.168-.238.533-.238l3.672.084 3.238-.084c.365 0 .533.056.533.238 0 .112-.14.168-.266.168-.239 0-.435.028-.841.084-.897.14-1.164.643-1.234 1.663-.07.937-.07 1.761-.07 6.333v1.761h.14c.561-.559 6.617-5.941 7.808-7.088.939-.853 1.808-1.608 1.808-2.111 0-.349-.168-.531-.434-.615-.168-.056-.295-.112-.295-.238 0-.154.169-.21.407-.21.673 0 1.71.084 2.509.084.168 0 2.369-.084 3.21-.084.365 0 .505.056.505.21s-.07.21-.337.21c-.504 0-1.205.14-1.864.405-1.374.531-2.103 1.258-3.603 2.516-.841.699-6.644 5.676-7.345 6.417.869.853 7.808 7.143 9.182 8.262 2.803 2.279 3.378 2.754 4.976 3.341.869.321 1.836.377 2.075.377s.434.056.434.168c0 .14-.168.238-.729.238h-1.71c-.939 0-1.57 0-2.299-.056-1.766-.14-2.607-.797-4.037-1.79-1.5-1.076-8.579-7.787-10.191-9.52h-.168v2.866c0 2.81 0 5.13.168 6.361.098.853.295 1.496 1.304 1.607.463.056.995.112 1.304.112.196 0 .266.084.266.168 0 .14-.168.238-.533.238-1.64 0-3.574-.084-3.841-.084s-2.2.084-3.21.084c-.364 0-.532-.056-.532-.238 0-.084.07-.168.266-.168.294 0 .701-.056.995-.112.673-.125.841-.768.968-1.607.168-1.23.168-3.537.168-6.361V87.87l-.028.014zm34.231-8.906c7.513 0 13.12 4.152 13.12 10.988s-5.271 11.98-13.331 11.98c-9.153 0-12.952-6.235-12.952-11.519 0-4.753 3.939-11.449 13.163-11.449zm.7 21.85c3 0 9.224-1.524 9.224-10.051 0-7.032-4.878-10.806-10.149-10.806-5.579 0-9.756 3.215-9.756 9.646 0 6.822 4.682 11.226 10.681 11.226m20.943-3.302c.07 2.404.393 3.159 1.304 3.397.63.14 1.373.181 1.668.181.168 0 .266.056.266.168 0 .182-.196.238-.603.238-1.906 0-3.238-.084-3.532-.084l-3.21.084c-.337 0-.533-.028-.533-.238 0-.112.098-.168.267-.168.266 0 .869-.028 1.359-.181.841-.21 1.009-1.063 1.009-3.719l.029-16.789c0-1.146.098-1.468.364-1.468s.841.643 1.163.937c.505.503 5.481 5.214 10.626 10.051l8.018 7.647-.365-14.888c-.028-1.901-.266-2.544-1.303-2.782-.603-.112-1.374-.14-1.64-.14-.239 0-.267-.084-.267-.21 0-.182.267-.21.673-.21 1.5 0 3.112.098 3.477.098s1.471-.098 2.845-.098c.365 0 .603.028.603.21 0 .112-.14.21-.364.21-.169 0-.407 0-.799.084-1.108.21-1.234.853-1.234 2.614l-.07 17.167c0 1.929-.07 2.083-.295 2.083-.266 0-.672-.322-2.439-1.874-.364-.294-5.172-4.599-8.719-7.94l-8.719-8.416.435 14.035h-.014zm38.843 3.608c-.463-.195-.505-.321-.505-1.118 0-1.468.14-2.642.168-3.103.028-.322.098-.461.267-.461.21 0 .238.084.238.322 0 .266 0 .671.098 1.09.505 2.167 2.706 2.992 4.948 2.992 3.21 0 4.78-2.027 4.78-3.901 0-2.027-.967-3.201-3.84-5.27l-1.5-1.09c-3.547-2.544-4.346-4.362-4.346-6.361 0-3.131 2.678-5.27 6.911-5.27 1.304 0 2.271.112 3.098.294l1.177.154c.281 0 .337.056.337.21s-.141 1.118-.141 3.103c0 .461-.07.671-.238.671-.196 0-.238-.14-.266-.377-.042-.35-.238-1.146-.435-1.468s-1.107-1.552-4.177-1.552c-2.313 0-4.107 1.258-4.107 3.397 0 1.663.939 2.67 4.065 4.921l.939.643c3.939 2.726 4.878 4.543 4.878 6.892 0 1.202-.532 3.425-2.845 4.865-1.43.881-3.238 1.23-5.033 1.23-1.57 0-3.112-.196-4.471-.797m25.694-21.041c.407-.965.533-1.146.729-1.146s.336.154.729 1.049l7.78 17.67c1.205 2.614 2.172 3.075 2.873 3.257.505.14.996.182 1.332.182.196 0 .336.028.336.167 0 .182-.308.238-.672.238-.505 0-2.944 0-5.243-.056-.631-.028-.995-.028-.995-.21 0-.111.098-.167.238-.209.196-.056.407-.322.196-.797l-3.112-7.199c-.07-.126-.14-.182-.308-.182h-7.177c-.168 0-.266.098-.336.238l-2.005 5.186c-.294.727-.463 1.44-.463 1.957 0 .587.701.853 1.262.853h.336c.239 0 .337.056.337.167 0 .182-.196.238-.505.238-.799 0-2.243-.084-2.607-.084s-2.201.084-3.771.084c-.434 0-.631-.056-.631-.238 0-.111.141-.167.309-.167.238 0 .701-.028.967-.056 1.528-.182 2.201-1.286 2.804-2.754l7.583-18.187h.014zm-3.841-4.25c0-.531.407-1.258 1.444-1.258.799 0 1.444.433 1.444 1.174s-.561 1.356-1.472 1.356c-1.009 0-1.402-.699-1.402-1.258m7.317 15.965c.169 0 .169-.084.141-.21l-3.182-7.912c-.169-.447-.337-.447-.505 0l-2.944 7.912c-.07.14 0 .21.098.21h6.378.014zm-.602-15.965c0-.531.406-1.258 1.43-1.258.799 0 1.443.433 1.443 1.174s-.574 1.356-1.472 1.356c-1.009 0-1.401-.699-1.401-1.258"/><path d="M370.716 80.124c.407-.965.533-1.146.729-1.146s.337.154.729 1.049l7.78 17.67c1.206 2.614 2.173 3.075 2.874 3.257a5.23 5.23 0 0 0 1.331.182c.197 0 .337.028.337.167 0 .182-.295.238-.659.238-.505 0-2.944 0-5.243-.056-.631-.028-1.009-.028-1.009-.21 0-.111.098-.167.238-.209.211-.056.407-.322.211-.797l-3.112-7.199c-.056-.126-.126-.182-.295-.182h-7.177c-.168 0-.266.098-.336.238l-2.005 5.186c-.294.727-.462 1.44-.462 1.957 0 .587.701.853 1.261.853h.337c.238 0 .336.056.336.167 0 .182-.21.238-.504.238-.799 0-2.243-.084-2.608-.084l-3.77.084c-.435 0-.631-.056-.631-.238 0-.111.126-.167.294-.167.238 0 .701-.028.967-.056 1.542-.182 2.215-1.286 2.804-2.754l7.583-18.187zm-3.84-4.25c0-.531.406-1.258 1.429-1.258.799 0 1.444.433 1.444 1.174s-.575 1.356-1.472 1.356c-1.009 0-1.401-.699-1.401-1.258m7.317 15.965c.168 0 .168-.084.14-.21l-3.168-7.912c-.168-.447-.336-.447-.505 0l-2.929 7.912c-.07.14 0 .21.098.21h6.378-.014zm-.603-15.965c0-.531.407-1.258 1.43-1.258.799 0 1.43.433 1.43 1.174s-.561 1.356-1.472 1.356c-.996 0-1.402-.699-1.402-1.258m22.484 17.137l.168 6.361c.098.853.295 1.496 1.304 1.622l1.5.111c.196 0 .266.084.266.168 0 .154-.168.238-.533.238-1.836 0-3.938-.084-4.107-.084l-3.266.084c-.364 0-.532-.056-.532-.238 0-.084.07-.168.266-.168.308 0 .701-.055 1.009-.111.673-.126.841-.769.967-1.622.169-1.23.169-3.537.169-6.361v-12.4l-4.949.056c-2.06.028-2.873.238-3.406.937-.364.503-.463.713-.561.909-.098.238-.196.294-.336.294-.098 0-.168-.084-.168-.266 0-.294.673-2.81.729-3.047.07-.168.21-.559.336-.559.238 0 .575.294 1.472.349l2.635.154h12.532c2.145 0 3.042-.294 3.308-.294.168 0 .168.182.168.349l-.098 3.229c0 .266-.098.377-.224.377-.168 0-.238-.084-.266-.503l-.028-.322c-.141-.881-.912-1.552-4.108-1.608l-4.205-.056v12.4h-.042zm18.447 0l.169 6.361c.098.853.294 1.496 1.303 1.622l1.5.111c.196 0 .266.084.266.168 0 .154-.168.238-.532.238-1.837 0-3.939-.084-4.107-.084l-3.267.084c-.364 0-.532-.056-.532-.238 0-.084.07-.168.266-.168.294 0 .701-.056.995-.111.659-.126.827-.769.968-1.622.168-1.23.168-3.537.168-6.361v-5.158l-.07-6.333c-.07-.992-.407-1.496-1.136-1.636a5.16 5.16 0 0 0-1.037-.112c-.126 0-.266-.056-.266-.168 0-.182.168-.238.532-.238l3.365.098 3.28-.098c.364 0 .532.056.532.238 0 .112-.14.168-.266.168-.238 0-.435.028-.827.084-.897.14-1.164.643-1.234 1.663-.07.937-.07 1.761-.07 6.333v5.158zm20.943-14.062c7.513 0 13.12 4.152 13.12 10.988s-5.27 11.98-13.317 11.98c-9.153 0-12.952-6.234-12.952-11.519 0-4.739 3.939-11.449 13.163-11.449m.701 21.85c3.013 0 9.223-1.524 9.223-10.051 0-7.032-4.878-10.806-10.149-10.806-5.579 0-9.756 3.215-9.756 9.632 0 6.822 4.668 11.225 10.682 11.225zm-5.509-24.953c0-.531.406-1.258 1.443-1.258.799 0 1.43.433 1.43 1.174s-.575 1.356-1.472 1.356c-1.009 0-1.401-.699-1.401-1.258m6.714 0c0-.531.407-1.258 1.43-1.258.799 0 1.444.433 1.444 1.174s-.561 1.356-1.472 1.356c-1.009 0-1.402-.699-1.402-1.258"/><path fill-rule="evenodd" d="M450 63.688H179.88v-1.936H450v1.936z"/></svg>