<svg xmlns="http://www.w3.org/2000/svg" width="510" height="127" fill="#232323" xmlns:v="https://vecta.io/nano"><path d="M189.122 41.506c0 5.005 0 6.941-.929 9.134-.645 1.548-2.013 2.993-4.515 4.748-.387.284-.903.619-1.213.774-.052.026-.129.052-.206.052s-.207-.052-.207-.181c0-.181.155-.284.439-.464.361-.206.8-.593 1.083-.877 2.013-2.038 2.968-3.69 2.968-11.662v-8.927l-.052-6.683c-.052-1.058-.31-1.548-1.342-1.754a7 7 0 0 0-1.057-.103c-.129 0-.258-.052-.258-.181 0-.181.154-.258.49-.258 1.393 0 3.328.103 3.483.103s2.116-.103 3.045-.103c.335 0 .49.052.49.258 0 .129-.129.181-.258.181a3.55 3.55 0 0 0-.774.103c-.826.155-1.084.671-1.136 1.754-.051.981-.051 1.858-.051 6.683v7.431-.026zm15.79-15.636c.362-1.032.491-1.213.671-1.213s.31.155.671 1.11l7.199 18.655c1.109 2.761 2.012 3.251 2.657 3.432.465.155.929.181 1.239.181.18 0 .309.026.309.181 0 .181-.283.258-.619.258-.464 0-2.735 0-4.851-.052-.593-.026-.928-.026-.928-.206 0-.129.103-.181.206-.206.181-.052.361-.335.181-.826l-2.89-7.611s-.129-.181-.284-.181h-6.657c-.155 0-.258.103-.309.258l-1.858 5.47c-.284.774-.439 1.522-.439 2.064 0 .619.645.903 1.187.903h.31c.206 0 .309.052.309.181 0 .181-.18.258-.464.258-.748 0-2.064-.103-2.425-.103s-2.039.103-3.484.103c-.412 0-.593-.052-.593-.258 0-.129.129-.181.284-.181.206 0 .645-.026.903-.052 1.419-.181 2.038-1.367 2.606-2.916l7.018-19.222.051-.026zm3.226 12.385c.154 0 .154-.103.129-.206l-2.942-8.36c-.155-.464-.309-.464-.464 0l-2.735 8.36c-.052.155 0 .206.103.206h5.909zm15.971 6.038c.051 2.529.361 3.354 1.212 3.586a6.73 6.73 0 0 0 1.549.181c.154 0 .258.052.258.181 0 .181-.181.258-.568.258-1.755 0-2.993-.103-3.277-.103l-2.967.103c-.31 0-.49-.026-.49-.258 0-.129.103-.181.258-.181.258 0 .8-.026 1.264-.181.774-.206.929-1.109.929-3.922V26.206c.026-1.213.129-1.548.361-1.548s.774.671 1.084.981c.464.542 5.083 5.496 9.83 10.604l7.431 8.076-.335-15.713c-.026-2.012-.258-2.683-1.213-2.941a7.86 7.86 0 0 0-1.522-.155c-.207 0-.258-.103-.258-.206 0-.181.258-.206.619-.206 1.393 0 2.89.103 3.225.103s1.368-.103 2.632-.103c.335 0 .542.026.542.206 0 .129-.129.206-.336.206-.155 0-.361 0-.748.103-1.032.206-1.135.903-1.135 2.761l-.052 18.139c0 2.038-.051 2.193-.284 2.193-.258 0-.619-.335-2.27-1.987-.336-.31-4.799-4.851-8.076-8.386l-8.076-8.876.413 14.81v.026zm29.62-10.218l-.052-6.683c-.051-1.058-.309-1.548-1.315-1.755a7 7 0 0 0-1.058-.103c-.129 0-.258-.052-.258-.181 0-.181.155-.258.49-.258l3.483.103 7.096-.026a9.18 9.18 0 0 0 1.341-.155c.155-.026.284-.155.439-.155.103 0 .129.129.129.284 0 .206-.155.593-.258 1.445l-.155 2.038c-.026.155-.103.335-.206.335-.181 0-.258-.155-.258-.413 0-.206-.026-.748-.181-1.109-.206-.49-.516-.877-2.193-1.058-.516-.052-3.896-.103-4.232-.103-.129 0-.18.103-.18.31v8.54c0 .206.026.31.18.31l4.929-.052c.748-.052 1.186-.129 1.444-.439.207-.258.336-.413.465-.413.103 0 .155.052.155.258s-.155.722-.258 1.729l-.129 1.987c0 .258 0 .593-.207.593-.155 0-.206-.129-.206-.284 0-.31 0-.619-.129-1.032-.129-.439-.413-.955-1.6-1.084-.826-.103-3.896-.155-4.412-.155-.155 0-.206.103-.206.206v2.735 5.289c.103 2.142.567 2.529 3.586 2.529.8 0 2.167 0 2.967-.335s1.187-.955 1.394-2.219c.051-.336.129-.465.283-.465.181 0 .181.258.181.465 0 .258-.258 2.348-.387 2.993-.206.8-.464.8-1.677.8-4.67 0-6.734-.181-7.637-.181l-3.045.103c-.335 0-.49-.052-.49-.258 0-.103.051-.181.258-.181a3.84 3.84 0 0 0 .929-.129c.619-.129.774-.8.903-1.703.154-1.29.154-3.741.154-6.709v-5.444l-.077.026zm39.864-9.417c6.966 0 12.152 4.386 12.152 11.611s-4.902 12.643-12.359 12.643c-8.489 0-11.998-6.579-11.998-12.152 0-5.006 3.664-12.101 12.179-12.101m.645 23.067c2.786 0 8.54-1.6 8.54-10.604 0-7.431-4.515-11.404-9.417-11.404-5.161 0-9.031 3.406-9.031 10.166 0 7.199 4.335 11.843 9.908 11.843zm20.409-2.143c-2.993-2.683-3.741-6.218-3.741-9.16 0-2.064.722-5.702 3.457-8.437 1.858-1.858 4.67-3.303 9.443-3.303 1.239 0 2.968.103 4.49.361 1.187.206 2.167.413 3.148.464.335.026.413.155.413.335 0 .258-.104.619-.155 1.729-.052 1.032-.052 2.735-.103 3.199-.026.464-.104.645-.284.645-.207 0-.258-.206-.258-.645 0-1.213-.49-2.477-1.29-3.148-1.084-.929-3.458-1.755-6.193-1.755-4.128 0-6.037 1.213-7.121 2.271-2.271 2.167-2.787 4.928-2.787 8.076 0 5.909 4.542 11.327 11.173 11.327 2.322 0 4.154-.284 5.392-1.548.645-.671 1.058-2.038 1.135-2.606.052-.335.129-.464.31-.464.155 0 .206.206.206.464 0 .206-.361 2.916-.67 3.974-.181.593-.258.645-.8.903-1.239.49-3.587.722-5.573.722-4.645 0-7.767-1.135-10.218-3.354m44.534-6.114l.155 6.708c.103.903.283 1.574 1.212 1.703l1.393.129c.181 0 .259.103.259.181 0 .155-.155.258-.491.258-1.703 0-3.638-.103-3.818-.103l-3.019.103c-.336 0-.49-.052-.49-.258 0-.103.051-.181.258-.181a3.83 3.83 0 0 0 .928-.129c.62-.129.775-.8.904-1.703.154-1.29.154-3.741.154-6.708v-3.251s-.103-.181-.18-.181h-13.108s-.18.026-.18.181v3.251l.155 6.708c.103.903.284 1.574 1.212 1.703l1.394.129c.18 0 .258.103.258.181 0 .155-.155.258-.491.258-1.702 0-3.663-.103-3.818-.103l-3.019.103c-.335 0-.49-.052-.49-.258 0-.103.051-.181.258-.181a3.84 3.84 0 0 0 .929-.129c.619-.129.774-.8.903-1.703.155-1.29.155-3.741.155-6.708v-5.444l-.052-6.683c-.052-1.058-.31-1.548-1.342-1.754a7 7 0 0 0-1.058-.103c-.129 0-.258-.052-.258-.181 0-.181.155-.258.491-.258l3.509.103 3.018-.103c.336 0 .491.052.491.258 0 .129-.129.181-.258.181a3.55 3.55 0 0 0-.774.103c-.826.155-1.084.671-1.136 1.754l-.051 6.683v.645c0 .155.103.181.18.181h13.108s.18-.026.18-.181v-.645l-.051-6.683c-.052-1.058-.31-1.548-1.342-1.754a7 7 0 0 0-1.058-.103c-.129 0-.258-.052-.258-.181 0-.181.155-.258.49-.258l3.483.103 3.045-.103c.335 0 .49.052.49.258 0 .129-.129.181-.258.181-.206 0-.413.026-.774.103-.825.155-1.083.671-1.135 1.754l-.052 6.683v5.444h-.051zm27.814-13.649c.361-1.032.49-1.213.671-1.213s.309.155.671 1.11l7.198 18.655c1.11 2.761 2.013 3.251 2.658 3.432.464.155.929.181 1.238.181.181 0 .31.026.31.181 0 .181-.284.258-.619.258-.465 0-2.735 0-4.851-.052-.594-.026-.929-.026-.929-.206 0-.129.103-.181.206-.206.181-.052.362-.335.181-.826l-2.89-7.611s-.129-.181-.284-.181h-6.656c-.155 0-.258.103-.31.258l-1.858 5.47c-.284.774-.438 1.522-.438 2.064 0 .619.645.903 1.187.903h.309c.207 0 .31.052.31.181 0 .181-.181.258-.465.258-.748 0-2.064-.103-2.425-.103s-2.038.103-3.483.103c-.413 0-.594-.052-.594-.258 0-.129.129-.181.284-.181.207 0 .645-.026.903-.052 1.419-.181 2.039-1.367 2.606-2.916l7.018-19.222.052-.026zm3.225 12.385c.155 0 .155-.103.129-.206l-2.941-8.36c-.155-.464-.31-.464-.465 0l-2.735 8.36c-.051.155 0 .206.103.206h5.909z"/><path d="M409.751 25.87c.362-1.032.491-1.213.671-1.213s.31.155.671 1.11l7.199 18.655c1.109 2.761 2.012 3.251 2.657 3.432.465.155.929.181 1.239.181.18 0 .309.026.309.181 0 .181-.283.258-.619.258-.464 0-2.735 0-4.85-.052-.594-.026-.929-.026-.929-.206 0-.129.103-.181.206-.206.181-.052.361-.335.181-.826l-2.89-7.611s-.129-.181-.284-.181h-6.657c-.155 0-.258.103-.309.258l-1.858 5.47c-.284.774-.439 1.522-.439 2.064 0 .619.645.903 1.187.903h.31c.206 0 .309.052.309.181 0 .181-.18.258-.464.258-.748 0-2.064-.103-2.425-.103l-3.484.103c-.412 0-.593-.052-.593-.258 0-.129.129-.181.284-.181.206 0 .645-.026.903-.052 1.419-.181 2.038-1.367 2.606-2.916l7.018-19.222.051-.026zm3.226 12.385c.154 0 .154-.103.129-.206l-2.942-8.36c-.155-.464-.309-.464-.464 0l-2.735 8.36c-.052.155 0 .206.103.206h5.909zm19.557 1.264l.155 6.708c.103.903.284 1.574 1.213 1.703l1.393.129c.181 0 .258.103.258.181 0 .155-.155.258-.49.258-1.703 0-3.638-.103-3.819-.103l-3.019.103c-.335 0-.49-.052-.49-.258 0-.103.052-.181.258-.181a3.84 3.84 0 0 0 .929-.129c.619-.129.774-.8.903-1.703.155-1.29.155-3.741.155-6.708V26.438l-4.567.052c-1.909.026-2.658.258-3.148.98-.335.516-.438.748-.516.955-.103.258-.18.31-.309.31-.104 0-.155-.103-.155-.284 0-.31.619-2.967.671-3.225.051-.181.18-.594.309-.594.207 0 .516.31 1.368.361a27.82 27.82 0 0 0 2.451.155h11.611c1.986 0 2.812-.31 3.07-.31.155 0 .155.181.155.361l-.103 3.406c0 .284-.078.413-.207.413-.155 0-.206-.103-.258-.516v-.335c-.155-.929-.877-1.625-3.844-1.703l-3.896-.052v13.082l-.078.026zm23.686-14.861c6.967 0 12.153 4.386 12.153 11.611s-4.903 12.643-12.359 12.643c-8.489 0-11.998-6.579-11.998-12.152 0-5.006 3.664-12.101 12.178-12.101m.645 23.067c2.787 0 8.541-1.6 8.541-10.604 0-7.431-4.516-11.404-9.418-11.404-5.16 0-9.03 3.406-9.03 10.166 0 7.199 4.334 11.843 9.907 11.843zm18.191.36c-.439-.206-.465-.335-.465-1.187l.155-3.277c.026-.335.103-.49.258-.49.181 0 .206.103.206.335 0 .284 0 .723.104 1.135.464 2.296 2.502 3.148 4.566 3.148 2.968 0 4.413-2.142 4.413-4.128 0-2.142-.904-3.38-3.561-5.573l-1.393-1.135c-3.277-2.683-4.025-4.619-4.025-6.708 0-3.303 2.477-5.573 6.398-5.573 1.213 0 2.116.129 2.864.31.594.129.826.155 1.084.155s.31.052.31.206-.129 1.187-.129 3.277c0 .49-.052.722-.207.722-.18 0-.206-.155-.258-.413-.026-.361-.206-1.213-.413-1.548-.18-.335-1.032-1.651-3.87-1.651-2.141 0-3.793 1.316-3.793 3.586 0 1.755.878 2.812 3.767 5.186l.852.671c3.664 2.89 4.515 4.799 4.515 7.276 0 1.264-.49 3.612-2.632 5.135-1.341.929-2.993 1.29-4.67 1.29-1.445 0-2.89-.206-4.154-.826M186.516 89.781l-.052-6.683c-.051-1.058-.309-1.548-1.316-1.755a7 7 0 0 0-1.057-.103c-.13 0-.259-.052-.259-.181 0-.181.155-.258.491-.258l3.483.103 7.095-.026a8.28 8.28 0 0 0 1.316-.155c.155-.026.284-.155.439-.155.103 0 .129.129.129.284 0 .206-.155.594-.258 1.445l-.155 2.038c-.026.155-.103.336-.206.336-.181 0-.258-.155-.258-.413 0-.206-.026-.748-.181-1.109-.206-.49-.516-.877-2.193-1.058-.516-.052-3.896-.103-4.232-.103-.129 0-.18.103-.18.31v8.54c0 .206.026.31.18.31l4.929-.052c.748-.052 1.186-.129 1.444-.439.207-.258.336-.413.465-.413.103 0 .155.052.155.258s-.155.723-.258 1.729l-.129 1.987c0 .258 0 .593-.207.593-.155 0-.206-.129-.206-.284 0-.31 0-.619-.129-1.032-.129-.439-.413-.955-1.6-1.084-.826-.103-3.896-.155-4.438-.155-.155 0-.206.103-.206.206v2.709 5.29c.103 2.141.567 2.528 3.586 2.528.8 0 2.168 0 2.967-.335s1.187-.955 1.394-2.219c.051-.335.129-.465.284-.465.18 0 .18.258.18.465 0 .258-.258 2.348-.387 2.993-.206.8-.464.8-1.677.8-4.67 0-6.734-.181-7.637-.181l-3.045.103c-.335 0-.49-.051-.49-.258 0-.103.052-.18.258-.18a3.86 3.86 0 0 0 .929-.129c.619-.129.774-.8.903-1.703.155-1.29.155-3.741.155-6.709v-5.444l-.026.052z"/><path d="M205.067 89.781l-.051-6.683c-.052-1.058-.31-1.548-1.342-1.754a7 7 0 0 0-1.058-.103c-.129 0-.258-.052-.258-.181 0-.181.155-.258.49-.258l3.483.103 3.664-.103c1.935 0 4.025.181 5.651 1.367.774.568 2.141 2.064 2.141 4.206 0 2.296-.954 4.567-3.741 7.147 2.529 3.251 4.644 5.986 6.425 7.921 1.677 1.755 2.993 2.116 3.767 2.219.593.103 1.032.103 1.212.103.155 0 .284.104.284.181 0 .181-.18.258-.748.258h-2.193c-1.729 0-2.503-.155-3.303-.593-1.341-.723-2.425-2.219-4.18-4.541l-3.38-4.567c-.129-.129-.206-.181-.387-.181l-3.792-.052c-.155 0-.207.103-.207.258v.748c0 2.967 0 5.418.155 6.708.103.903.284 1.574 1.213 1.703.438.052 1.109.129 1.393.129.181 0 .258.103.258.181 0 .154-.155.258-.49.258-1.703 0-3.638-.104-3.793-.104-.026 0-1.987.104-2.916.104-.335 0-.49-.052-.49-.258 0-.104.077-.181.258-.181a3.86 3.86 0 0 0 .929-.129c.619-.129.774-.8.903-1.703.155-1.29.155-3.741.155-6.708v-5.444l-.052-.052zm2.477 2.683c0 .155.052.284.207.361.464.284 1.883.49 3.251.49.748 0 1.599-.103 2.322-.593 1.083-.748 1.883-2.4 1.883-4.773 0-3.87-2.038-6.192-5.366-6.192-.929 0-1.755.103-2.065.181-.154.052-.258.181-.258.361v10.114l.026.052zm20.564-2.683l-.052-6.683c-.051-1.058-.309-1.548-1.315-1.754a7 7 0 0 0-1.058-.103c-.129 0-.258-.052-.258-.181 0-.181.155-.258.49-.258l3.406.103 2.993-.103c.335 0 .49.052.49.258 0 .129-.129.181-.258.181-.206 0-.413.026-.774.103-.826.155-1.084.671-1.135 1.754l-.052 6.683v1.858h.129c.516-.594 6.115-6.27 7.25-7.483.878-.903 1.677-1.703 1.677-2.219 0-.361-.154-.568-.412-.645-.155-.052-.284-.129-.284-.258 0-.155.155-.206.361-.206.619 0 1.574.103 2.322.103.155 0 2.193-.103 2.967-.103.336 0 .465.052.465.206s-.052.206-.31.206c-.464 0-1.109.155-1.729.439-1.264.568-1.961 1.342-3.328 2.657l-6.812 6.76c.8.903 7.251 7.56 8.515 8.721 2.606 2.399 3.122 2.915 4.618 3.535a5.94 5.94 0 0 0 1.91.412c.206 0 .387.052.387.181 0 .155-.155.258-.671.258h-1.574c-.877 0-1.445 0-2.142-.052-1.651-.154-2.425-.825-3.741-1.883-1.393-1.135-7.947-8.231-9.443-10.063h-.155v3.019c0 2.967 0 5.418.155 6.709.103.903.284 1.573 1.213 1.702.438.052.928.129 1.212.129.181 0 .258.078.258.181 0 .155-.155.258-.49.258-1.522 0-3.303-.103-3.561-.103s-2.038.103-2.967.103c-.335 0-.49-.052-.49-.258 0-.103.052-.181.258-.181a3.81 3.81 0 0 0 .929-.129c.619-.129.774-.799.903-1.702.155-1.291.155-3.742.155-6.709V89.78h-.052zm22.938 0l-.052-6.683c-.051-1.058-.309-1.548-1.316-1.754a7 7 0 0 0-1.058-.103c-.129 0-.258-.052-.258-.181 0-.181.155-.258.491-.258l3.405.103 2.993-.103c.336 0 .491.052.491.258 0 .129-.129.181-.258.181a3.55 3.55 0 0 0-.774.103c-.826.155-1.084.671-1.136 1.754l-.051 6.683v1.858h.129c.516-.594 6.115-6.27 7.25-7.483.877-.903 1.677-1.703 1.677-2.219 0-.361-.155-.568-.413-.645-.155-.052-.284-.129-.284-.258 0-.155.155-.206.362-.206.619 0 1.574.103 2.322.103.155 0 2.193-.103 2.967-.103.335 0 .464.052.464.206s-.077.206-.309.206c-.465 0-1.11.155-1.729.439-1.264.568-1.961 1.342-3.328 2.657l-6.812 6.76c.8.903 7.25 7.56 8.515 8.721 2.606 2.399 3.122 2.915 4.618 3.535a5.94 5.94 0 0 0 1.909.412c.207 0 .387.052.387.181 0 .155-.154.258-.67.258h-1.574c-.878 0-1.445 0-2.142-.052-1.651-.154-2.425-.825-3.741-1.883-1.393-1.135-7.947-8.231-9.444-10.063h-.154v3.019c0 2.967 0 5.418.154 6.709.104.903.284 1.573 1.213 1.702.439.052.929.129 1.213.129.18 0 .258.078.258.181 0 .155-.155.258-.49.258-1.523 0-3.303-.103-3.561-.103s-2.038.103-2.967.103c-.336 0-.49-.052-.49-.258 0-.103.051-.181.258-.181a3.8 3.8 0 0 0 .928-.129c.62-.129.775-.799.904-1.702.154-1.291.154-3.742.154-6.709V89.78h-.051zm31.736-9.418c6.966 0 12.152 4.386 12.152 11.611s-4.876 12.643-12.333 12.643c-8.489 0-11.998-6.58-11.998-12.153 0-5.006 3.664-12.101 12.179-12.101zm.645 23.067c2.786 0 8.54-1.6 8.54-10.605 0-7.431-4.515-11.43-9.392-11.43-5.16 0-9.03 3.406-9.03 10.192 0 7.199 4.334 11.843 9.908 11.843m16.667.361c-.438-.206-.464-.335-.464-1.187l.155-3.276c.026-.335.103-.49.258-.49.18 0 .206.103.206.335 0 .284 0 .722.103 1.135.465 2.296 2.503 3.148 4.567 3.148 2.968 0 4.412-2.142 4.412-4.129 0-2.141-.903-3.38-3.56-5.573l-1.394-1.135c-3.276-2.683-4.025-4.618-4.025-6.708 0-3.303 2.477-5.573 6.399-5.573 1.213 0 2.116.129 2.864.31.594.129.826.155 1.084.155s.309.052.309.206-.129 1.187-.129 3.277c0 .49-.051.722-.206.722-.181 0-.206-.155-.258-.413-.026-.361-.206-1.213-.413-1.548-.18-.335-1.032-1.651-3.87-1.651-2.142 0-3.793 1.316-3.793 3.586 0 1.754.877 2.812 3.767 5.186l.852.671c3.663 2.89 4.515 4.799 4.515 7.276 0 1.264-.49 3.612-2.632 5.134-1.342.929-2.993 1.29-4.67 1.29-1.445 0-2.864-.206-4.154-.825m27.169.077c-.439-.206-.464-.335-.464-1.187l.154-3.276c.026-.335.104-.49.258-.49.181 0 .207.103.207.335 0 .284 0 .722.103 1.135.465 2.296 2.503 3.148 4.567 3.148 2.967 0 4.412-2.142 4.412-4.129 0-2.141-.903-3.38-3.561-5.573l-1.393-1.135c-3.277-2.683-4.025-4.618-4.025-6.708 0-3.303 2.477-5.573 6.399-5.573 1.213 0 2.116.129 2.864.31.593.129.826.155 1.084.155s.309.052.309.206-.129 1.187-.129 3.277c0 .49-.051.722-.206.722-.181 0-.207-.155-.258-.413-.026-.361-.207-1.213-.413-1.548-.181-.335-1.032-1.651-3.87-1.651-2.142 0-3.793 1.316-3.793 3.586 0 1.754.877 2.812 3.767 5.186l.851.671c3.664 2.89 4.516 4.799 4.516 7.276 0 1.264-.491 3.612-2.632 5.134-1.342.929-2.993 1.29-4.67 1.29-1.445 0-2.89-.206-4.154-.825m25.956-8.489l.155 6.708c.103.904.284 1.574 1.213 1.703l1.393.129c.181 0 .258.078.258.181 0 .155-.155.258-.49.258-1.703 0-3.638-.103-3.819-.103l-3.019.103c-.335 0-.49-.052-.49-.258 0-.103.052-.181.258-.181a3.81 3.81 0 0 0 .929-.129c.619-.129.774-.799.903-1.703.155-1.29.155-3.741.155-6.708V82.144l-4.567.052c-1.909.026-2.658.258-3.148.981-.335.516-.439.748-.516.955-.103.258-.181.31-.31.31-.103 0-.154-.103-.154-.284 0-.31.619-2.967.67-3.225.052-.181.181-.593.31-.593.207 0 .516.31 1.368.361a27.79 27.79 0 0 0 2.451.155h11.61c1.987 0 2.813-.31 3.071-.31.155 0 .155.181.155.361l-.104 3.406c0 .284-.077.387-.206.387-.155 0-.206-.103-.258-.516v-.335c-.155-.929-.877-1.626-3.844-1.703l-3.896-.052v13.082l-.078.052zm17.081 0l.155 6.709c.103.903.283 1.573 1.212 1.702l1.394.129c.18 0 .258.078.258.181 0 .155-.155.258-.491.258-1.703 0-3.638-.103-3.818-.103l-3.019.103c-.336 0-.49-.052-.49-.258 0-.103.051-.181.258-.181a3.81 3.81 0 0 0 .929-.129c.619-.129.774-.799.903-1.702.154-1.291.154-3.742.154-6.709v-5.444l-.051-6.683c-.052-1.058-.361-1.574-1.058-1.729a3.61 3.61 0 0 0-.955-.129c-.129 0-.258-.052-.258-.181 0-.181.155-.258.49-.258l3.123.103 3.044-.103c.336 0 .49.052.49.258 0 .129-.129.181-.258.181-.206 0-.413.026-.774.103-.825.155-1.083.671-1.135 1.754l-.052 6.683v5.444h-.051zm10.707-5.444l-.051-6.683c-.052-1.058-.31-1.548-1.316-1.755a7 7 0 0 0-1.058-.103c-.129 0-.258-.052-.258-.181 0-.181.155-.258.49-.258l3.509.103 7.612-.026c.593-.026 1.084-.026 1.367-.129.181-.052.31-.181.439-.181s.181.129.181.284c0 .206-.155.594-.258 1.445l-.155 2.038c-.026.155-.103.336-.258.336s-.207-.155-.207-.361c0-.258-.103-.774-.283-1.187s-.904-.955-2.116-.98l-4.774-.103c-.18 0-.283.103-.283.335v8.54c0 .181.025.284.206.284h3.974l1.393-.052c.748-.052 1.135-.155 1.419-.542.129-.155.206-.31.335-.31s.155.103.155.258c0 .181-.155.722-.258 1.729l-.129 2.064c0 .284 0 .593-.206.593-.155 0-.207-.129-.207-.284-.026-.31-.051-.748-.18-1.109-.155-.439-.645-.98-1.6-1.109-.774-.103-4.154-.103-4.67-.103-.155 0-.207.052-.207.284v2.632l.155 6.708c.103.903.284 1.574 1.213 1.703l1.393.129c.181 0 .258.078.258.181 0 .155-.155.258-.49.258-1.703 0-3.638-.103-3.793-.103l-3.044.103c-.336 0-.491-.052-.491-.258 0-.103.052-.181.258-.181a3.81 3.81 0 0 0 .929-.129c.619-.129.774-.8.903-1.703.155-1.29.155-3.741.155-6.708v-5.444l-.052-.026zm24.615 5.444l.155 6.708c.103.904.284 1.574 1.213 1.703l1.393.129c.181 0 .258.078.258.181 0 .155-.155.258-.49.258-1.703 0-3.638-.103-3.819-.103l-3.019.103c-.335 0-.49-.052-.49-.258 0-.103.052-.181.258-.181a3.81 3.81 0 0 0 .929-.129c.619-.129.774-.799.903-1.703.155-1.29.155-3.741.155-6.708V82.144l-4.567.052c-1.909.026-2.658.258-3.148.981-.335.516-.438.748-.516.955-.103.258-.18.31-.309.31-.104 0-.155-.103-.155-.284 0-.31.619-2.967.671-3.225.051-.181.18-.593.309-.593.207 0 .516.31 1.368.361a27.79 27.79 0 0 0 2.451.155h11.611c1.986 0 2.812-.31 3.07-.31.155 0 .155.181.155.361l-.103 3.406c0 .284-.078.387-.207.387-.155 0-.206-.103-.258-.516v-.335c-.155-.929-.877-1.626-3.844-1.703l-3.896-.052v13.082l-.078.052zm14.475-5.444l-.052-6.683c-.051-1.058-.309-1.548-1.316-1.755a7 7 0 0 0-1.057-.103c-.129 0-.258-.052-.258-.181 0-.181.154-.258.49-.258l3.509.103 7.095-.026a8.28 8.28 0 0 0 1.316-.155c.155-.026.284-.155.439-.155.103 0 .129.129.129.284 0 .206-.155.594-.258 1.445l-.155 2.038c-.026.155-.103.336-.206.336-.181 0-.258-.155-.258-.413 0-.206-.026-.748-.181-1.109-.207-.49-.516-.877-2.193-1.058-.516-.052-3.896-.103-4.232-.103-.129 0-.18.103-.18.31v8.54c0 .206.026.31.18.31l4.928-.052c.749-.052 1.161-.129 1.445-.439.207-.258.336-.413.465-.413.103 0 .155.052.155.258s-.155.723-.259 1.729l-.128 1.987c0 .258 0 .593-.207.593-.155 0-.206-.129-.206-.284 0-.31 0-.619-.129-1.032-.129-.439-.413-.955-1.6-1.084-.826-.103-3.896-.155-4.438-.155-.155 0-.206.103-.206.206v2.709 5.29c.103 2.141.567 2.528 3.586 2.528.8 0 2.167 0 2.967-.335s1.161-.955 1.394-2.219c.051-.335.129-.465.283-.465.181 0 .181.258.181.465 0 .258-.258 2.348-.413 2.993-.206.8-.464.8-1.677.8-4.67 0-6.734-.181-7.637-.181l-3.045.103c-.335 0-.49-.051-.49-.258 0-.103.052-.18.258-.18a3.86 3.86 0 0 0 .929-.129c.619-.129.774-.8.903-1.703.155-1.29.155-3.741.155-6.709v-5.444l-.026.052zm21.157 5.496c0 4.541.129 6.528.671 7.095.49.49 1.29.723 3.716.723 1.651 0 2.992-.026 3.741-.929.413-.49.722-1.265.8-1.858.025-.258.103-.413.283-.413.155 0 .181.129.181.465s-.206 2.193-.464 3.096c-.207.722-.31.825-1.961.825-4.464 0-6.502-.18-8.283-.18l-3.018.103c-.336 0-.491-.052-.491-.258 0-.103.052-.181.258-.181.284 0 .645-.077.929-.129.619-.129.774-.799.903-1.702.155-1.291.155-3.742.155-6.709v-5.444l-.052-6.683c-.051-1.058-.309-1.548-1.341-1.754a7 7 0 0 0-1.058-.103c-.129 0-.258-.052-.258-.181 0-.181.155-.258.49-.258l3.483.103 3.355-.103c.335 0 .49.052.49.258 0 .129-.129.181-.258.181a5.97 5.97 0 0 0-1.032.103c-.903.155-1.136.671-1.213 1.754l-.052 6.683v5.496h.026zm13.417 8.514c-.439-.206-.464-.335-.464-1.187l.154-3.276c.026-.335.104-.49.258-.49.181 0 .207.103.207.335 0 .284 0 .722.103 1.135.464 2.296 2.503 3.148 4.567 3.148 2.967 0 4.412-2.142 4.412-4.129 0-2.141-.903-3.38-3.561-5.573l-1.393-1.135c-3.277-2.683-4.025-4.618-4.025-6.708 0-3.303 2.477-5.573 6.399-5.573 1.213 0 2.116.129 2.864.31.593.129.826.155 1.084.155s.309.052.309.206-.129 1.187-.129 3.277c0 .49-.051.722-.206.722-.181 0-.207-.155-.258-.413-.026-.361-.207-1.213-.413-1.548-.181-.335-1.032-1.651-3.87-1.651-2.142 0-3.793 1.316-3.793 3.586 0 1.754.877 2.812 3.767 5.186l.851.671c3.664 2.89 4.516 4.799 4.516 7.276 0 1.264-.491 3.612-2.632 5.134-1.342.929-2.993 1.29-4.67 1.29-1.445 0-2.864-.206-4.154-.825m19.402-13.933l-.051-6.683c-.052-1.058-.31-1.548-1.316-1.755a7 7 0 0 0-1.058-.103c-.129 0-.258-.052-.258-.181 0-.181.155-.258.49-.258l3.509.103 7.096-.026c.593-.026 1.083-.103 1.316-.155.155-.026.284-.155.438-.155.104 0 .129.129.129.284 0 .206-.154.594-.258 1.445l-.155 2.038c-.025.155-.103.336-.206.336-.181 0-.258-.155-.258-.413 0-.206-.026-.748-.181-1.109-.206-.49-.516-.877-2.193-1.058-.516-.052-3.896-.103-4.231-.103-.129 0-.181.103-.181.31v8.54c0 .206.026.31.181.31l4.928-.052c.748-.052 1.161-.129 1.445-.439.206-.258.335-.413.464-.413.103 0 .155.052.155.258s-.155.723-.258 1.729l-.129 1.987c0 .258 0 .593-.206.593-.155 0-.207-.129-.207-.284 0-.31 0-.619-.129-1.032-.129-.439-.413-.955-1.599-1.084-.826-.103-3.897-.155-4.438-.155-.155 0-.207.103-.207.206v2.709 5.29c.103 2.141.568 2.528 3.587 2.528.8 0 2.167 0 2.967-.335s1.161-.955 1.393-2.219c.052-.335.129-.465.284-.465.181 0 .181.258.181.465 0 .258-.258 2.348-.413 2.993-.207.8-.465.8-1.677.8-4.67 0-6.735-.181-7.638-.181l-3.044.103c-.336 0-.49-.051-.49-.258 0-.103.051-.18.258-.18a3.85 3.85 0 0 0 .928-.129c.62-.129.774-.8.903-1.703.155-1.29.155-3.741.155-6.709v-5.444l-.026.052z"/><path d="M486 66H183v-2h303v2zM158.712 17.936H14.936v90.294h143.776V17.936zM160.648 16v94.165H13V16h147.648z" fill-rule="evenodd"/><path d="M41.428 52.879V45.19l.028-4.054.098-2.307c.042-1.132.252-1.985.603-2.586.35-.587.967-.965 1.836-1.118l.953-.14.701-.056a.65.65 0 0 0 .364-.098c.112-.07.168-.168.168-.294 0-.196-.084-.322-.252-.405-.182-.084-.449-.112-.799-.112l-2.481.056-2.593.084-1.374.056c-.266 0-1.178-.042-2.733-.098l-4.696-.098c-.364 0-.631.028-.799.112s-.252.21-.252.405c0 .126.056.224.168.294.098.07.224.098.364.098l1.135.056a8.17 8.17 0 0 1 1.093.14c1.065.21 1.794.615 2.187 1.188.392.587.603 1.426.645 2.516l.098 2.307.028 4.054v7.689 18.816c0 5.508-.224 9.799-.687 12.861-.462 3.075-1.149 5.452-2.089 7.129s-2.117 3.201-3.532 4.543c-.308.308-.659.615-1.079.951-.407.336-.827.629-1.219.853-.294.196-.533.349-.687.489s-.238.294-.238.489c0 .126.056.224.154.294s.196.098.308.098c.182 0 .336-.056.463-.126.336-.168.743-.419 1.206-.713l1.36-.909c2.649-1.817 4.738-3.523 6.28-5.13s2.649-3.229 3.322-4.837a20.62 20.62 0 0 0 1.388-4.697c.28-1.622.449-3.579.519-5.871.056-2.293.084-5.172.07-8.639V52.851"/><g fill-rule="evenodd"><path d="M55.922 61.056c-1.892-.042-3.448-.699-4.682-1.971s-1.864-2.95-1.906-5.033c.014-1.3.294-2.391.841-3.299a6.53 6.53 0 0 1 2.117-2.167c.505.713 1.163 1.524 1.962 2.432l1.92 2.125 1.514 1.496 2.271 2.111 2.173 1.887c-.561.601-1.346 1.146-2.383 1.636s-2.313.755-3.841.783m-1.149 1.719c1.626-.028 3-.28 4.135-.741s2.032-.979 2.705-1.524l1.388-1.244 2.846 2.055c.715.433 1.36.713 1.949.839s1.262.182 2.046.168h3.224c.154 0 .28-.028.393-.07s.168-.098.168-.168c0-.098-.042-.154-.126-.182-.07-.028-.196-.042-.336-.042-.617 0-1.29-.154-2.004-.405-.729-.252-1.36-.545-1.906-.867-.463-.252-1.051-.629-1.808-1.118-.743-.503-1.654-1.202-2.733-2.111.771-.923 1.5-2.097 2.173-3.509s1.037-2.81 1.093-4.166c0-.168-.028-.307-.112-.419s-.238-.196-.477-.238l-2.369-.182-1.584-.042a1 1 0 0 0-.364.056c-.098.028-.154.084-.168.168 0 .084.042.14.126.168.07.042.168.056.266.056a3.59 3.59 0 0 1 .827.098 1.72 1.72 0 0 1 .785.419c.238.252.407.517.491.797s.14.545.126.797c0 1.02-.182 2.013-.491 2.992-.322.979-.715 1.775-1.191 2.419l-1.836-1.636-2.509-2.349-1.878-1.845c-1.71-1.803-3.014-3.327-3.883-4.599-.869-1.258-1.318-2.516-1.318-3.733.056-1.524.505-2.614 1.36-3.285.841-.671 1.794-.993 2.832-.979.729 0 1.36.154 1.92.433.547.28 1.009.615 1.374.992.406.433.673.895.813 1.384s.21.951.21 1.384c0 .238 0 .405.042.489.028.098.084.14.154.126.07 0 .126-.028.168-.098.056-.07.112-.224.154-.461.028-.182.07-.503.098-.965l.084-1.482.042-1.3c0-.196 0-.349-.07-.461-.056-.112-.168-.238-.364-.35-.449-.252-1.009-.447-1.696-.587-.687-.154-1.444-.224-2.285-.224-1.472.028-2.748.349-3.799.978s-1.864 1.398-2.425 2.307-.841 1.803-.855 2.698c0 .727.112 1.44.35 2.153.238.727.659 1.496 1.262 2.334-1.332.741-2.495 1.761-3.476 3.047s-1.5 2.88-1.556 4.781c0 .979.252 2.027.799 3.131.533 1.104 1.402 2.041 2.565 2.838 1.178.783 2.719 1.202 4.626 1.23"/><path d="M80.046 61.671c-.098 0-.168-.042-.224-.112-.042-.07-.042-.182.028-.349l5.789-17.572c.322-.978.659-.978.981 0l6.252 17.572c.042.126.042.238.014.322s-.126.126-.28.126H80.032m-9.21 14.385c-.561 1.663-1.248 3.034-2.075 4.138-.827 1.09-1.976 1.761-3.448 1.985l-.981.098-.925.042c-.168 0-.308.028-.421.098-.112.056-.168.154-.168.294 0 .196.098.322.308.405.196.084.519.112.939.112l4.612-.084 2.832-.098 2.243.098 2.888.084c.294 0 .533-.028.715-.112.182-.07.266-.21.266-.405 0-.266-.21-.391-.659-.391h-.659c-.589 0-1.149-.154-1.668-.461s-.799-.783-.827-1.426c0-.601.084-1.258.238-2.013s.392-1.538.687-2.362l3.953-11.519c.07-.168.154-.294.252-.377.112-.098.238-.14.407-.14h14.144c.154 0 .294.028.364.098.098.056.168.168.224.294l6.126 16.02c.182.517.21.923.098 1.216s-.281.475-.491.531c-.14.028-.238.084-.322.154a.37.37 0 0 0-.14.294c0 .182.182.294.519.349s.827.084 1.458.112l6.504.112 3.827.014c.365 0 .687-.028.925-.112.253-.07.379-.21.393-.405 0-.154-.07-.266-.183-.322-.112-.042-.28-.07-.476-.07-.337 0-.729-.028-1.192-.07-.462-.056-.939-.154-1.429-.322-.701-.112-1.514-.643-2.454-1.594-.939-.937-2.018-2.824-3.196-5.634l-3.953-9.953-4.85-12.442-4.289-11.058-2.243-5.773-.869-1.929c-.196-.294-.392-.447-.575-.419-.182-.028-.379.126-.575.461s-.491 1.034-.869 2.069L70.879 76.042h-.056z"/></g><path d="M119.927 64.326l-.042 8.388-.281 5.746c-.112.951-.308 1.761-.561 2.39-.266.643-.714 1.034-1.345 1.174l-.995.182c-.351.056-.687.084-.982.084-.196 0-.336.042-.42.126a.33.33 0 0 0-.112.266c0 .196.084.322.252.405s.435.126.799.112l1.78-.07 2.033-.056 1.78-.056.841-.014 1.977.056 3.168.14 4.667.126 6.449.07c1.233.028 2.088-.028 2.565-.21.462-.182.799-.671.981-1.468l.364-2.125.337-2.628.154-1.566c0-.238 0-.461-.056-.657-.042-.196-.154-.308-.35-.322-.155 0-.281.07-.379.224-.084.154-.154.405-.21.755-.224 1.328-.561 2.349-1.009 3.076-.463.741-1.108 1.272-1.949 1.608-.911.335-1.962.559-3.154.629l-3.168.084c-3.126.056-5.186-.266-6.168-.992-.981-.713-1.471-2.167-1.471-4.348l-.029-3.006v-4.571l.015-3.565v-5.731c0-.14.028-.238.098-.322s.196-.126.364-.14l2.537.042 3.883.112 2.986.168c1.248.154 2.117.447 2.579.895s.757.909.841 1.384c.126.419.21.797.239 1.146l.042.993c0 .168.028.307.098.419s.182.168.35.168c.224 0 .351-.154.407-.419.042-.266.07-.531.056-.811l.084-1.761.182-2.404.336-2.474.183-1.16c0-.196-.028-.336-.084-.405a.28.28 0 0 0-.239-.112c-.126 0-.266.084-.42.224l-.561.615c-.28.322-.687.531-1.163.657-.505.126-1.136.21-1.921.252l-3.196.098-4.514.042h-2.747c-.168 0-.266-.056-.322-.154s-.084-.266-.07-.489V37.164c0-.224.028-.391.098-.503.07-.098.168-.154.294-.154l2.411.028 3.939.07 2.677.112c1.725.196 2.888.489 3.505.867s.995.825 1.163 1.342c.168.405.267.839.323 1.3.056.447.07.797.07 1.048 0 .266.042.461.112.615.084.154.21.224.42.224.127 0 .225-.084.309-.238a1.82 1.82 0 0 0 .154-.489c.07-.475.126-1.202.196-2.195l.14-2.097.337-2.041.196-1.021a1.69 1.69 0 0 0-.056-.419c-.042-.112-.112-.168-.21-.168-.154 0-.309.056-.463.14-.14.084-.294.14-.462.182-.267.07-.645.126-1.136.196l-1.682.14-2.93.042-5.004.014h-4.808-2.341l-2.691-.126-2.355-.056h-2.397c-.365 0-.631.042-.799.112-.183.084-.267.21-.267.405 0 .126.056.224.169.293.098.07.224.098.364.098l1.149.056c.449.028.814.084 1.094.14 1.065.21 1.794.615 2.187 1.202s.616 1.426.644 2.516l.085 2.321.042 4.054v19.152"/></svg>