<svg xmlns="http://www.w3.org/2000/svg" width="453.543" height="264.567" viewBox="0 0 120 70" fill="#231f20" xmlns:v="https://vecta.io/nano"><path d="M11.797 52.096h5.115v-9.772h9.49v-4.692h-9.49v-5.539h10.795v-4.692h-15.91zm17.755 0h15.099v-4.692h-9.984V27.401h-5.115zm15.811 0h5.151l1.799-5.362h8.502l1.834 5.362h5.292L59.086 27.26h-4.868zm8.502-9.878l2.716-8.043 2.681 8.043zm14.785 9.878h4.974V36.397l5.786 10.125h.106l5.821-10.195v15.769h5.009V27.401h-5.398L79.516 37.42l-5.503-10.019H68.65zm23.854 0h16.051v-4.621h-10.97v-5.503h9.525V37.35h-9.525v-5.327h10.83v-4.621h-15.91zm-80.663-29.8h.815v-1.608h1.298v1.608h.818v-3.952h-.818v1.588h-1.298v-1.588h-.815zm3.458 0h2.567v-.74H16.11v-.881h1.525v-.74H16.11v-.852h1.732v-.74H15.3zm2.957 0h2.414v-.752h-1.6v-3.2h-.814zm3.939.05c.769 0 1.327-.451 1.327-1.183v-.012c0-.616-.372-.909-1.058-1.178-.616-.256-.752-.364-.752-.587v-.008c0-.203.174-.343.459-.343.302 0 .591.165.84.368l.459-.62c-.364-.331-.815-.488-1.277-.488-.761 0-1.29.471-1.29 1.157v.013c0 .678.434.942 1.132 1.211.562.215.678.339.678.538v.004c0 .232-.194.389-.508.389-.397 0-.72-.211-.984-.442l-.483.603a2.12 2.12 0 0 0 1.459.58zm1.663-.05h.818v-3.952h-.818zm1.35 0h.798v-2.385l1.563 2.385h.703v-3.952h-.802v2.303l-1.513-2.303h-.748zm3.587 0h.814v-1.162l.368-.463.988 1.625h.96l-1.381-2.273 1.323-1.679h-.963l-1.294 1.707v-1.707h-.814zm3.3 0h.818v-3.952h-.818zm3.727.062c.914 0 1.513-.525 1.513-1.612v-2.402h-.815v2.439c0 .55-.265.818-.686.818s-.69-.277-.69-.835v-2.423h-.818v2.418c0 1.067.587 1.596 1.496 1.596zm2.001-.062h.798v-2.385l1.563 2.385h.703v-3.952h-.802v2.303l-1.513-2.303h-.748zm3.598 0h.818v-3.952h-.818zm2.339.021h.756l1.331-3.973h-.86l-.835 2.72-.835-2.72h-.889zm2.273-.021H48.6v-.74h-1.757v-.881h1.525v-.74h-1.525v-.852h1.732v-.74h-2.542zm2.958 0h.814v-1.298h.517l.727 1.298h.935l-.839-1.468c.434-.191.732-.57.732-1.166v-.025c0-.389-.116-.699-.331-.914-.248-.248-.616-.38-1.071-.38h-1.484zm.814-2.021v-1.191h.587c.418 0 .661.199.661.595v.004c0 .356-.223.591-.641.591zm3.588 2.072c.769 0 1.326-.451 1.326-1.183v-.012c0-.616-.372-.909-1.058-1.178-.616-.256-.752-.364-.752-.587v-.008c0-.203.174-.343.459-.343.302 0 .592.165.84.368l.459-.62a1.87 1.87 0 0 0-1.277-.488c-.761 0-1.29.471-1.29 1.157v.013c0 .678.434.942 1.133 1.211.562.215.678.339.678.538v.004c0 .232-.194.389-.508.389-.397 0-.72-.211-.984-.442l-.483.603a2.12 2.12 0 0 0 1.459.58zm1.664-.05h.818v-3.952h-.818zm2.03 0h.814V19.1h.992v-.756h-2.799v.756h.992zm3.131 0h.818V20.73l1.286-2.385h-.901l-.786 1.554-.777-1.554h-.926l1.286 2.394zm3.192 0h.794v-2.509l.926 1.616h.017l.93-1.629v2.522h.802v-3.952h-.864l-.868 1.604-.881-1.604h-.855zm5.45.062c.914 0 1.513-.525 1.513-1.612v-2.402h-.815v2.439c0 .55-.265.818-.686.818s-.69-.277-.69-.835v-2.423h-.818v2.418c0 1.067.587 1.596 1.496 1.596zm3.12-.012c.769 0 1.327-.451 1.327-1.183v-.012c0-.616-.372-.909-1.058-1.178-.616-.256-.752-.364-.752-.587v-.008c0-.203.174-.343.459-.343.302 0 .591.165.84.368l.459-.62c-.364-.331-.815-.488-1.277-.488-.761 0-1.29.471-1.29 1.157v.013c0 .678.434.942 1.132 1.211.562.215.678.339.678.538v.004c0 .232-.194.389-.508.389-.397 0-.72-.211-.984-.442l-.484.603a2.12 2.12 0 0 0 1.459.579zm1.656-.05h2.567v-.74h-1.757v-.881h1.525v-.739h-1.525v-.852h1.732v-.74h-2.542zm4.37.062c.914 0 1.513-.525 1.513-1.612v-2.402h-.815v2.439c0 .55-.265.818-.686.818s-.69-.277-.69-.835v-2.423h-.818v2.418c0 1.067.587 1.596 1.496 1.596zm2.001-.062h.794v-2.509l.926 1.616h.017l.93-1.629v2.522h.802v-3.952h-.864l-.868 1.604-.881-1.604h-.855zm0 0"/></svg>