<svg xmlns="http://www.w3.org/2000/svg" width="453.543" height="264.567" viewBox="0 0 120 70" xmlns:v="https://vecta.io/nano"><defs><clipPath id="A"><path d="M0 0h340.157v198.425H0Z" transform="translate(-27.74 -46.387)"/></clipPath></defs><g fill="#231f20"><path d="M0 0h42.8v13.3H14.5V70H0Zm45.819 0h14.6l5.1 15.2h24.1l5.2-15.2h15l-23.7 66.7c1.8 1.8 3 4.2 3 7.1 0 6.1-5.1 10.3-11.3 10.3-6.1 0-11.3-4.2-11.3-10.3 0-2.8 1.1-5.2 2.9-7zm24.1 28 7.7 22.8 7.6-22.8zm7.9 40.7c-3.3 0-5.6 2.3-5.6 5.1 0 2.9 2.3 5.2 5.6 5.2s5.6-2.3 5.6-5.2c0-2.8-2.3-5.1-5.6-5.1M137.329-1c10.4 0 18.5 3.9 24.9 8.7v32.4h-26.5V27.5h12.7V15.1c-2.6-1.9-6.3-2.9-10.4-2.9-10.3 0-18.2 8.1-18.2 22.5v.8c0 12.9 7.6 22 17.6 22 6.7 0 10.8-2.6 14.5-6l8.6 11.3c-6.4 5.4-13.1 8.2-22.9 8.2-19 0-32.7-14.9-32.7-35.6v-.9c0-21.9 13.6-35.5 32.4-35.5m26.04 1h14.6l5.1 15.2h24.1l5.2-15.2h15l-25.1 70.4h-13.8zm24.1 28 7.7 22.8 7.6-22.8zm42.909-28h14.2v42.3l27.7-42.3h12.4v70h-14.2V29.2l-26.8 40.8h-13.3z" transform="matrix(.35278 0 0 -.35278 9.786 53.635)" clip-path="url(#A)"/><path d="M11.212 20.425h.756l1.331-3.974h-.86l-.835 2.721-.835-2.72h-.889zm2.275-.021h2.567v-.74h-1.757v-.881h1.525v-.74h-1.525v-.852h1.732v-.74h-2.542zm3.683 0h.815v-3.195h.992v-.757h-2.798v.757h.992zm2.021 0h2.567v-.74h-1.757v-.881h1.525v-.74h-1.525v-.852h1.732v-.74H19.19zm2.959 0h.798v-2.385l1.563 2.385h.703v-3.952h-.802v2.303l-1.513-2.303h-.748zm4.739.05c.769 0 1.327-.451 1.327-1.182v-.013c0-.616-.372-.909-1.058-1.178-.616-.256-.752-.363-.752-.587v-.008c0-.202.174-.343.459-.343.302 0 .592.166.84.368l.459-.62a1.87 1.87 0 0 0-1.277-.488c-.761 0-1.29.471-1.29 1.157v.012c0 .678.434.943 1.133 1.211.562.215.678.339.678.537v.004c0 .231-.194.388-.508.388-.397 0-.72-.211-.984-.442l-.483.603a2.12 2.12 0 0 0 1.459.579zm1.658-.049h.814v-1.162l.368-.463.988 1.625h.96l-1.381-2.274 1.323-1.679h-.963l-1.294 1.707v-1.707h-.815zm3.139 0h.823l.289-.856h1.36l.294.855h.847l-1.418-3.973h-.777zm1.36-1.579l.434-1.286.43 1.286zm2.438 1.579h.814v-1.203h.463c.831-.017 1.48-.471 1.48-1.381v-.012c0-.839-.558-1.356-1.443-1.356h-1.314zm.814-1.935v-1.277h.447c.434 0 .674.228.674.641v.004c0 .368-.24.633-.661.633zm3.38 1.984c.769 0 1.327-.451 1.327-1.182v-.013c0-.616-.372-.909-1.058-1.178-.616-.256-.752-.363-.752-.587v-.008c0-.202.174-.343.459-.343.302 0 .592.166.84.368l.459-.62a1.87 1.87 0 0 0-1.277-.488c-.761 0-1.29.471-1.29 1.157v.012c0 .678.434.943 1.133 1.211.562.215.678.339.678.537v.004c0 .231-.194.388-.508.388-.397 0-.72-.211-.984-.442l-.483.603a2.12 2.12 0 0 0 1.459.579zm1.659-.049h.794v-2.51l.926 1.616h.017l.93-1.629v2.522h.802v-3.952h-.864l-.868 1.604-.881-1.604h-.856zm5.452.062c.914 0 1.513-.525 1.513-1.612v-2.402h-.815v2.439c0 .55-.265.818-.686.818s-.69-.277-.69-.835v-2.423h-.818v2.419c0 1.066.587 1.596 1.496 1.596zm3.12-.012c.769 0 1.327-.451 1.327-1.182v-.013c0-.616-.372-.909-1.058-1.178-.616-.256-.752-.363-.752-.587v-.008c0-.202.174-.343.459-.343.302 0 .592.166.84.368l.459-.62a1.87 1.87 0 0 0-1.277-.488c-.761 0-1.29.471-1.29 1.157v.012c0 .678.434.943 1.133 1.211.562.215.678.339.678.537v.004c0 .231-.194.388-.508.388-.397 0-.72-.211-.984-.442l-.483.603a2.12 2.12 0 0 0 1.459.579zm1.655-.049h2.568v-.74h-1.757v-.881h1.525v-.74h-1.526v-.852h1.732v-.74h-2.542zm2.96 0h2.568v-.74h-1.757v-.881h1.525v-.74h-1.525v-.852h1.732v-.74h-2.542zm3.684 0h.814v-3.196h.992v-.756h-2.799v.757h.992zm0 0"/></g></svg>