<svg xmlns="http://www.w3.org/2000/svg" width="453.543" height="264.567" viewBox="0 0 120 70" fill="#231f20" xmlns:v="https://vecta.io/nano"><path d="M16.917 22.291h.815v-3.196h.992v-.756h-2.799v.756h.992zm2.031 0h.818v-3.952h-.818zm1.35 0h2.568v-.74h-1.757v-.881h1.525v-.739h-1.526v-.852h1.732v-.74h-2.542zm2.958 0h1.274c1.145 0 1.885-.794 1.885-1.951v-.054c0-1.154-.74-1.947-1.885-1.947h-1.274zm1.269-3.212c.62 0 1.042.442 1.042 1.228v.025c0 .786-.422 1.22-1.042 1.22h-.455V19.08zm2.239 3.212h2.568v-.74h-1.757v-.881H29.1v-.739h-1.526v-.852h1.732v-.74h-2.542zm2.958 0h.794v-2.509l.926 1.616h.017l.93-1.629v2.522h.802v-3.952h-.863l-.868 1.604-.881-1.604h-.856zm5.45.062c.914 0 1.513-.525 1.513-1.612v-2.402h-.815v2.439c0 .55-.265.818-.686.818s-.69-.277-.69-.835v-2.423h-.818v2.418c0 1.067.587 1.596 1.496 1.596zm3.121-.013c.769 0 1.327-.451 1.327-1.183v-.012c0-.616-.372-.909-1.058-1.178-.616-.256-.752-.364-.752-.587v-.008c0-.203.174-.343.459-.343.302 0 .592.165.84.368l.459-.62a1.87 1.87 0 0 0-1.277-.488c-.761 0-1.29.471-1.29 1.158v.012c0 .678.434.943 1.133 1.211.562.215.678.339.678.538v.004c0 .232-.194.389-.508.389-.397 0-.72-.211-.984-.442l-.483.604a2.12 2.12 0 0 0 1.459.579zm1.656-.049h2.567v-.74h-1.757v-.881h1.525v-.739h-1.526v-.852h1.732v-.74h-2.542zm4.521.066c1.042 0 1.786-.835 1.786-2.014v-.066c0-1.183-.732-2.005-1.782-2.005-1.042 0-1.79.831-1.79 2.013v.071c0 1.178.736 2.001 1.786 2.001zm.004-.757c-.546 0-.947-.488-.947-1.269v-.037c0-.781.389-1.265.943-1.265.546 0 .943.492.943 1.269v.041c0 .777-.389 1.261-.938 1.261zM15.916 52.1h15.099v-4.692h-9.984V27.405h-5.115zm17.085 0h5.115V27.405h-5.115zm7.292 0h16.051v-4.621H45.373v-5.503h9.525v-4.621h-9.525v-5.327h10.83v-4.621h-15.91zm17.924 0h5.115v-7.267l2.293-2.893 6.174 10.16h5.997l-8.643-14.217 8.29-10.478H71.41l-8.079 10.654V27.405h-5.115zm20.852 0h5.115v-7.267l2.293-2.893 6.174 10.16h5.997l-8.643-14.217 8.29-10.478h-6.033l-8.079 10.654V27.405H79.07zm20.048 0h5.115V27.405h-5.115z"/></svg>