<svg width="453.543" height="264.567" viewBox="0 0 120 70" xml:space="preserve" xmlns="http://www.w3.org/2000/svg">
    <path d="M3.257 0h2.309v-9.059h2.813v-2.144H.445v2.144h2.812zm5.757 0h2.32v-11.203h-2.32Zm3.826 0h7.278v-2.098h-4.98v-2.496h4.324V-6.69h-4.325v-2.414h4.91v-2.098H12.84zm8.385 0h3.61c3.246 0 5.343-2.25 5.343-5.531v-.153c0-3.27-2.097-5.52-5.343-5.52h-3.61zm3.598-9.105c1.758 0 2.953 1.253 2.953 3.48v.07c0 2.227-1.195 3.457-2.953 3.457h-1.29v-7.007zM31.17 0h7.278v-2.098h-4.98v-2.496h4.324V-6.69h-4.325v-2.414h4.91v-2.098h-7.207zm8.385 0h2.25v-7.113l2.625 4.582h.047l2.637-4.617V0h2.273v-11.203H46.94l-2.46 4.547-2.497-4.547h-2.426zm15.448.176c2.59 0 4.29-1.488 4.29-4.57v-6.81h-2.309v6.915c0 1.559-.75 2.32-1.945 2.32-1.207 0-1.957-.785-1.957-2.367v-6.867h-2.32v6.855c0 3.024 1.663 4.524 4.241 4.524zM63.85.14c2.18 0 3.762-1.278 3.762-3.352v-.035c0-1.746-1.055-2.578-3-3.34-1.746-.726-2.133-1.031-2.133-1.664v-.023c0-.575.492-.973 1.3-.973.856 0 1.677.469 2.38 1.043l1.3-1.758c-1.03-.937-2.308-1.383-3.62-1.383-2.157 0-3.657 1.336-3.657 3.282v.035c0 1.922 1.23 2.672 3.211 3.433 1.594.61 1.922.961 1.922 1.524v.011c0 .657-.55 1.102-1.441 1.102-1.125 0-2.04-.598-2.79-1.254L59.714-1.5A6.011 6.011 0 0 0 63.849.14zM68.543 0h7.277v-2.098h-4.98v-2.496h4.324V-6.69h-4.325v-2.414h4.91v-2.098h-7.206zm12.814.188c2.953 0 5.063-2.368 5.063-5.708v-.187c0-3.352-2.075-5.684-5.051-5.684-2.953 0-5.074 2.356-5.074 5.707v.2c0 3.34 2.085 5.671 5.062 5.671zm.012-2.145c-1.547 0-2.684-1.383-2.684-3.598v-.105c0-2.215 1.102-3.586 2.672-3.586 1.547 0 2.672 1.394 2.672 3.598v.117c0 2.203-1.102 3.574-2.66 3.574zm0 0" style="fill:#231f20;fill-opacity:1;fill-rule:nonzero;stroke:none" aria-label="TIEDEMUSEO" transform="matrix(.35278 0 0 .35278 15.768 22.291)"/>
    <path d="M0 0h42.8v13.3H14.5V70H0Zm48.429 0h14.5v70h-14.5zm20.67 0h45.5v13.1h-31.1v15.6h27v13.1h-27v15.1h30.7V70h-45.1zm50.809 0h14.5v20.6l6.5 8.2 17.5-28.8h17l-24.5 40.3 23.5 29.7h-17.1l-22.9-30.2V70h-14.5zm59.109 0h14.5v20.6l6.5 8.2 17.5-28.8h17l-24.5 40.3 23.5 29.7h-17.1l-22.9-30.2V70h-14.5zm56.83 0h14.5v70h-14.5z" style="fill:#231f20;fill-opacity:1;fill-rule:nonzero;stroke:none" transform="matrix(.35278 0 0 -.35278 15.916 52.1)"/>
</svg>
