<svg width="453.543" height="264.567" viewBox="0 0 120 70" xml:space="preserve" xmlns="http://www.w3.org/2000/svg">
    <defs>
        <clipPath clipPathUnits="userSpaceOnUse" id="a">
            <path d="M0 0h340.157v198.425H0Z" transform="translate(-27.74 -46.387)"/>
        </clipPath>
    </defs>
    <path d="M0 0h42.8v13.3H14.5V70H0Zm45.819 0h14.6l5.1 15.2h24.1l5.2-15.2h15l-23.7 66.7c1.8 1.8 3 4.2 3 7.1 0 6.1-5.1 10.3-11.3 10.3-6.1 0-11.3-4.2-11.3-10.3 0-2.8 1.1-5.2 2.9-7zm24.1 28 7.7 22.8 7.6-22.8zm7.9 40.7c-3.3 0-5.6 2.3-5.6 5.1 0 2.9 2.3 5.2 5.6 5.2s5.6-2.3 5.6-5.2c0-2.8-2.3-5.1-5.6-5.1M137.329-1c10.4 0 18.5 3.9 24.9 8.7v32.4h-26.5V27.5h12.7V15.1c-2.6-1.9-6.3-2.9-10.4-2.9-10.3 0-18.2 8.1-18.2 22.5v.8c0 12.9 7.6 22 17.6 22 6.7 0 10.8-2.6 14.5-6l8.6 11.3c-6.4 5.4-13.1 8.2-22.9 8.2-19 0-32.7-14.9-32.7-35.6v-.9c0-21.9 13.6-35.5 32.4-35.5m26.04 1h14.6l5.1 15.2h24.1l5.2-15.2h15l-25.1 70.4h-13.8zm24.1 28 7.7 22.8 7.6-22.8zm42.909-28h14.2v42.3l27.7-42.3h12.4v70h-14.2V29.2l-26.8 40.8h-13.3z" style="fill:#231f20;fill-opacity:1;fill-rule:nonzero;stroke:none" transform="matrix(.35278 0 0 -.35278 9.786 53.635)" clip-path="url(#a)"/>
    <path d="M4.042.06h2.144L9.96-11.204H7.522L5.155-3.492l-2.367-7.71H.268ZM10.49 0h7.277v-2.097h-4.98v-2.496h4.324v-2.098h-4.324v-2.414h4.91v-2.098H10.49zM20.93 0h2.309v-9.058h2.812v-2.145H18.12v2.145h2.812zm5.728 0h7.277v-2.097h-4.98v-2.496h4.324v-2.098h-4.324v-2.414h4.91v-2.098h-7.207zm8.388 0h2.261V-6.76L41.738 0h1.992v-11.203h-2.273v6.528l-4.29-6.528h-2.12Zm13.432.141c2.18 0 3.762-1.277 3.762-3.351v-.036c0-1.746-1.055-2.578-3-3.34-1.746-.726-2.133-1.03-2.133-1.664v-.023c0-.574.492-.973 1.3-.973.856 0 1.677.47 2.38 1.043l1.3-1.757c-1.03-.938-2.308-1.383-3.62-1.383-2.157 0-3.657 1.336-3.657 3.281v.035c0 1.922 1.23 2.672 3.211 3.434 1.594.61 1.922.96 1.922 1.523v.012c0 .656-.55 1.101-1.441 1.101-1.125 0-2.04-.597-2.79-1.253l-1.37 1.71A6.011 6.011 0 0 0 48.478.141zm4.7-.14h2.308v-3.293l1.043-1.313L59.33 0h2.72l-3.915-6.445 3.75-4.758h-2.73l-3.668 4.84v-4.84h-2.309zm8.897 0h2.332l.82-2.426h3.856L69.916 0h2.402l-4.02-11.261h-2.203zm3.855-4.477 1.23-3.645 1.22 3.645zM72.84 0h2.308v-3.41h1.313c2.355-.047 4.195-1.336 4.195-3.914v-.035c0-2.379-1.582-3.844-4.09-3.844H72.84Zm2.308-5.484v-3.621h1.266c1.23 0 1.91.645 1.91 1.816v.012c0 1.043-.68 1.793-1.875 1.793zm9.58 5.625c2.18 0 3.762-1.277 3.762-3.351v-.036c0-1.746-1.055-2.578-3-3.34-1.746-.726-2.133-1.03-2.133-1.664v-.023c0-.574.492-.973 1.3-.973.856 0 1.677.47 2.38 1.043l1.3-1.757c-1.03-.938-2.308-1.383-3.62-1.383-2.157 0-3.657 1.336-3.657 3.281v.035c0 1.922 1.23 2.672 3.211 3.434 1.594.61 1.922.96 1.922 1.523v.012c0 .656-.55 1.101-1.441 1.101-1.125 0-2.04-.597-2.79-1.253l-1.37 1.71A6.011 6.011 0 0 0 84.727.141zm4.702-.14h2.25v-7.114l2.625 4.582h.047l2.637-4.617V0h2.273v-11.203h-2.449l-2.46 4.547-2.497-4.547H89.43Zm15.454.175c2.59 0 4.29-1.488 4.29-4.57v-6.809h-2.31v6.914c0 1.559-.75 2.32-1.944 2.32-1.207 0-1.957-.784-1.957-2.366v-6.868h-2.32v6.856c0 3.023 1.663 4.523 4.241 4.523zm8.845-.035c2.18 0 3.762-1.277 3.762-3.351v-.036c0-1.746-1.055-2.578-3-3.34-1.746-.726-2.133-1.03-2.133-1.664v-.023c0-.574.492-.973 1.3-.973.856 0 1.677.47 2.38 1.043l1.3-1.757c-1.03-.938-2.308-1.383-3.62-1.383-2.157 0-3.657 1.336-3.657 3.281v.035c0 1.922 1.23 2.672 3.211 3.434 1.594.61 1.922.96 1.922 1.523v.012c0 .656-.55 1.101-1.441 1.101-1.125 0-2.04-.597-2.79-1.253l-1.37 1.71a6.011 6.011 0 0 0 4.136 1.641zm4.69-.14h7.278v-2.098h-4.98v-2.496h4.324v-2.098h-4.325v-2.414h4.91v-2.098h-7.206zm8.391 0h7.278v-2.098h-4.98v-2.496h4.323v-2.098h-4.324v-2.414h4.91v-2.098h-7.207zm10.442 0h2.308v-9.06h2.813v-2.144h-7.934v2.145h2.813zm0 0" style="fill:#231f20;fill-opacity:1;fill-rule:nonzero;stroke:none" aria-label="VETENSKAPSMUSEET" transform="matrix(.35278 0 0 .35278 9.786 20.404)"/>
</svg>
