<svg xmlns="http://www.w3.org/2000/svg" viewBox="0 0 84 72" xmlns:v="https://vecta.io/nano"><path d="M43.11 0c3.326 0 10.856 1.135 18.518 6.337s13.096 13.147 14.976 22.216h.418c2.508.211 4.667 1.969 5.921 4.921.836 1.969 1.254 4.359.975 6.749-.348 6.116-3.831 10.686-8.011 10.686h-.348c-.418 0-.766-.07-1.184-.211-5.642 12.795-18.39 21.302-32.391 21.302S15.236 63.564 9.663 50.699c-.418.07-.766.211-1.184.211H8.13c-4.179 0-7.662-4.57-8.08-10.686-.418-5.554 2.02-10.194 5.573-11.389-2.438-1.336-4.249-2.882-5.294-4.57-.488-.773-.279-1.898.557-2.39.766-.492 1.881-.281 2.368.562.836 1.265 2.508 2.601 4.737 3.726 2.508-8.788 8.289-16.24 16.161-20.88S39.784 0 43.11 0zm13.224 16.25c-5.085 6.538-12.538 11.67-20.967 14.342-4.458 1.406-9.056 2.109-13.514 2.109-4.04 0-7.871-.633-11.424-1.758-.279 1.758-.418 3.515-.418 5.273 0 3.937.697 7.874 2.09 11.53 4.667 12.373 16.718 20.739 29.883 20.739S67.2 60.119 71.937 47.816a32.76 32.76 0 0 0 2.09-11.53c0-.773 0-1.547-.07-2.32-.418-.141-.836-.352-1.184-.492-4.737-2.109-8.568-5.132-11.563-9.069-2.02-2.671-3.692-5.413-4.876-8.155zM41.504 49c3.082 0 5.48.929 6.986 2.71.685.774.685 2.013 0 2.71-.685.774-1.712.774-2.397 0-.89-1.007-2.397-1.548-4.589-1.548s-3.699.542-4.589 1.548c-.685.774-1.781.774-2.397 0-.685-.774-.685-2.013 0-2.71 1.575-1.781 3.904-2.71 6.986-2.71zM6.738 32.138c-1.811.492-3.553 3.656-3.274 7.874.279 4.57 2.647 7.593 4.737 7.452h.139c-1.184-3.656-1.811-7.382-1.811-11.248 0-1.336.07-2.742.209-4.078zm70.493 0v.352c.139 1.195.209 2.461.209 3.656 0 3.867-.627 7.593-1.811 11.248h.139c2.02.141 4.458-2.882 4.737-7.382.139-1.828-.139-3.656-.766-5.202-.627-1.406-1.533-2.39-2.508-2.671zM59.504 36a3.5 3.5 0 1 1 0 7 3.5 3.5 0 1 1 0-7zm-34 0a3.5 3.5 0 1 1 0 7 3.5 3.5 0 1 1 0-7zM60.235 9.641c-.488 1.055-.975 2.039-1.602 3.023 1.115 3.093 2.926 6.327 5.294 9.491 2.438 3.234 5.642 5.765 9.404 7.593-1.602-8.085-6.269-15.256-13.096-20.107zm-18.25-5.695c-5.224 0-10.379 1.265-14.976 3.726-7.802 4.148-13.444 11.319-15.812 19.966 4.11 1.336 12.469 3.023 23.057-.352 8.777-2.812 16.439-8.507 21.037-15.607.766-1.265 1.463-2.461 2.02-3.726-.766-.492-1.602-.914-2.438-1.265a31.45 31.45 0 0 0-12.887-2.742z" fill="#2a2d2f"/></svg>