<?xml version="1.0" encoding="UTF-8" standalone="no"?>
<svg
   version="1.1"
   viewBox="0 0 84 72"
   id="svg2"
   sodipodi:docname="adultFaceHappyTransparent.svg"
   inkscape:version="1.3.2 (091e20e, 2023-11-25)"
   xmlns:inkscape="http://www.inkscape.org/namespaces/inkscape"
   xmlns:sodipodi="http://sodipodi.sourceforge.net/DTD/sodipodi-0.dtd"
   xmlns="http://www.w3.org/2000/svg"
   xmlns:svg="http://www.w3.org/2000/svg">
  <defs
     id="defs2" />
  <sodipodi:namedview
     id="namedview2"
     pagecolor="#ffffff"
     bordercolor="#666666"
     borderopacity="1.0"
     inkscape:showpageshadow="2"
     inkscape:pageopacity="0.0"
     inkscape:pagecheckerboard="0"
     inkscape:deskcolor="#d1d1d1"
     inkscape:zoom="10.27381"
     inkscape:cx="36.938586"
     inkscape:cy="31.147161"
     inkscape:window-width="1392"
     inkscape:window-height="1039"
     inkscape:window-x="0"
     inkscape:window-y="25"
     inkscape:window-maximized="0"
     inkscape:current-layer="svg2" />
  <g
     fill="none"
     fill-rule="evenodd"
     id="g2">
    <g
       transform="translate(-682 -329)"
       fill="#2A2D2F"
       fill-rule="nonzero"
       id="g1">
      <path
         d="m 725.11,329 c 3.3257,0 10.856,1.1348 18.518,6.3372 7.6623,5.2024 13.096,13.147 14.976,22.216 h 0.41794 c 2.5077,0.21091 4.667,1.9685 5.9209,4.9212 0.83589,1.9685 1.2538,4.3588 0.9752,6.7491 -0.34829,6.1163 -3.8312,10.686 -8.0106,10.686 h -0.34829 c -0.41794,0 -0.76623,-0.0703 -1.1842,-0.21091 -5.6422,12.795 -18.39,21.302 -32.391,21.302 -14.001,0 -26.748,-8.4363 -32.321,-21.302 -0.41794,0.0703 -0.76623,0.21091 -1.1842,0.21091 h -0.34829 c -4.1794,0 -7.6623,-4.5697 -8.0803,-10.686 -0.41794,-5.5539 2.0201,-10.194 5.5726,-11.389 -2.438,-1.3358 -4.2491,-2.8824 -5.294,-4.5697 -0.4876,-0.77333 -0.27863,-1.8982 0.55726,-2.3903 0.76623,-0.49212 1.8807,-0.28121 2.3684,0.56242 0.83589,1.2654 2.5077,2.6012 4.7367,3.726 2.5077,-8.7878 8.2892,-16.24 16.161,-20.88 7.8713,-4.64 15.632,-5.2827 18.958,-5.2827 z m 13.224,16.25 c -5.085,6.5382 -12.538,11.67 -20.967,14.342 -4.4581,1.4061 -9.0555,2.1091 -13.514,2.1091 -4.0401,0 -7.8713,-0.63272 -11.424,-1.7576 -0.27863,1.7576 -0.41794,3.5151 -0.41794,5.2727 0,3.937 0.69657,7.8739 2.0897,11.53 4.667,12.373 16.718,20.739 29.883,20.739 13.165,0 25.216,-8.366 29.953,-20.669 1.3931,-3.726 2.0897,-7.5927 2.0897,-11.53 0,-0.77333 0,-1.5467 -0.0697,-2.32 -0.41794,-0.1406 -0.83589,-0.35151 -1.1842,-0.49212 -4.7367,-2.1091 -8.5679,-5.1321 -11.563,-9.0691 -2.0201,-2.6715 -3.6918,-5.4133 -4.876,-8.1551 z m -14.7894,38.1691 c -3.08186,0.0462 -5.49281,-0.84684 -7.02612,-2.60473 -0.69645,-0.76384 -0.71501,-2.00242 -0.0406,-2.7094 0.67325,-0.78436 1.70051,-0.79976 2.39703,-0.0359 0.90539,0.99304 2.42023,1.51231 4.61168,1.47947 2.19146,-0.0328 3.69007,-0.59729 4.56529,-1.61698 0.67325,-0.78436 1.769,-0.80078 2.39703,-0.0359 0.69645,0.76384 0.71501,2.00241 0.0406,2.70939 -1.54845,1.804 -3.86307,2.76789 -6.94492,2.81407 z M 688.738,361.138 c -1.8111,0.49212 -3.5525,3.6557 -3.2739,7.8739 0.27863,4.5697 2.647,7.5927 4.7367,7.4521 h 0.13932 c -1.1842,-3.6557 -1.8111,-7.3818 -1.8111,-11.248 0,-1.3358 0.0697,-2.7418 0.20897,-4.0776 z m 70.493,0 v 0.35151 c 0.13932,1.1951 0.20897,2.4606 0.20897,3.6557 0,3.8667 -0.62692,7.5927 -1.8111,11.248 h 0.13932 c 2.0201,0.14061 4.4581,-2.8824 4.7367,-7.3818 0.13932,-1.8279 -0.13932,-3.6557 -0.76623,-5.2024 -0.62692,-1.4061 -1.5325,-2.3903 -2.5077,-2.6715 z m -17.727,3.8617 c 1.933,0 3.5,1.567 3.5,3.5 0,1.933 -1.567,3.5 -3.5,3.5 -1.933,0 -3.5,-1.567 -3.5,-3.5 0,-1.933 1.567,-3.5 3.5,-3.5 z m -34,0 c 1.933,0 3.5,1.567 3.5,3.5 0,1.933 -1.567,3.5 -3.5,3.5 -1.933,0 -3.5,-1.567 -3.5,-3.5 0,-1.933 1.567,-3.5 3.5,-3.5 z m 34.731,-26.359 c -0.4876,1.0545 -0.9752,2.0388 -1.6021,3.023 1.1145,3.0933 2.9256,6.3272 5.294,9.4909 2.438,3.2339 5.6422,5.7648 9.4037,7.5927 -1.6021,-8.0848 -6.2692,-15.256 -13.096,-20.107 z m -18.25,-5.6945 c -5.2243,0 -10.379,1.2654 -14.976,3.726 -7.8016,4.1479 -13.444,11.319 -15.812,19.966 4.1098,1.3358 12.469,3.023 23.057,-0.35151 8.7768,-2.8121 16.439,-8.5066 21.037,-15.607 0.76623,-1.2654 1.4628,-2.4606 2.0201,-3.726 -0.76623,-0.49212 -1.6021,-0.91394 -2.438,-1.2654 -4.1098,-1.8279 -8.4285,-2.7418 -12.887,-2.7418 z"
         id="path1"
         sodipodi:nodetypes="ccccccsscscsscccccccccccscscscscccccscccssccsccccsccccsccccccssssssssssccccccccccccccc" />
    </g>
  </g>
</svg>
