<svg xmlns="http://www.w3.org/2000/svg" xmlns:xlink="http://www.w3.org/1999/xlink" viewBox="0 0 65 65" xmlns:v="https://vecta.io/nano"><defs><circle id="A" cx="32.5" cy="32.5" r="32.5"/></defs><g fill-rule="evenodd"><mask id="B" fill="#fff"><use xlink:href="#A"/></mask><use fill="#ffc61e" xlink:href="#A"/><path d="M33.092 13c1.782 0 5.816.608 9.92 3.395s7.016 7.043 8.023 11.902h.224c1.343.113 2.5 1.055 3.172 2.636a7.25 7.25 0 0 1 .522 3.616c-.187 3.277-2.052 5.725-4.291 5.725h-.187a1.88 1.88 0 0 1-.634-.113c-3.023 6.855-9.852 11.412-17.352 11.412s-14.33-4.52-17.315-11.412c-.224.038-.41.113-.634.113h-.187c-2.239 0-4.105-2.448-4.329-5.725-.224-2.975 1.082-5.461 2.985-6.102-1.306-.716-2.276-1.544-2.836-2.448-.261-.414-.149-1.017.299-1.281.41-.264 1.008-.151 1.269.301.448.678 1.343 1.393 2.537 1.996 1.343-4.708 4.441-8.7 8.657-11.186S31.31 13 33.092 13zm7.084 8.706c-2.724 3.503-6.717 6.252-11.232 7.683a24.18 24.18 0 0 1-7.239 1.13c-2.164 0-4.217-.339-6.12-.942-.149.942-.224 1.883-.224 2.825 0 2.109.373 4.218 1.119 6.177 2.5 6.629 8.956 11.111 16.009 11.111s13.509-4.482 16.046-11.073a17.55 17.55 0 0 0 1.12-6.177c0-.414 0-.829-.037-1.243-.224-.075-.448-.188-.634-.264-2.538-1.13-4.59-2.749-6.194-4.859-1.082-1.431-1.978-2.9-2.612-4.369zM28.683 39.521c.336-.377.933-.377 1.306 0 .485.49 1.306.753 2.5.753s2.015-.264 2.5-.753c.373-.377.933-.377 1.306 0 .373.339.373.942 0 1.318-.821.866-2.127 1.318-3.806 1.318s-2.948-.452-3.806-1.318c-.373-.339-.373-.942 0-1.318zm-15.076-9.303c-.97.264-1.903 1.959-1.754 4.218.149 2.448 1.418 4.068 2.537 3.992h.075c-.634-1.959-.97-3.955-.97-6.026a21.41 21.41 0 0 1 .112-2.184zm37.764 0v.188a17.23 17.23 0 0 1 .112 1.958c0 2.072-.336 4.068-.97 6.026h.075c1.082.075 2.388-1.544 2.538-3.955.075-.979-.075-1.959-.41-2.787-.336-.753-.821-1.281-1.343-1.431zm-9.665 2.373c.927 0 1.679.759 1.679 1.695s-.752 1.695-1.679 1.695-1.679-.759-1.679-1.695.752-1.695 1.679-1.695zm-18.024 0c.927 0 1.679.759 1.679 1.695s-.752 1.695-1.679 1.695-1.679-.759-1.679-1.695.752-1.695 1.679-1.695zm18.584-14.425c-.261.565-.522 1.092-.858 1.619.597 1.657 1.567 3.39 2.836 5.085 1.306 1.733 3.023 3.088 5.038 4.068-.858-4.331-3.358-8.173-7.016-10.772zm-9.777-3.051c-2.799 0-5.56.678-8.023 1.996-4.179 2.222-7.202 6.064-8.471 10.696 2.202.716 6.68 1.619 12.352-.188 4.702-1.506 8.807-4.557 11.27-8.361.41-.678.784-1.318 1.082-1.996-.41-.264-.858-.49-1.306-.678a16.85 16.85 0 0 0-6.904-1.469z" fill="#1a1a1a" fill-rule="nonzero" mask="url(#B)"/></g></svg>