<svg xmlns="http://www.w3.org/2000/svg" viewBox="0 0 65 65" fill-rule="evenodd" xmlns:v="https://vecta.io/nano"><ellipse cx="32.386" cy="32.5" rx="32.386" ry="32.5" fill="#ffc61e"/><path d="M32.621 16.467c4.108 0 7.884 1.486 10.808 4.086 1.592-1.671 2.332-3.38 2.406-3.529.222-.483.74-.669 1.221-.483.481.223.666.743.481 1.226-.074.186-.925 2.154-2.776 4.123 1.295 1.486 2.369 3.194 3.109 5.126.407-.111.851-.149 1.295-.149 3.294 0 5.959 2.674 5.959 5.98s-2.665 5.98-5.959 5.98a5.14 5.14 0 0 1-1.295-.149c-2.406 6.351-8.402 10.549-15.249 10.549-6.81 0-12.844-4.197-15.249-10.549-.407.111-.851.149-1.296.149-3.294 0-5.959-2.674-5.959-5.98s2.665-5.98 5.959-5.98a5.14 5.14 0 0 1 1.296.149c2.406-6.351 8.402-10.549 15.249-10.549zm-6.958 3.64c-3.183 1.709-5.7 4.643-6.847 8.32-.481 1.411-.703 2.934-.703 4.42s.259 3.009.703 4.42l.105.317a14.43 14.43 0 0 0 13.701 9.786c6.329 0 11.881-4.049 13.806-10.066.481-1.411.703-2.897.703-4.42s-.259-3.009-.703-4.42c-.666-2.043-1.703-3.826-3.035-5.311-1.814 1.449-4.219 2.637-7.366 2.637-6.292 0-9.327-3.9-10.364-5.683zm3.183 18.794c.333-.371.925-.371 1.296 0 .481.483 1.332.743 2.48.743 1.184 0 1.999-.26 2.48-.743.333-.371.925-.371 1.295 0 .37.334.37.929 0 1.3-.814.854-2.11 1.3-3.775 1.3s-2.924-.446-3.775-1.3c-.37-.334-.37-.929 0-1.3zM16.04 28.724c-2.258 0-4.108 1.857-4.108 4.123s1.851 4.123 4.108 4.197c.259 0 .481-.037.74-.074-.333-1.337-.518-2.711-.518-4.086s.185-2.749.518-4.086c-.259-.037-.481-.074-.74-.074zm33.127-.074c-.259 0-.481.037-.74.074.333 1.337.518 2.711.518 4.086s-.185 2.749-.518 4.086c.259.037.481.074.74.074 2.295 0 4.108-1.931 4.108-4.197s-1.851-4.123-4.108-4.123zm-8.291 2.117a1.67 1.67 0 1 1 0 3.343 1.67 1.67 0 1 1 0-3.343zm-16.175 0a1.67 1.67 0 1 1 0 3.343 1.67 1.67 0 1 1 0-3.343zm7.921-12.443c-1.851 0-3.627.334-5.256.966.925 1.523 3.442 4.606 8.661 4.606 2.517 0 4.516-.891 6.033-2.08a14.5 14.5 0 0 0-9.438-3.491z" fill="#1a1a1a" fill-rule="nonzero"/></svg>