<svg xmlns="http://www.w3.org/2000/svg" viewBox="0 0 163 152" fill="none" fill-rule="evenodd" xmlns:v="https://vecta.io/nano"><g stroke="#000" stroke-width="8"><path d="M78.443 45.633l37.506 37.401c.702.7 1.224 1.511 1.567 2.377a6.97 6.97 0 0 1 1.811 4.698V141a7 7 0 0 1-7 7H34.675a7 7 0 0 1-7-7V90.109c0-1.811.688-3.462 1.817-4.705.349-.88.877-1.689 1.561-2.371l37.506-37.401a7 7 0 0 1 9.886 0z"/><path d="M28 141l32-26m58 26l-33-26" fill="#d8d8d8"/></g><path fill="#000" fill-rule="nonzero" d="M73.526 117.912L30.308 85.074l-4.84 6.37 48.239 36.652 47.712-38.992-5.062-6.2z"/><g stroke="#000"><path d="M80.121 107C78.668 80.118 90.294 63.785 115 58m-47.118 48C69.294 78.569 58 61.903 34 56" stroke-linecap="round" stroke-width="6"/><path d="M136 62l-12.93 6.798 2.47-14.399-10.46-10.197 14.45-2.101L136 29l6.47 13.101 14.45 2.101-10.46 10.197 2.47 14.399zM10.466 47L5 37.112 16.578 39l8.199-8 1.689 11.056L37 47l-10.534 4.944L24.777 63l-8.199-8L5 56.889zm35.146-27.5L41 11.157l9.769 1.593L57.687 6l1.425 9.328L68 19.5l-8.888 4.172L57.687 33l-6.918-6.75L41 27.843zm39.342 2L80 12.539l10.492 1.711L97.923 7l1.531 10.019L109 21.5l-9.546 4.481L97.923 36l-7.431-7.25L80 30.461z" fill="#ffc61e" stroke-width="5"/></g></svg>