<svg xmlns="http://www.w3.org/2000/svg" viewBox="0 0 176 129" xmlns:v="https://vecta.io/nano"><path d="M29.039 97.114c1.578 0 3.119-.168 4.629-.418 10.981 18.713 31.219 31.305 54.331 31.305s43.349-12.591 54.331-31.312c1.51.258 3.05.418 4.629.418 15.46.008 28.042-12.66 28.042-28.225s-12.582-28.233-28.042-28.233c-.173 0-.34.023-.513.023-2.952-7.303-7.226-13.99-12.604-19.717 3.723-3.452 6.955-7.376 9.523-11.71.634-1.069.82-2.348.517-3.555a4.68 4.68 0 0 0-2.133-2.878c-1.061-.639-2.331-.826-3.529-.521s-2.227 1.078-2.86 2.148c-2.22 3.749-5.112 7.148-8.466 10.128C116.17 6.079 102.666 1 88 1 61.591 1 38.934 17.433 29.555 40.678c-.173-.007-.34-.023-.513-.023C13.582 40.648 1 53.315 1 68.881s12.582 28.233 28.042 28.233h-.003zm134.61-28.479c0 9.031-7.161 16.393-16.076 16.716 2.368-6.793 3.577-13.941 3.576-21.139 0-4.116-.398-8.131-1.141-12.032 7.751 1.439 13.641 8.263 13.641 16.455zm-75.27-55.314c10.311-.011 20.39 2.986 28.933 8.606-6.939 3.488-14.767 5.526-22.617 5.608-9.249.103-20.117-3.199-23.438-10.779-.076-.177-.183-.34-.281-.502a52.94 52.94 0 0 1 17.403-2.933h.001zm-26.567 6.634c.03.092.046.19.091.282 5.263 12.422 20.161 16.792 31.527 16.792.16 0 .318 0 .469-.008 10.723-.114 21.221-3.275 30.158-8.696 9.264 9.373 15.004 22.272 15.004 36.496 0 28.568-23.117 51.806-51.538 51.806S35.986 93.388 35.986 64.82c0-19.156 10.406-35.902 25.827-44.865zM25.984 52.18a64.86 64.86 0 0 0-1.141 12.026c-.001 7.201 1.208 14.35 3.577 21.145-8.915-.316-16.076-7.687-16.076-16.721 0-8.187 5.89-15.012 13.64-16.451v.001z" stroke="#f9f9f9" stroke-width="2"/><path d="M88.001 89c11.53 0 20.87-10.26 20.87-22.909H67.127C67.127 78.749 76.47 89 87.998 89H88zM88 72.773c4.717 0 8.538 4.278 8.538 9.546H79.461c0-5.267 3.822-9.546 8.539-9.546zM63.333 53.208c0 8.269-12.333 8.269-12.333 0 0-8.277 12.333-8.277 12.333 0m61.667 0c0 8.269-12.333 8.269-12.333 0 0-8.277 12.333-8.277 12.333 0"/></svg>