<svg xmlns="http://www.w3.org/2000/svg" viewBox="0 0 167 140" xmlns:v="https://vecta.io/nano"><path d="M112.9 93.476c-7.304-1.216-14.963 1.392-19.659 7.132-1.562 1.916-1.216 4.694.524 6.086 1.916 1.563 4.695 1.216 6.088-.523 2.786-3.3 7.135-4.87 11.308-4.17 4.348.692 7.828 3.654 9.39 7.825.694 1.739 2.263 2.785 4.173 2.785.523 0 1.046-.177 1.563-.347 2.262-.869 3.479-3.3 2.609-5.563-2.596-6.962-8.514-12.01-15.996-13.225zm17.751-10.088c.87.177 1.563.177 2.433.177 4.002 0 8.005-1.74 10.614-5.04 1.563-1.916 1.216-4.694-.693-6.087-1.916-1.562-4.696-1.216-6.089.693-1.046 1.393-2.955 2.085-4.695 1.74s-3.303-1.563-3.826-3.302c-.87-2.262-3.302-3.478-5.565-2.609s-3.48 3.302-2.61 5.564c1.557 4.693 5.56 7.995 10.431 8.864zm32.869-32.17c-21.052-8.872-43.835-13.735-66.627-14.781L90.981 3.92C90.635 1.835 88.895.443 86.98.266 58.622-1.12 29.75 3.921 3.479 15.046c-1.74.7-2.956 2.786-2.61 4.701l7.136 40.865c1.393 7.826 4.172 15.304 8.52 22.083C24.7 95.914 38.964 103.74 54.274 103.74c2.61 0 5.219-.177 7.828-.693 2.263-.347 4.526-1.046 6.612-1.74.177 1.047.177 2.086.523 3.132 3.65 18.077 17.742 31.64 35.662 34.772 2.609.523 5.218.693 7.828.693 15.133 0 29.395-7.825 37.747-21.045 4.172-6.779 7.135-14.258 8.521-22.082l7.135-40.865c.347-1.91-.87-3.994-2.61-4.694h.002-.002zM60.54 94.52c-14.44 2.608-28.881-3.825-36.532-16.343-3.656-5.91-6.089-12.173-7.305-18.951l-6.612-37.57C33.23 12.439 58.107 8.092 82.976 8.792l6.612 37.387c1.217 6.779 1.047 13.565-.346 20.343-2.956 14.435-14.264 25.392-28.703 28v-.001l.001-.001zm89.758.693c-1.216 6.779-3.656 13.218-7.305 18.95-7.828 12.52-22.09 18.951-36.53 16.344s-25.748-13.565-28.704-27.823c-.347-1.74-.693-3.478-.87-5.217 8.352-4.87 14.787-12.35 18.612-21.39 1.393.869 2.956 1.392 4.526 1.738.87.177 1.563.177 2.432.177 4.003 0 8.005-1.74 10.615-5.04 1.563-1.916 1.216-4.694-.694-6.087-1.916-1.562-4.695-1.215-6.088.693-1.047 1.393-2.956 2.086-4.696 1.74-1.393-.177-2.609-1.217-3.302-2.432 1.393-7.133 1.393-14.435.177-21.56 20.005 1.046 40.01 5.217 58.453 12.52l-6.626 37.387zM46.445 44.093c1.916-1.562 2.086-4.347.523-6.086-3.302-3.824-8.174-5.563-12.87-4.694-4.872.87-8.874 4.348-10.614 8.872-.87 2.262.347 4.693 2.61 5.563.523.177 1.046.177 1.392.177a4.43 4.43 0 0 0 4.173-2.955c.523-1.74 2.086-2.955 3.825-3.132 1.74-.346 3.656.347 4.696 1.74 1.57 1.901 4.356 2.078 6.265.515zM64.71 27.92c-4.871.869-8.874 4.347-10.613 8.87-.87 2.263.346 4.695 2.609 5.564.523.177 1.046.177 1.393.177a4.43 4.43 0 0 0 4.172-2.955c.523-1.739 2.086-2.955 3.826-3.132 1.74-.346 3.656.347 4.695 1.74 1.563 1.915 4.35 2.085 6.089.522 1.916-1.562 2.086-4.347.523-6.086-3.126-3.83-7.821-5.57-12.693-4.7h-.001zm5.92 28.692c-2.262-.87-4.695.346-5.565 2.608-1.393 4.001-4.872 6.956-9.22 7.826-4.35.692-8.699-.87-11.485-4.171-1.563-1.916-4.349-2.085-6.088-.523-1.917 1.562-2.087 4.347-.524 6.086 4.003 4.87 9.745 7.479 15.833 7.479 1.217 0 2.433-.177 3.656-.346 7.305-1.216 13.57-6.433 16.003-13.389.87-2.269-.353-4.7-2.61-5.57z"/></svg>