<svg xmlns="http://www.w3.org/2000/svg" viewBox="0 0 175 175" stroke="#000" fill="none" fill-rule="evenodd" xmlns:v="https://vecta.io/nano"><g transform="matrix(.707107 .707107 -.707107 .707107 52.940514 59.373875)" fill="#fff" stroke-width="8"><path d="M38.238 105.97L-.177 19.069a7 7 0 0 1 6.402-9.83h76.83a7 7 0 0 1 6.402 9.83L51.043 105.97a7 7 0 0 1-12.805 0z"/><ellipse cx="44.723" cy="14.465" rx="43.987" ry="13.879"/></g><g transform="matrix(.731354 .681998 -.681998 .731354 94.625477 -19.002631)"><path d="M79.775 99.124c-1.08-20.847 7.557-33.514 25.91-38M55.598 105.12c1.038-20.847-7.266-33.514-24.913-38" stroke-linecap="round" stroke-width="6"/><path d="M121.69 69.013l-15.152 7.966 2.894-16.872-12.258-11.949 16.941-2.462 7.576-15.351 7.576 15.351 16.941 2.462-12.258 11.949 2.894 16.872-15.152-7.966zM1.986 53.268l-6.732-12.629 14.25 2.411 10.047-10.166 2.071 14.054 13.005 6.331L21.622 59.6l-2.071 14.054L9.504 63.487l-14.25 2.411 6.732-12.629zm52.486 2.849l-6.115-11.063 12.925 2.108 8.988-8.77 1.854 12.135 11.908 5.589-11.908 5.589L70.27 73.84l-8.988-8.77-12.925 2.108 6.115-11.063zm23.485-43.024L71.5 1.412l13.648 2.226 9.501-9.27 1.96 12.826 12.566 5.898-12.566 5.898-1.96 12.826-9.501-9.27L71.5 24.773l6.457-11.681z" stroke-width="6" fill="#ffc61e"/></g></svg>