<?xml version="1.0" encoding="UTF-8"?>
<svg xmlns="http://www.w3.org/2000/svg" width="573" height="127" viewBox="0 0 573 127" fill="none">
  <path fill-rule="evenodd" clip-rule="evenodd" d="M533 66H183V64H533V66Z" fill="#232323"></path>
  <path fill-rule="evenodd" clip-rule="evenodd" d="M158.712 17.9357H14.9357V108.23H158.712V17.9357ZM160.648 16V110.165H13V16H160.648Z" fill="#232323"></path>
  <path d="M41.4278 52.8785C41.4278 49.5514 41.4278 46.9931 41.4278 45.1898C41.4278 43.3865 41.4418 42.0444 41.4559 41.1358C41.4699 40.2411 41.5119 39.4583 41.554 38.8292C41.596 37.6968 41.8063 36.8441 42.1567 36.243C42.5072 35.6559 43.124 35.2784 43.9931 35.1246C44.3715 35.0547 44.6939 35.0128 44.9463 34.9848C45.1986 34.9569 45.4229 34.9289 45.6471 34.9289C45.7873 34.9289 45.8995 34.901 46.0116 34.8311C46.1237 34.7612 46.1798 34.6633 46.1798 34.5375C46.1798 34.3418 46.0957 34.216 45.9275 34.1321C45.7453 34.0482 45.4789 34.0203 45.1285 34.0203C44.4276 34.0203 43.6006 34.0342 42.6474 34.0762C41.6942 34.1041 40.8251 34.1321 40.0541 34.1601C39.2831 34.188 38.8205 34.202 38.6804 34.216C38.414 34.216 37.5029 34.174 35.9469 34.1181C34.405 34.0622 32.835 34.0342 31.251 34.0203C30.8866 34.0203 30.6202 34.0482 30.452 34.1321C30.2838 34.216 30.1997 34.3418 30.1997 34.5375C30.1997 34.6633 30.2558 34.7612 30.3679 34.8311C30.466 34.901 30.5922 34.9289 30.7324 34.9289C31.0548 34.9289 31.4333 34.9429 31.8678 34.9848C32.3164 35.0128 32.6808 35.0687 32.9612 35.1246C34.0265 35.3343 34.7554 35.7397 35.1479 36.3129C35.5404 36.9 35.7507 37.7388 35.7927 38.8292C35.8348 39.4722 35.8628 40.2411 35.8909 41.1358C35.9049 42.0444 35.9189 43.3865 35.9189 45.1898C35.9189 46.9931 35.9189 49.5514 35.9189 52.8785V71.6948C35.9189 77.2026 35.6946 81.4943 35.232 84.5558C34.7695 87.6313 34.0826 90.0078 33.1434 91.6853C32.2042 93.3628 31.0267 94.8866 29.611 96.2286C29.3026 96.5362 28.9521 96.8437 28.5316 97.1792C28.1251 97.5147 27.7046 97.8083 27.3121 98.032C27.0177 98.2277 26.7794 98.3814 26.6252 98.5212C26.471 98.661 26.3869 98.8148 26.3869 99.0105C26.3869 99.1363 26.443 99.2342 26.5411 99.3041C26.6392 99.374 26.7373 99.4019 26.8495 99.4019C27.0317 99.4019 27.1859 99.346 27.3121 99.2761C27.6485 99.1084 28.055 98.8567 28.5176 98.5632C28.9802 98.2556 29.4427 97.9621 29.8773 97.6545C32.5266 95.8372 34.6153 94.1317 36.1572 92.5241C37.6991 90.9164 38.8065 89.2948 39.4794 87.6872C40.1242 86.1914 40.5868 84.6257 40.8671 82.9901C41.1475 81.3685 41.3157 79.4114 41.3858 77.1188C41.4418 74.8261 41.4699 71.9464 41.4559 68.4795V52.8505" fill="#232323"></path>
  <path fill-rule="evenodd" clip-rule="evenodd" d="M55.922 61.0558C54.0297 61.0138 52.4737 60.3568 51.2401 59.0847C50.0066 57.8125 49.3758 56.135 49.3337 54.0521C49.3478 52.752 49.6281 51.6616 50.1748 50.7529C50.7215 49.8583 51.4224 49.1313 52.2915 48.5861C52.7961 49.2991 53.4549 50.1099 54.2539 51.0186C55.0529 51.9272 55.6978 52.6262 56.1744 53.1434C56.4827 53.465 56.9874 53.9682 57.6883 54.6392C58.3891 55.3102 59.1461 56.0232 59.9591 56.7501C60.7721 57.491 61.487 58.1201 62.1319 58.6373C61.5711 59.2384 60.7862 59.7836 59.7488 60.2729C58.7115 60.7622 57.4359 61.0278 55.908 61.0558M54.7586 62.7752C56.3846 62.7473 57.7583 62.4956 58.8938 62.0343C60.0292 61.573 60.9263 61.0558 61.5992 60.5106C62.272 59.9654 62.7346 59.546 62.9869 59.2664C64.1644 60.189 65.1176 60.874 65.8325 61.3214C66.5474 61.7547 67.1922 62.0343 67.781 62.1601C68.3697 62.286 69.0426 62.3419 69.8275 62.3279H73.0516C73.2058 62.3279 73.3319 62.2999 73.4441 62.258C73.5562 62.2161 73.6123 62.1601 73.6123 62.0903C73.6123 61.9924 73.5702 61.9365 73.4861 61.9085C73.4161 61.8806 73.2899 61.8666 73.1497 61.8666C72.5329 61.8666 71.8601 61.7128 71.1452 61.4612C70.4163 61.2095 69.7855 60.916 69.2388 60.5944C68.7762 60.3428 68.1875 59.9654 67.4305 59.4761C66.6876 58.9728 65.7764 58.2739 64.6971 57.3652C65.4681 56.4426 66.197 55.2683 66.8698 53.8564C67.5427 52.4445 67.9071 51.0465 67.9632 49.6905C67.9632 49.5228 67.9352 49.383 67.851 49.2711C67.7669 49.1593 67.6127 49.0754 67.3745 49.0335C66.4493 48.9496 65.6643 48.8797 65.0055 48.8517C64.3466 48.8238 63.828 48.8098 63.4215 48.8098C63.2813 48.8098 63.1692 48.8238 63.057 48.8657C62.9589 48.8937 62.9028 48.9496 62.8888 49.0335C62.8888 49.1174 62.9309 49.1733 63.015 49.2012C63.0851 49.2432 63.1832 49.2572 63.2813 49.2572C63.5336 49.2572 63.814 49.2851 64.1083 49.355C64.4027 49.4249 64.669 49.5647 64.8933 49.7744C65.1316 50.026 65.2998 50.2916 65.3839 50.5712C65.468 50.8508 65.5241 51.1164 65.5101 51.368C65.5101 52.3885 65.3279 53.3811 65.0195 54.3596C64.6971 55.3382 64.3046 56.135 63.828 56.7781C63.4355 56.4565 62.8327 55.9113 61.9917 55.1425C61.1506 54.3736 60.3236 53.5908 59.4825 52.7939C58.6415 51.9971 58.0107 51.382 57.6042 50.9487C55.894 49.1453 54.5904 47.6216 53.7213 46.3494C52.8522 45.0913 52.4036 43.8331 52.4036 42.6169C52.4597 41.0932 52.9082 40.0028 53.7633 39.3318C54.6044 38.6608 55.5576 38.3392 56.5949 38.3532C57.3238 38.3532 57.9546 38.507 58.5153 38.7866C59.062 39.0662 59.5246 39.4017 59.889 39.7791C60.2955 40.2125 60.5619 40.6738 60.702 41.1631C60.8422 41.6524 60.9123 42.1137 60.9123 42.547C60.9123 42.7847 60.9123 42.9524 60.9544 43.0363C60.9824 43.1342 61.0385 43.1761 61.1086 43.1621C61.1787 43.1621 61.2347 43.1342 61.2768 43.0643C61.3328 42.9944 61.3889 42.8406 61.431 42.603C61.459 42.4212 61.5011 42.0997 61.5291 41.6384C61.5571 41.1771 61.5852 40.6738 61.6132 40.1566C61.6412 39.6393 61.6552 39.206 61.6552 38.8565C61.6552 38.6608 61.6553 38.507 61.5852 38.3952C61.5291 38.2833 61.417 38.1575 61.2207 38.0457C60.7721 37.794 60.2114 37.5983 59.5246 37.4585C58.8377 37.3048 58.0808 37.2349 57.2397 37.2349C55.7678 37.2628 54.4922 37.5843 53.4409 38.2134C52.3896 38.8425 51.5766 39.6114 51.0159 40.52C50.4552 41.4287 50.1748 42.3234 50.1608 43.218C50.1608 43.945 50.2729 44.6579 50.5112 45.3709C50.7495 46.0978 51.1701 46.8667 51.7728 47.7054C50.4411 48.4463 49.2777 49.4668 48.2964 50.7529C47.3152 52.0391 46.7965 53.6327 46.7405 55.5339C46.7405 56.5125 46.9928 57.5609 47.5395 58.6653C48.0722 59.7697 48.9412 60.7063 50.1047 61.5031C51.2822 62.286 52.8241 62.7053 54.7305 62.7333" fill="#232323"></path>
  <path fill-rule="evenodd" clip-rule="evenodd" d="M80.0463 61.6707C79.9482 61.6707 79.8781 61.6287 79.822 61.5588C79.78 61.4889 79.78 61.3771 79.85 61.2093L85.6393 43.6372C85.9617 42.6587 86.2982 42.6587 86.6206 43.6372L92.8724 61.2093C92.9145 61.3352 92.9145 61.447 92.8865 61.5309C92.8584 61.6147 92.7603 61.6567 92.6061 61.6567H80.0323M70.8227 76.0415C70.262 77.705 69.5751 79.075 68.7481 80.1794C67.921 81.2698 66.7716 81.9408 65.2997 82.1645C65.0194 82.1924 64.697 82.2204 64.3185 82.2623C63.94 82.2903 63.6316 82.3043 63.3933 82.3043C63.2251 82.3043 63.085 82.3322 62.9728 82.4021C62.8607 82.458 62.8046 82.5559 62.8046 82.6957C62.8046 82.8914 62.9027 83.0172 63.113 83.1011C63.3092 83.185 63.6316 83.2129 64.0522 83.2129C65.6782 83.2129 67.2061 83.185 68.664 83.129C70.1078 83.0731 71.061 83.0452 71.4955 83.0312C71.9301 83.0312 72.673 83.0731 73.7384 83.129C74.8037 83.185 75.7709 83.2129 76.626 83.2129C76.9204 83.2129 77.1587 83.185 77.3409 83.1011C77.5231 83.0312 77.6072 82.8914 77.6072 82.6957C77.6072 82.4301 77.397 82.3043 76.9484 82.3043H76.2896C75.7008 82.3043 75.1401 82.1505 74.6215 81.8429C74.1028 81.5354 73.8225 81.0601 73.7944 80.417C73.7944 79.8159 73.8785 79.1589 74.0327 78.404C74.1869 77.6491 74.4252 76.8663 74.7196 76.0415L78.6726 64.5225C78.7427 64.3547 78.8268 64.2289 78.9249 64.145C79.037 64.0472 79.1632 64.0052 79.3314 64.0052H93.4752C93.6294 64.0052 93.7696 64.0332 93.8397 64.1031C93.9378 64.159 94.0079 64.2708 94.0639 64.3966L100.19 80.417C100.372 80.9343 100.4 81.3397 100.288 81.6332C100.176 81.9268 100.007 82.1085 99.7972 82.1645C99.657 82.1924 99.5589 82.2483 99.4747 82.3182C99.3906 82.3881 99.3346 82.486 99.3346 82.6118C99.3346 82.7935 99.5168 82.9054 99.8532 82.9613C100.19 83.0172 100.68 83.0452 101.311 83.0731C103.666 83.129 105.839 83.171 107.815 83.185C109.792 83.1989 111.067 83.1989 111.642 83.1989C112.007 83.1989 112.329 83.171 112.567 83.0871C112.82 83.0172 112.946 82.8774 112.96 82.6817C112.96 82.5279 112.89 82.4161 112.777 82.3602C112.665 82.3182 112.497 82.2903 112.301 82.2903C111.964 82.2903 111.572 82.2623 111.109 82.2204C110.647 82.1645 110.17 82.0666 109.68 81.8989C108.979 81.787 108.166 81.2558 107.227 80.3052C106.287 79.3686 105.208 77.4814 104.03 74.6715C102.979 72.0853 101.676 68.7722 100.078 64.7182C98.4935 60.6641 96.8675 56.5123 95.2274 52.2765C93.5873 48.0407 92.1575 44.3502 90.938 41.2188C89.7325 38.0874 88.9755 36.1582 88.6952 35.4453C88.3027 34.4667 88.0223 33.8237 87.8261 33.5161C87.6298 33.2226 87.4336 33.0688 87.2514 33.0968C87.0691 33.0688 86.8729 33.2226 86.6766 33.5581C86.4804 33.8936 86.186 34.5925 85.8075 35.627L70.8788 76.0415H70.8227Z" fill="#232323"></path>
  <path d="M119.927 64.3263C119.927 67.4856 119.927 70.2815 119.885 72.7139C119.857 75.1464 119.758 77.0615 119.604 78.4595C119.492 79.4101 119.296 80.2209 119.044 80.85C118.777 81.493 118.329 81.8844 117.698 82.0242C117.389 82.0941 117.067 82.164 116.703 82.206C116.352 82.2619 116.016 82.2898 115.721 82.2898C115.525 82.2898 115.385 82.3318 115.301 82.4156C115.217 82.4855 115.189 82.5834 115.189 82.6813C115.189 82.877 115.273 83.0028 115.441 83.0867C115.609 83.1705 115.876 83.2125 116.24 83.1985C116.745 83.1985 117.347 83.1705 118.02 83.1286C118.707 83.0867 119.38 83.0727 120.053 83.0727C120.754 83.0447 121.356 83.0168 121.833 83.0168C122.324 83.0168 122.604 83.0028 122.674 83.0028C123.165 83.0028 123.824 83.0307 124.651 83.0587C125.478 83.0867 126.543 83.1426 127.819 83.1985C129.108 83.2404 130.65 83.2824 132.486 83.3243C134.323 83.3662 136.467 83.3942 138.935 83.3942C140.168 83.4222 141.023 83.3662 141.5 83.1845C141.962 83.0028 142.299 82.5135 142.481 81.7167C142.593 81.2134 142.719 80.5005 142.845 79.5918C142.972 78.6692 143.098 77.8024 143.182 76.9637C143.266 76.1389 143.322 75.6217 143.336 75.398C143.336 75.1603 143.336 74.9367 143.28 74.741C143.238 74.5452 143.126 74.4334 142.93 74.4194C142.775 74.4194 142.649 74.4893 142.551 74.6431C142.467 74.7969 142.397 75.0485 142.341 75.398C142.117 76.726 141.78 77.7465 141.332 78.4735C140.869 79.2144 140.224 79.7456 139.383 80.0811C138.472 80.4166 137.421 80.6403 136.229 80.7102C135.024 80.7801 133.972 80.822 133.061 80.794C129.935 80.85 127.875 80.5284 126.893 79.8015C125.912 79.0885 125.422 77.6347 125.422 75.4539C125.393 74.9227 125.393 73.9302 125.393 72.4483C125.393 70.9665 125.393 69.4428 125.393 67.8771C125.393 66.3114 125.393 65.1231 125.408 64.3123V58.5808C125.408 58.441 125.436 58.3431 125.506 58.2592C125.576 58.1754 125.702 58.1334 125.87 58.1194C126.305 58.1194 127.146 58.1334 128.407 58.1614C129.669 58.1893 130.958 58.2313 132.29 58.2732C133.622 58.3152 134.617 58.3711 135.276 58.441C136.524 58.5947 137.393 58.8883 137.855 59.3357C138.318 59.783 138.612 60.2443 138.696 60.7196C138.822 61.139 138.906 61.5164 138.935 61.8659C138.963 62.2154 138.977 62.5369 138.977 62.8585C138.977 63.0262 139.005 63.166 139.075 63.2778C139.145 63.3897 139.257 63.4456 139.425 63.4456C139.649 63.4456 139.776 63.2918 139.832 63.0262C139.874 62.7606 139.902 62.495 139.888 62.2154C139.888 61.9218 139.916 61.3347 139.972 60.454C140.028 59.5733 140.084 58.7625 140.154 58.0495C140.266 56.9871 140.378 56.1623 140.49 55.5752C140.603 54.9881 140.673 54.5966 140.673 54.4149C140.673 54.2192 140.645 54.0794 140.589 54.0095C140.519 53.9256 140.448 53.8977 140.35 53.8977C140.224 53.8977 140.084 53.9815 139.93 54.1213C139.776 54.2751 139.593 54.4708 139.369 54.7364C139.089 55.058 138.682 55.2676 138.206 55.3935C137.701 55.5193 137.07 55.6032 136.285 55.6451C135.696 55.687 134.631 55.715 133.089 55.7429C131.547 55.7569 130.047 55.7709 128.575 55.7849C127.118 55.7849 126.192 55.7849 125.828 55.7849C125.66 55.7849 125.562 55.729 125.506 55.6311C125.45 55.5333 125.422 55.3655 125.436 55.1418V37.1643C125.436 36.9407 125.464 36.7729 125.534 36.6611C125.604 36.5632 125.702 36.5073 125.828 36.5073C126.15 36.5073 126.949 36.5073 128.239 36.5352C129.529 36.5492 130.846 36.5632 132.178 36.6051C133.51 36.6331 134.407 36.675 134.855 36.717C136.58 36.9127 137.743 37.2063 138.36 37.5837C138.977 37.9611 139.355 38.4085 139.523 38.9257C139.691 39.3311 139.79 39.7645 139.846 40.2258C139.902 40.6732 139.916 41.0226 139.916 41.2743C139.916 41.5399 139.958 41.7356 140.028 41.8894C140.112 42.0431 140.238 42.113 140.448 42.113C140.575 42.113 140.673 42.0292 140.757 41.8754C140.827 41.7216 140.883 41.5678 140.911 41.3861C140.981 40.9108 141.037 40.1839 141.107 39.1913C141.163 38.2128 141.205 37.4998 141.247 37.0944C141.36 36.1997 141.472 35.5148 141.584 35.0534C141.696 34.5921 141.766 34.2426 141.78 34.0329C141.78 33.8652 141.752 33.7254 141.724 33.6136C141.682 33.5017 141.612 33.4458 141.514 33.4458C141.36 33.4458 141.205 33.5017 141.051 33.5856C140.911 33.6695 140.757 33.7254 140.589 33.7673C140.322 33.8372 139.944 33.8931 139.453 33.963C138.963 34.019 138.402 34.0749 137.771 34.1028C137.323 34.1028 136.355 34.1308 134.841 34.1448C133.341 34.1448 131.673 34.1588 129.837 34.1588C128.015 34.1588 126.417 34.1588 125.029 34.1588C123.655 34.1588 122.884 34.1588 122.688 34.1588L119.997 34.0329C119.254 34.005 118.483 33.977 117.642 33.977C116.815 33.977 116.03 33.977 115.245 33.977C114.88 33.977 114.614 34.019 114.446 34.0889C114.263 34.1727 114.179 34.2985 114.179 34.4943C114.179 34.6201 114.235 34.7179 114.348 34.7878C114.446 34.8577 114.572 34.8857 114.712 34.8857C115.034 34.8857 115.413 34.8997 115.861 34.9416C116.31 34.9696 116.675 35.0255 116.955 35.0814C118.02 35.2911 118.749 35.6965 119.142 36.2836C119.534 36.8708 119.758 37.7095 119.786 38.7999C119.828 39.443 119.857 40.2118 119.871 41.1205C119.899 42.0152 119.913 43.3712 119.913 45.1745C119.913 46.9779 119.913 49.5361 119.913 52.8772V64.3263" fill="#232323"></path>
  <path d="M189.066 40.9182C189.066 45.9121 189.066 47.8246 188.136 50.0294C187.499 51.5701 186.144 53.0311 183.62 54.7577C183.222 55.0499 182.717 55.3686 182.425 55.528C182.372 55.5546 182.292 55.5811 182.213 55.5811C182.133 55.5811 182 55.528 182 55.3952C182 55.2093 182.159 55.1296 182.425 54.9436C182.797 54.7311 183.222 54.3592 183.514 54.067C185.533 52.0217 186.489 50.4013 186.489 42.4323V33.507C186.489 28.6991 186.489 27.8225 186.436 26.8396C186.383 25.8037 186.117 25.2989 185.108 25.0864C184.869 25.0333 184.338 24.9802 184.045 24.9802C183.913 24.9802 183.806 24.9271 183.806 24.7942C183.806 24.6083 183.966 24.5552 184.311 24.5552C185.692 24.5552 187.658 24.6614 187.791 24.6614C187.924 24.6614 189.889 24.5552 190.819 24.5552C191.164 24.5552 191.324 24.6083 191.324 24.7942C191.324 24.9271 191.191 24.9802 191.085 24.9802C190.872 24.9802 190.686 25.0068 190.314 25.0864C189.491 25.2458 189.225 25.7771 189.172 26.8396C189.119 27.8225 189.119 28.6991 189.119 33.507V40.9182H189.066Z" fill="#232323"></path>
  <path d="M208.776 25.3255C209.148 24.3161 209.254 24.1301 209.44 24.1301C209.626 24.1301 209.759 24.2895 210.131 25.2458C210.582 26.4146 215.443 39.165 217.329 43.8667C218.445 46.6027 219.348 47.1074 219.986 47.2933C220.437 47.4527 220.915 47.4793 221.207 47.4793C221.393 47.4793 221.526 47.5059 221.526 47.6652C221.526 47.8512 221.261 47.9043 220.915 47.9043C220.464 47.9043 218.206 47.9043 216.054 47.8512C215.47 47.8246 215.124 47.8246 215.124 47.6387C215.124 47.5059 215.204 47.4527 215.337 47.4262C215.523 47.373 215.709 47.0808 215.523 46.6027L212.654 39.0056C212.654 39.0056 212.521 38.8196 212.362 38.8196H205.721C205.562 38.8196 205.482 38.8993 205.402 39.0587L203.543 44.5308C203.277 45.3011 203.118 46.0449 203.118 46.6027C203.118 47.2137 203.755 47.5059 204.287 47.5059H204.605C204.818 47.5059 204.924 47.559 204.924 47.6918C204.924 47.8777 204.738 47.9309 204.473 47.9309C203.729 47.9309 202.401 47.8246 202.055 47.8246C201.71 47.8246 200.01 47.9309 198.576 47.9309C198.177 47.9309 197.991 47.8777 197.991 47.6918C197.991 47.559 198.124 47.5059 198.257 47.5059C198.469 47.5059 198.894 47.4793 199.16 47.4527C200.568 47.2668 201.205 46.098 201.763 44.5573L208.776 25.3255ZM211.99 37.6774C212.149 37.6774 212.149 37.5977 212.123 37.4649L209.201 29.124C209.041 28.6725 208.882 28.6725 208.749 29.124L206.04 37.4649C205.987 37.6243 206.04 37.6774 206.119 37.6774H212.017H211.99Z" fill="#232323"></path>
  <path d="M231.833 43.7073C231.886 46.2308 232.205 47.0543 233.028 47.2933C233.613 47.4527 234.303 47.4793 234.569 47.4793C234.728 47.4793 234.808 47.5324 234.808 47.6652C234.808 47.8512 234.622 47.9043 234.25 47.9043C232.497 47.9043 231.248 47.798 230.983 47.798C230.717 47.798 229.416 47.9043 228.034 47.9043C227.715 47.9043 227.53 47.8777 227.53 47.6652C227.53 47.5324 227.636 47.4793 227.769 47.4793C228.008 47.4793 228.566 47.4527 229.044 47.2933C229.814 47.0808 229.973 46.1777 229.973 43.362V25.6708C230 24.4755 230.106 24.1301 230.345 24.1301C230.584 24.1301 231.116 24.7942 231.434 25.113C231.886 25.6442 236.481 30.6116 241.236 35.7117C244.291 38.979 247.665 42.751 248.647 43.7604L248.302 28.0881C248.275 26.0692 248.063 25.4052 247.107 25.1661C246.549 25.0333 245.832 25.0067 245.593 25.0067C245.38 25.0067 245.354 24.9005 245.354 24.7942C245.354 24.6083 245.593 24.5817 245.964 24.5817C247.346 24.5817 248.833 24.688 249.179 24.688C249.524 24.688 250.533 24.5817 251.808 24.5817C252.154 24.5817 252.366 24.6083 252.366 24.7942C252.366 24.927 252.233 25.0067 252.021 25.0067C251.862 25.0067 251.649 25.0067 251.277 25.0864C250.268 25.2989 250.135 25.9896 250.135 27.8224L250.082 45.9121C250.082 47.9574 250.029 48.0902 249.79 48.0902C249.551 48.0902 249.179 47.7449 247.532 46.1246C247.186 45.8058 242.75 41.29 239.483 37.7571C235.897 33.9054 232.417 30.0006 231.434 28.885L231.833 43.6807V43.7073Z" fill="#232323"></path>
  <path d="M265.303 33.5069C265.303 28.699 265.303 27.8224 265.249 26.8396C265.196 25.777 264.931 25.2989 263.921 25.0864C263.682 25.0332 263.151 25.0067 262.859 25.0067C262.726 25.0067 262.62 24.9536 262.62 24.8207C262.62 24.6348 262.779 24.5817 263.124 24.5817C264.506 24.5817 266.471 24.6614 266.604 24.6614C266.817 24.6614 272.953 24.6614 273.67 24.6348C274.254 24.6082 274.759 24.5285 274.998 24.4754C275.158 24.4489 275.264 24.316 275.423 24.316C275.503 24.316 275.556 24.4489 275.556 24.6082C275.556 24.8207 275.397 25.1926 275.317 26.0427C275.29 26.3614 275.237 27.7161 275.158 28.088C275.131 28.2474 275.078 28.4334 274.945 28.4334C274.759 28.4334 274.706 28.274 274.706 28.0349C274.706 27.8224 274.679 27.2911 274.52 26.9192C274.308 26.4411 273.989 26.0427 272.315 25.8833C271.784 25.8301 268.437 25.8036 268.092 25.8036C267.959 25.8036 267.906 25.8833 267.906 26.1223V34.6492C267.906 34.8617 267.932 34.9679 268.092 34.9679C268.49 34.9679 272.289 34.9679 273.006 34.9148C273.75 34.8617 274.175 34.782 274.467 34.4898C274.679 34.2507 274.812 34.0913 274.919 34.0913C275.025 34.0913 275.078 34.1445 275.078 34.3304C275.078 34.5164 274.919 35.0476 274.839 36.057C274.786 36.668 274.706 37.8102 274.706 38.0227C274.706 38.2618 274.706 38.6071 274.493 38.6071C274.334 38.6071 274.281 38.4743 274.281 38.3415C274.281 38.0227 274.281 37.7305 274.148 37.3321C274.015 36.9071 273.75 36.3758 272.554 36.243C271.731 36.1367 268.676 36.0836 268.145 36.0836C267.985 36.0836 267.932 36.1898 267.932 36.2961V39.0056C267.932 40.0415 267.906 43.6276 267.932 44.2917C268.039 46.4167 268.49 46.8152 271.518 46.8152C272.315 46.8152 273.67 46.8152 274.493 46.4699C275.29 46.1245 275.662 45.5136 275.875 44.2385C275.928 43.8932 276.008 43.787 276.14 43.787C276.326 43.787 276.326 44.026 276.326 44.2385C276.326 44.4776 276.087 46.5761 275.928 47.2402C275.715 48.0371 275.476 48.0371 274.254 48.0371C269.606 48.0371 267.534 47.8511 266.631 47.8511C266.471 47.8511 264.532 47.9574 263.603 47.9574C263.257 47.9574 263.098 47.9043 263.098 47.7183C263.098 47.6121 263.151 47.5324 263.337 47.5324C263.603 47.5324 263.974 47.4793 264.267 47.3996C264.878 47.2668 265.037 46.6027 265.17 45.6995C265.329 44.3979 265.329 41.9541 265.329 39.0056V33.5601L265.303 33.5069Z" fill="#232323"></path>
  <path d="M308.734 25.3255C309.105 24.3161 309.238 24.1301 309.424 24.1301C309.61 24.1301 309.743 24.2895 310.115 25.2458C310.566 26.4146 315.428 39.165 317.314 43.8667C318.429 46.6027 319.332 47.1074 319.97 47.2933C320.421 47.4527 320.9 47.4793 321.192 47.4793C321.378 47.4793 321.511 47.5059 321.511 47.6652C321.511 47.8512 321.245 47.9043 320.9 47.9043C320.448 47.9043 318.19 47.9043 316.065 47.8512C315.481 47.8246 315.135 47.8246 315.135 47.6387C315.135 47.5059 315.215 47.4527 315.348 47.4262C315.534 47.373 315.72 47.0808 315.534 46.6027L312.665 39.0056C312.665 39.0056 312.532 38.8196 312.373 38.8196H305.732C305.573 38.8196 305.493 38.8993 305.413 39.0587L303.554 44.5308C303.288 45.3011 303.129 46.0449 303.129 46.6027C303.129 47.2137 303.766 47.5059 304.298 47.5059H304.616C304.829 47.5059 304.935 47.559 304.935 47.6918C304.935 47.8777 304.749 47.9309 304.483 47.9309C303.74 47.9309 302.412 47.8246 302.066 47.8246C301.721 47.8246 300.021 47.9309 298.586 47.9309C298.188 47.9309 298.002 47.8777 298.002 47.6918C298.002 47.559 298.135 47.5059 298.268 47.5059C298.48 47.5059 298.932 47.4793 299.171 47.4527C300.579 47.2668 301.216 46.098 301.774 44.5573L308.787 25.3786L308.734 25.3255ZM311.948 37.6774C312.107 37.6774 312.107 37.5977 312.081 37.4649L309.159 29.124C308.999 28.6725 308.84 28.6725 308.68 29.124L305.971 37.4649C305.918 37.6243 305.971 37.6774 306.051 37.6774H311.948Z" fill="#232323"></path>
  <path d="M331.791 43.7073C331.844 46.2308 332.162 47.0543 332.986 47.2933C333.57 47.4527 334.261 47.4793 334.527 47.4793C334.686 47.4793 334.766 47.5324 334.766 47.6652C334.766 47.8512 334.58 47.9043 334.208 47.9043C332.455 47.9043 331.206 47.798 330.941 47.798C330.675 47.798 329.373 47.9043 327.992 47.9043C327.673 47.9043 327.487 47.8777 327.487 47.6652C327.487 47.5324 327.594 47.4793 327.726 47.4793C327.965 47.4793 328.523 47.4527 329.001 47.2933C329.772 47.0808 329.931 46.1777 329.931 43.362V25.6708C329.958 24.4755 330.064 24.1301 330.303 24.1301C330.542 24.1301 331.073 24.7942 331.392 25.113C331.844 25.6442 336.439 30.6116 341.194 35.7117C344.249 38.979 347.622 42.751 348.605 43.7604L348.26 28.0881C348.233 26.0692 348.021 25.4052 347.064 25.1661C346.507 25.0333 345.789 25.0067 345.55 25.0067C345.338 25.0067 345.311 24.9005 345.311 24.7942C345.311 24.6083 345.55 24.5817 345.922 24.5817C347.304 24.5817 348.791 24.688 349.136 24.688C349.482 24.688 350.491 24.5817 351.766 24.5817C352.112 24.5817 352.324 24.6083 352.324 24.7942C352.324 24.927 352.191 25.0067 351.979 25.0067C351.819 25.0067 351.607 25.0067 351.235 25.0864C350.226 25.2989 350.093 25.9896 350.093 27.8224L350.04 45.9121C350.04 47.9574 349.986 48.0902 349.747 48.0902C349.508 48.0902 349.136 47.7449 347.489 46.1246C347.144 45.8058 342.708 41.29 339.441 37.7571C335.855 33.9054 332.375 30.0006 331.392 28.885L331.791 43.6807V43.7073Z" fill="#232323"></path>
  <path d="M365.26 33.507C365.26 28.6991 365.26 27.8225 365.207 26.8396C365.154 25.8037 364.888 25.299 363.879 25.0865C363.64 25.0333 363.109 24.9802 362.817 24.9802C362.684 24.9802 362.577 24.9271 362.577 24.7943C362.577 24.6083 362.737 24.5552 363.082 24.5552C364.463 24.5552 366.429 24.6614 366.562 24.6614C366.934 24.6614 368.873 24.5552 370.732 24.5552C373.787 24.5552 379.445 24.2896 383.111 28.0616C384.652 29.6554 386.113 32.232 386.113 35.8977C386.113 39.8025 384.519 42.7776 382.766 44.6105C381.437 45.9918 378.648 48.17 373.415 48.17C370.759 48.17 366.881 47.7981 366.562 47.7981C366.403 47.7981 364.463 47.9044 363.534 47.9044C363.188 47.9044 363.029 47.8512 363.029 47.6653C363.029 47.5856 363.082 47.4793 363.268 47.4793C363.534 47.4793 363.906 47.4262 364.198 47.3465C364.809 47.2137 364.968 46.5496 365.101 45.6465C365.26 44.3449 365.26 41.901 365.26 38.9525V33.5336V33.507ZM367.864 36.8275C367.864 40.0947 367.89 42.937 367.917 43.5214C367.943 44.2917 368.023 45.5402 368.262 45.859C368.66 46.4434 369.882 47.0809 373.522 47.0809C376.39 47.0809 379.047 46.0184 380.88 44.2121C382.473 42.6448 383.35 39.6697 383.35 36.8275C383.35 32.8961 381.65 30.3726 380.375 29.0444C377.479 25.9896 373.947 25.5646 370.281 25.5646C369.67 25.5646 368.528 25.6709 368.262 25.7771C367.996 25.9099 367.89 26.0427 367.89 26.3881C367.864 27.424 367.864 30.5851 367.864 32.9758V36.8009V36.8275Z" fill="#232323"></path>
  <path d="M418.175 25.3255C418.546 24.3161 418.679 24.1301 418.865 24.1301C419.051 24.1301 419.184 24.2895 419.556 25.2458C420.007 26.4146 424.868 39.165 426.754 43.8667C427.87 46.6027 428.773 47.1074 429.411 47.2933C429.862 47.4527 430.341 47.4793 430.633 47.4793C430.819 47.4793 430.951 47.5059 430.951 47.6652C430.951 47.8512 430.686 47.9043 430.341 47.9043C429.889 47.9043 427.631 47.9043 425.506 47.8512C424.922 47.8246 424.576 47.8246 424.576 47.6387C424.576 47.5059 424.656 47.4527 424.789 47.4262C424.975 47.373 425.161 47.0808 424.975 46.6027L422.106 39.0056C422.106 39.0056 421.973 38.8196 421.814 38.8196H415.173C415.013 38.8196 414.934 38.8993 414.854 39.0587L412.995 44.5308C412.729 45.3011 412.57 46.0449 412.57 46.6027C412.57 47.2137 413.234 47.5059 413.738 47.5059H414.057C414.27 47.5059 414.376 47.559 414.376 47.6918C414.376 47.8777 414.19 47.9309 413.924 47.9309C413.181 47.9309 411.852 47.8246 411.507 47.8246C411.162 47.8246 409.462 47.9309 408.027 47.9309C407.629 47.9309 407.443 47.8777 407.443 47.6918C407.443 47.559 407.576 47.5059 407.709 47.5059C407.921 47.5059 408.373 47.4793 408.612 47.4527C410.02 47.2668 410.657 46.098 411.215 44.5573L418.228 25.3786L418.175 25.3255ZM421.389 37.6774C421.548 37.6774 421.548 37.5977 421.521 37.4649L418.6 29.124C418.44 28.6725 418.281 28.6725 418.121 29.124L415.412 37.4649C415.359 37.6243 415.412 37.6774 415.492 37.6774H421.389Z" fill="#232323"></path>
  <path d="M444.844 25.3255C445.216 24.3161 445.349 24.1301 445.535 24.1301C445.721 24.1301 445.853 24.2895 446.225 25.2458C446.677 26.4146 451.538 39.165 453.424 43.8667C454.54 46.6027 455.443 47.1074 456.08 47.2933C456.532 47.4527 457.01 47.4793 457.302 47.4793C457.488 47.4793 457.621 47.5059 457.621 47.6652C457.621 47.8512 457.355 47.9043 457.01 47.9043C456.559 47.9043 454.301 47.9043 452.149 47.8512C451.565 47.8246 451.219 47.8246 451.219 47.6387C451.219 47.5059 451.299 47.4527 451.432 47.4262C451.618 47.373 451.804 47.0808 451.618 46.6027L448.749 39.0056C448.749 39.0056 448.616 38.8196 448.457 38.8196H441.816C441.656 38.8196 441.577 38.8993 441.497 39.0587L439.638 44.5308C439.372 45.3011 439.213 46.0449 439.213 46.6027C439.213 47.2137 439.85 47.5059 440.381 47.5059H440.7C440.913 47.5059 441.019 47.559 441.019 47.6918C441.019 47.8777 440.833 47.9309 440.567 47.9309C439.824 47.9309 438.495 47.8246 438.15 47.8246C437.805 47.8246 436.105 47.9309 434.67 47.9309C434.272 47.9309 434.086 47.8777 434.086 47.6918C434.086 47.559 434.219 47.5059 434.352 47.5059C434.564 47.5059 434.989 47.4793 435.255 47.4527C436.663 47.2668 437.3 46.098 437.858 44.5573L444.871 25.3786L444.844 25.3255ZM448.058 37.6774C448.218 37.6774 448.218 37.5977 448.191 37.4649L445.269 29.124C445.11 28.6725 444.95 28.6725 444.791 29.124L442.082 37.4649C442.028 37.6243 442.082 37.6774 442.161 37.6774H448.058Z" fill="#232323"></path>
  <path d="M471.487 38.9525C471.487 41.9276 471.487 44.3448 471.646 45.6464C471.726 46.5496 471.912 47.2137 472.842 47.3465C473.267 47.3996 473.957 47.4793 474.223 47.4793C474.409 47.4793 474.462 47.5855 474.462 47.6652C474.462 47.8246 474.303 47.9043 473.957 47.9043C472.257 47.9043 470.318 47.8246 470.159 47.8246C470 47.8246 468.06 47.9043 467.131 47.9043C466.785 47.9043 466.626 47.8512 466.626 47.6652C466.626 47.5855 466.679 47.4793 466.865 47.4793C467.131 47.4793 467.503 47.4262 467.795 47.3465C468.406 47.2137 468.565 46.5496 468.698 45.6464C468.857 44.3448 468.857 41.901 468.857 38.9525V25.8833L464.288 25.9364C462.376 25.963 461.632 26.1755 461.154 26.9193C460.809 27.4505 460.729 27.663 460.623 27.8756C460.543 28.1146 460.437 28.1943 460.304 28.1943C460.198 28.1943 460.145 28.0881 460.145 27.9287C460.145 27.6099 460.755 24.9536 460.835 24.7145C460.888 24.5286 461.021 24.1301 461.154 24.1301C461.366 24.1301 461.685 24.4489 462.509 24.502C463.412 24.5817 464.581 24.6614 464.952 24.6614H476.534C478.5 24.6614 479.35 24.3426 479.589 24.3426C479.748 24.3426 479.748 24.5286 479.748 24.7145C479.748 25.6442 479.669 27.7693 479.669 28.1146C479.669 28.3803 479.562 28.5131 479.456 28.5131C479.297 28.5131 479.244 28.4068 479.217 27.9818V27.6365C479.058 26.7068 478.34 25.9896 475.392 25.9364L471.514 25.8833V38.9259L471.487 38.9525Z" fill="#232323"></path>
  <path d="M499.033 24.1301C505.966 24.1301 511.173 28.5131 511.173 35.7117C511.173 42.9104 506.285 48.3293 498.847 48.3293C490.4 48.3293 486.867 41.7416 486.867 36.1899C486.867 31.196 490.506 24.1301 499.033 24.1301ZM499.671 47.1605C502.46 47.1605 508.198 45.5667 508.198 36.5618C508.198 29.1506 503.682 25.1661 498.821 25.1661C493.667 25.1661 489.816 28.5662 489.816 35.3133C489.816 42.5119 494.146 47.134 499.697 47.134" fill="#232323"></path>
  <path d="M521.745 47.5059C521.32 47.2933 521.293 47.1605 521.293 46.3371C521.293 44.7964 521.426 43.5479 521.453 43.0698C521.479 42.7245 521.532 42.5916 521.692 42.5916C521.878 42.5916 521.904 42.6979 521.904 42.937C521.904 43.2026 521.904 43.6542 521.984 44.0792C522.436 46.3636 524.481 47.2402 526.553 47.2402C529.528 47.2402 530.962 45.1152 530.962 43.1229C530.962 40.9978 530.059 39.7494 527.403 37.5712L526.022 36.4289C522.754 33.7461 522.011 31.8335 522.011 29.735C522.011 26.388 524.481 24.1301 528.386 24.1301C529.581 24.1301 530.484 24.2629 531.255 24.4489C531.839 24.5817 532.078 24.6083 532.344 24.6083C532.609 24.6083 532.662 24.6614 532.662 24.8208C532.662 24.9802 532.53 25.9896 532.53 28.0881C532.53 28.5928 532.476 28.8053 532.317 28.8053C532.131 28.8053 532.105 28.6459 532.078 28.4068C532.051 28.0349 531.866 27.2115 531.68 26.8661C531.494 26.5208 530.67 25.2192 527.828 25.2192C525.703 25.2192 524.029 26.5474 524.029 28.8053C524.029 30.5585 524.906 31.621 527.801 33.9851L528.678 34.6758C532.317 37.5446 533.194 39.4572 533.194 41.9276C533.194 43.2026 532.716 45.5402 530.564 47.0543C529.236 47.984 527.562 48.3559 525.889 48.3559C524.428 48.3559 523.02 48.1434 521.745 47.5324" fill="#232323"></path>
  <path d="M186.463 89.0775C186.463 84.2695 186.463 83.393 186.41 82.4101C186.356 81.3476 186.091 80.8694 185.081 80.6569C184.842 80.6038 184.311 80.5772 184.019 80.5772C183.886 80.5772 183.78 80.5241 183.78 80.3913C183.78 80.2054 183.939 80.1522 184.284 80.1522C185.666 80.1522 187.631 80.2319 187.764 80.2319C187.977 80.2319 194.113 80.2319 194.83 80.2054C195.414 80.1788 195.919 80.0991 196.158 80.046C196.318 80.0194 196.424 79.8866 196.583 79.8866C196.663 79.8866 196.716 80.0194 196.716 80.1788C196.716 80.3913 196.557 80.7632 196.477 81.6132C196.45 81.932 196.397 83.2867 196.318 83.6586C196.291 83.818 196.238 84.0039 196.105 84.0039C195.919 84.0039 195.866 83.8445 195.866 83.6055C195.866 83.393 195.839 82.8617 195.68 82.4898C195.468 82.0117 195.149 81.6132 193.475 81.4538C192.944 81.4007 189.597 81.3741 189.252 81.3741C189.119 81.3741 189.066 81.4538 189.066 81.6929V90.2197C189.066 90.4322 189.092 90.5385 189.252 90.5385C189.65 90.5385 193.449 90.5385 194.166 90.4854C194.91 90.4322 195.335 90.3525 195.627 90.0603C195.839 89.8213 195.972 89.6619 196.079 89.6619C196.185 89.6619 196.238 89.715 196.238 89.901C196.238 90.0869 196.079 90.6182 195.999 91.6276C195.946 92.2385 195.866 93.3808 195.866 93.5933C195.866 93.8323 195.866 94.1777 195.654 94.1777C195.494 94.1777 195.441 94.0448 195.441 93.912C195.441 93.5933 195.441 93.3011 195.308 92.9026C195.175 92.4776 194.91 91.9463 193.714 91.8135C192.891 91.7073 189.836 91.6541 189.305 91.6541C189.146 91.6541 189.092 91.7604 189.092 91.8667V94.5761C189.092 95.6121 189.066 99.1981 189.092 99.8622C189.199 101.987 189.65 102.386 192.678 102.386C193.475 102.386 194.83 102.386 195.654 102.04C196.45 101.695 196.822 101.084 197.035 99.8091C197.088 99.4638 197.168 99.3575 197.3 99.3575C197.486 99.3575 197.486 99.5966 197.486 99.8091C197.486 100.048 197.247 102.147 197.088 102.811C196.875 103.608 196.636 103.608 195.414 103.608C190.766 103.608 188.694 103.422 187.791 103.422C187.631 103.422 185.692 103.528 184.763 103.528C184.417 103.528 184.258 103.475 184.258 103.289C184.258 103.183 184.311 103.103 184.497 103.103C184.763 103.103 185.134 103.05 185.427 102.97C186.038 102.837 186.197 102.173 186.33 101.27C186.489 99.9685 186.489 97.5246 186.489 94.5761V89.1306L186.463 89.0775Z" fill="#232323"></path>
  <path d="M204.526 89.0775C204.526 84.2695 204.526 83.3929 204.473 82.4101C204.419 81.3741 204.154 80.8694 203.144 80.6569C202.905 80.6038 202.374 80.5772 202.082 80.5772C201.949 80.5772 201.843 80.5241 201.843 80.3913C201.843 80.2053 202.002 80.1522 202.348 80.1522C203.729 80.1522 205.668 80.2585 205.827 80.2585C206.173 80.2585 208.51 80.1522 209.466 80.1522C211.406 80.1522 213.478 80.3382 215.124 81.507C215.895 82.0648 217.25 83.5789 217.25 85.704C217.25 87.9884 216.293 90.2728 213.504 92.8229C216.028 96.0637 218.126 98.7997 219.932 100.712C221.606 102.465 222.934 102.811 223.704 102.944C224.289 103.023 224.714 103.023 224.9 103.023C225.059 103.023 225.165 103.103 225.165 103.209C225.165 103.395 224.979 103.448 224.422 103.448H222.243C220.517 103.448 219.746 103.289 218.95 102.864C217.621 102.147 216.532 100.633 214.779 98.3215C213.478 96.6215 212.043 94.5495 211.406 93.7526C211.273 93.6198 211.193 93.5667 211.007 93.5667L207.209 93.5136C207.049 93.5136 206.996 93.5933 206.996 93.7526V94.4964C206.996 97.4715 206.996 99.8888 207.155 101.19C207.235 102.094 207.421 102.758 208.351 102.89C208.776 102.944 209.466 103.023 209.732 103.023C209.918 103.023 209.971 103.103 209.971 103.209C209.971 103.369 209.812 103.448 209.466 103.448C207.766 103.448 205.827 103.342 205.668 103.342C205.641 103.342 203.702 103.448 202.773 103.448C202.427 103.448 202.268 103.395 202.268 103.209C202.268 103.103 202.321 103.023 202.507 103.023C202.773 103.023 203.144 102.97 203.437 102.89C204.048 102.758 204.207 102.094 204.34 101.19C204.499 99.8888 204.499 97.4449 204.499 94.4964V89.0509L204.526 89.0775ZM206.996 91.7604C206.996 91.9198 207.049 92.0526 207.209 92.1323C207.66 92.3979 209.095 92.637 210.449 92.637C211.193 92.637 212.043 92.5307 212.76 92.0526C213.849 91.3088 214.646 89.6353 214.646 87.2978C214.646 83.4461 212.601 81.1351 209.307 81.1351C208.377 81.1351 207.554 81.2413 207.235 81.321C207.076 81.3741 206.996 81.507 206.996 81.6929V91.787V91.7604Z" fill="#232323"></path>
  <path d="M227.051 89.0775C227.051 84.2695 227.051 83.3929 226.998 82.4101C226.945 81.3476 226.68 80.8694 225.67 80.6569C225.431 80.6038 224.9 80.5772 224.608 80.5772C224.475 80.5772 224.368 80.5241 224.368 80.3913C224.368 80.2053 224.528 80.1522 224.873 80.1522C226.254 80.1522 228.087 80.2319 228.273 80.2319C228.539 80.2319 230.345 80.1522 231.275 80.1522C231.62 80.1522 231.78 80.2053 231.78 80.3913C231.78 80.5241 231.647 80.5772 231.541 80.5772C231.328 80.5772 231.142 80.6038 230.77 80.6569C229.947 80.8163 229.681 81.3476 229.628 82.4101C229.575 83.3929 229.575 84.2695 229.575 89.0775V90.9369H229.708C230.239 90.3525 235.817 84.668 236.933 83.4726C237.81 82.5695 238.606 81.7726 238.606 81.2413C238.606 80.8694 238.447 80.6835 238.208 80.6038C238.049 80.5507 237.916 80.471 237.916 80.3647C237.916 80.2053 238.075 80.1522 238.288 80.1522C238.899 80.1522 239.855 80.2319 240.599 80.2319C240.758 80.2319 242.803 80.1522 243.574 80.1522C243.919 80.1522 244.025 80.2053 244.025 80.3647C244.025 80.5241 243.972 80.5772 243.733 80.5772C243.282 80.5772 242.618 80.7366 242.007 81.0022C240.732 81.5601 240.067 82.3304 238.66 83.6586C237.889 84.4024 232.523 89.6353 231.859 90.4057C232.656 91.3088 239.085 97.9496 240.36 99.1184C242.963 101.536 243.468 102.014 244.955 102.625C245.752 102.97 246.655 103.023 246.868 103.023C247.08 103.023 247.266 103.076 247.266 103.209C247.266 103.369 247.107 103.448 246.575 103.448H245.008C244.132 103.448 243.547 103.448 242.883 103.395C241.236 103.236 240.466 102.572 239.138 101.509C237.756 100.367 231.195 93.3011 229.734 91.4682H229.575V94.4964C229.575 97.4715 229.575 99.8888 229.734 101.19C229.814 102.094 230 102.758 230.93 102.89C231.355 102.944 231.859 103.023 232.125 103.023C232.311 103.023 232.364 103.103 232.364 103.209C232.364 103.369 232.205 103.448 231.859 103.448C230.345 103.448 228.566 103.342 228.3 103.342C228.034 103.342 226.254 103.448 225.325 103.448C224.979 103.448 224.82 103.395 224.82 103.209C224.82 103.103 224.873 103.023 225.059 103.023C225.325 103.023 225.697 102.97 225.989 102.89C226.6 102.758 226.759 102.094 226.892 101.19C227.051 99.8888 227.051 97.4449 227.051 94.4964V89.0509V89.0775Z" fill="#232323"></path>
  <path d="M249.497 89.0775C249.497 84.2695 249.497 83.3929 249.444 82.4101C249.391 81.3476 249.126 80.8694 248.116 80.6569C247.877 80.6038 247.346 80.5772 247.054 80.5772C246.921 80.5772 246.815 80.5241 246.815 80.3913C246.815 80.2053 246.974 80.1522 247.319 80.1522C248.701 80.1522 250.533 80.2319 250.719 80.2319C251.012 80.2319 252.791 80.1522 253.721 80.1522C254.066 80.1522 254.226 80.2053 254.226 80.3913C254.226 80.5241 254.093 80.5772 253.987 80.5772C253.774 80.5772 253.588 80.6038 253.216 80.6569C252.393 80.8163 252.127 81.3476 252.074 82.4101C252.021 83.3929 252.021 84.2695 252.021 89.0775V90.9369H252.154C252.685 90.3525 258.263 84.668 259.379 83.4726C260.256 82.5695 261.052 81.7726 261.052 81.2413C261.052 80.8694 260.893 80.6835 260.654 80.6038C260.495 80.5507 260.362 80.471 260.362 80.3647C260.362 80.2053 260.521 80.1522 260.734 80.1522C261.345 80.1522 262.301 80.2319 263.045 80.2319C263.204 80.2319 265.249 80.1522 266.02 80.1522C266.365 80.1522 266.471 80.2053 266.471 80.3647C266.471 80.5241 266.418 80.5772 266.179 80.5772C265.728 80.5772 265.064 80.7366 264.453 81.0022C263.178 81.5601 262.513 82.3304 261.106 83.6586C260.335 84.4024 254.969 89.6353 254.305 90.4057C255.102 91.3088 261.531 97.9496 262.806 99.1184C265.409 101.536 265.914 102.014 267.401 102.625C268.198 102.97 269.101 103.023 269.314 103.023C269.526 103.023 269.712 103.076 269.712 103.209C269.712 103.369 269.553 103.448 269.021 103.448H267.454C266.578 103.448 265.993 103.448 265.329 103.395C263.682 103.236 262.912 102.572 261.584 101.509C260.202 100.367 253.668 93.3011 252.18 91.4682H252.021V94.4964C252.021 97.4715 252.021 99.8888 252.18 101.19C252.26 102.094 252.446 102.758 253.376 102.89C253.801 102.944 254.305 103.023 254.571 103.023C254.757 103.023 254.81 103.103 254.81 103.209C254.81 103.369 254.651 103.448 254.305 103.448C252.791 103.448 251.012 103.342 250.746 103.342C250.48 103.342 248.701 103.448 247.771 103.448C247.425 103.448 247.266 103.395 247.266 103.209C247.266 103.103 247.319 103.023 247.505 103.023C247.771 103.023 248.143 102.97 248.435 102.89C249.046 102.758 249.205 102.094 249.338 101.19C249.497 99.8888 249.497 97.4449 249.497 94.4964V89.0509V89.0775Z" fill="#232323"></path>
  <path d="M280.656 79.7006C287.589 79.7006 292.796 84.0835 292.796 91.2822C292.796 98.4808 287.908 103.9 280.47 103.9C272.023 103.9 268.49 97.312 268.49 91.7603C268.49 86.7664 272.129 79.7006 280.656 79.7006ZM281.294 102.731C284.083 102.731 289.821 101.137 289.821 92.1322C289.821 84.721 285.305 80.7365 280.444 80.7365C275.29 80.7365 271.439 84.1366 271.439 90.8837C271.439 98.0824 275.769 102.704 281.32 102.704" fill="#232323"></path>
  <path d="M308.76 89.0775C308.76 84.2695 308.76 83.393 308.707 82.4101C308.654 81.3476 308.388 80.8694 307.379 80.6569C307.14 80.6038 306.609 80.5772 306.316 80.5772C306.184 80.5772 306.077 80.5241 306.077 80.3913C306.077 80.2054 306.237 80.1522 306.582 80.1522C307.963 80.1522 309.902 80.2319 310.062 80.2319C310.673 80.2319 316.942 80.2319 317.659 80.2054C318.243 80.1788 318.748 80.1788 319.014 80.0725C319.2 80.0194 319.332 79.8866 319.439 79.8866C319.545 79.8866 319.625 80.0194 319.625 80.1788C319.625 80.3913 319.465 80.7632 319.386 81.6132C319.359 81.932 319.306 83.2867 319.226 83.6586C319.2 83.818 319.146 84.0039 318.987 84.0039C318.828 84.0039 318.775 83.8445 318.775 83.632C318.775 83.393 318.695 82.8617 318.509 82.4632C318.323 82.0648 317.606 81.507 316.41 81.4804L311.656 81.3741C311.47 81.3741 311.39 81.4804 311.39 81.7195V90.2463C311.39 90.4322 311.417 90.5119 311.602 90.5119H315.56C316.092 90.4854 316.517 90.4854 316.942 90.4588C317.685 90.4057 318.084 90.2994 318.35 89.901C318.482 89.7416 318.562 89.5822 318.695 89.5822C318.828 89.5822 318.854 89.6885 318.854 89.8213C318.854 90.0072 318.695 90.5385 318.615 91.5479C318.562 92.1589 318.482 93.4073 318.482 93.6198C318.482 93.8855 318.482 94.2042 318.27 94.2042C318.11 94.2042 318.057 94.0714 318.057 93.9386C318.031 93.6198 318.004 93.1948 317.871 92.8229C317.712 92.3979 317.234 91.8401 316.278 91.7073C315.507 91.601 312.134 91.601 311.602 91.601C311.443 91.601 311.39 91.6541 311.39 91.8667V94.4964C311.39 97.4715 311.39 99.8888 311.549 101.19C311.629 102.094 311.815 102.758 312.745 102.89C313.17 102.944 313.86 103.023 314.126 103.023C314.312 103.023 314.365 103.103 314.365 103.209C314.365 103.369 314.206 103.448 313.86 103.448C312.16 103.448 310.221 103.342 310.062 103.342C309.902 103.342 307.963 103.448 307.034 103.448C306.688 103.448 306.529 103.395 306.529 103.209C306.529 103.103 306.582 103.023 306.768 103.023C307.034 103.023 307.405 102.97 307.698 102.89C308.309 102.758 308.468 102.094 308.601 101.19C308.76 99.8888 308.76 97.445 308.76 94.4964V89.0509V89.0775Z" fill="#232323"></path>
  <path d="M334.898 79.7006C341.832 79.7006 347.038 84.0835 347.038 91.2822C347.038 98.4808 342.15 103.9 334.713 103.9C326.265 103.9 322.732 97.312 322.732 91.7603C322.732 86.7664 326.372 79.7006 334.898 79.7006ZM335.536 102.731C338.325 102.731 344.063 101.137 344.063 92.1322C344.063 84.721 339.547 80.7365 334.686 80.7365C329.533 80.7365 325.681 84.1366 325.681 90.8837C325.681 98.0824 330.011 102.704 335.563 102.704" fill="#232323"></path>
  <path d="M351.952 89.0775C351.952 84.2695 351.952 83.3929 351.899 82.4101C351.846 81.3476 351.58 80.8694 350.571 80.6569C350.332 80.6038 349.8 80.5772 349.508 80.5772C349.375 80.5772 349.269 80.5241 349.269 80.3913C349.269 80.2053 349.429 80.1522 349.774 80.1522C351.155 80.1522 353.041 80.2319 353.333 80.2319C353.626 80.2319 355.458 80.1522 356.388 80.1522C356.734 80.1522 356.893 80.2053 356.893 80.3913C356.893 80.5241 356.76 80.5772 356.654 80.5772C356.441 80.5772 356.255 80.6038 355.883 80.6569C355.06 80.7897 354.794 81.3476 354.741 82.4101C354.688 83.3929 354.688 84.2695 354.688 89.0775V93.4073C354.688 97.8434 355.671 99.756 356.999 101.031C358.513 102.465 359.895 102.731 361.674 102.731C363.56 102.731 365.42 101.828 366.509 100.5C367.917 98.7465 368.289 96.1168 368.289 92.9292V89.0775C368.289 84.2695 368.289 83.3929 368.235 82.4101C368.182 81.3476 367.917 80.8694 366.907 80.6569C366.668 80.6038 366.137 80.5772 365.845 80.5772C365.712 80.5772 365.606 80.5241 365.606 80.3913C365.606 80.2053 365.765 80.1522 366.11 80.1522C367.492 80.1522 369.192 80.2319 369.378 80.2319C369.59 80.2319 371.051 80.1522 371.981 80.1522C372.326 80.1522 372.486 80.2053 372.486 80.3913C372.486 80.5241 372.353 80.5772 372.247 80.5772C372.034 80.5772 371.848 80.5772 371.476 80.6569C370.653 80.8163 370.387 81.3476 370.334 82.4101C370.281 83.3929 370.281 84.2695 370.281 89.0775V92.3714C370.281 95.6918 369.909 99.4106 367.439 101.589C365.207 103.555 362.896 103.873 361.09 103.873C360.027 103.873 356.919 103.74 354.741 101.669C353.227 100.208 352.058 98.0559 352.058 93.5401V89.0244L351.952 89.0775Z" fill="#232323"></path>
  <path d="M379.419 99.2777C379.472 101.801 379.79 102.625 380.614 102.864C381.198 103.023 381.889 103.05 382.155 103.05C382.314 103.05 382.394 103.103 382.394 103.236C382.394 103.422 382.208 103.475 381.836 103.475C380.083 103.475 378.834 103.368 378.569 103.368C378.303 103.368 377.001 103.475 375.62 103.475C375.301 103.475 375.115 103.448 375.115 103.236C375.115 103.103 375.222 103.05 375.354 103.05C375.594 103.05 376.151 103.023 376.629 102.864C377.4 102.651 377.559 101.748 377.559 98.9324V81.2412C377.586 80.0459 377.692 79.7006 377.931 79.7006C378.17 79.7006 378.701 80.3646 379.02 80.6834C379.472 81.2147 384.067 86.182 388.822 91.2822C391.877 94.5495 395.25 98.3215 396.233 99.3309L395.888 83.6585C395.861 81.6397 395.649 80.9756 394.693 80.7365C394.135 80.6037 393.417 80.5772 393.178 80.5772C392.966 80.5772 392.939 80.4709 392.939 80.3646C392.939 80.1787 393.178 80.1521 393.55 80.1521C394.932 80.1521 396.419 80.2584 396.764 80.2584C397.11 80.2584 398.119 80.1521 399.394 80.1521C399.74 80.1521 399.952 80.1787 399.952 80.3646C399.952 80.4975 399.819 80.5772 399.607 80.5772C399.447 80.5772 399.235 80.5772 398.863 80.6568C397.854 80.8693 397.721 81.56 397.721 83.3929L397.668 101.482C397.668 103.528 397.615 103.661 397.375 103.661C397.136 103.661 396.764 103.315 395.118 101.695C394.772 101.376 390.336 96.8605 387.069 93.3275C383.483 89.4759 380.003 85.5711 379.02 84.4554L379.419 99.2512V99.2777Z" fill="#232323"></path>
  <path d="M407.044 89.0775C407.044 84.2695 407.044 83.3929 406.991 82.4101C406.938 81.3741 406.673 80.8694 405.663 80.6569C405.424 80.6038 404.893 80.5506 404.601 80.5506C404.468 80.5506 404.362 80.4975 404.362 80.3647C404.362 80.1788 404.521 80.1256 404.866 80.1256C406.248 80.1256 408.213 80.2319 408.346 80.2319C408.718 80.2319 410.657 80.1256 412.517 80.1256C415.571 80.1256 421.229 79.86 424.895 83.632C426.436 85.2258 427.897 87.8024 427.897 91.4682C427.897 95.373 426.303 98.3481 424.55 100.181C423.222 101.562 420.432 103.74 415.199 103.74C412.543 103.74 408.665 103.369 408.346 103.369C408.187 103.369 406.248 103.475 405.318 103.475C404.973 103.475 404.813 103.422 404.813 103.236C404.813 103.156 404.866 103.05 405.052 103.05C405.318 103.05 405.69 102.997 405.982 102.917C406.593 102.784 406.752 102.12 406.885 101.217C407.044 99.9153 407.044 97.4715 407.044 94.523V89.104V89.0775ZM409.648 92.3979C409.648 95.6652 409.674 98.5074 409.701 99.0918C409.727 99.8622 409.807 101.111 410.046 101.429C410.445 102.014 411.666 102.651 415.306 102.651C418.175 102.651 420.831 101.589 422.664 99.7825C424.257 98.2153 425.134 95.2402 425.134 92.3979C425.134 88.4665 423.434 85.943 422.159 84.6148C419.264 81.5601 415.731 81.135 412.065 81.135C411.454 81.135 410.312 81.2413 410.046 81.3475C409.78 81.4804 409.674 81.6132 409.674 81.9585C409.648 82.9945 409.648 86.1555 409.648 88.5462V92.3713V92.3979Z" fill="#232323"></path>
  <path d="M438.735 80.8959C439.106 79.8865 439.239 79.7006 439.425 79.7006C439.611 79.7006 439.744 79.8599 440.116 80.8162C440.567 81.985 445.428 94.7354 447.314 99.4371C448.43 102.173 449.333 102.678 449.971 102.864C450.422 103.023 450.901 103.05 451.193 103.05C451.379 103.05 451.511 103.076 451.511 103.236C451.511 103.422 451.246 103.475 450.901 103.475C450.449 103.475 448.191 103.475 446.066 103.422C445.482 103.395 445.136 103.395 445.136 103.209C445.136 103.076 445.216 103.023 445.349 102.997C445.535 102.943 445.721 102.651 445.535 102.173L442.666 94.576C442.666 94.576 442.533 94.3901 442.374 94.3901H435.733C435.573 94.3901 435.494 94.4698 435.414 94.6292L433.555 100.101C433.289 100.872 433.13 101.615 433.13 102.173C433.13 102.784 433.767 103.076 434.298 103.076H434.617C434.83 103.076 434.936 103.129 434.936 103.262C434.936 103.448 434.75 103.501 434.484 103.501C433.741 103.501 432.412 103.395 432.067 103.395C431.722 103.395 430.022 103.501 428.587 103.501C428.189 103.501 428.003 103.448 428.003 103.262C428.003 103.129 428.136 103.076 428.269 103.076C428.481 103.076 428.906 103.05 429.172 103.023C430.58 102.837 431.217 101.668 431.775 100.128L438.788 80.949L438.735 80.8959ZM441.949 93.2479C442.108 93.2479 442.108 93.1682 442.081 93.0354L439.16 84.6945C439 84.2429 438.841 84.2429 438.681 84.6945L435.972 93.0354C435.919 93.1947 435.972 93.2479 436.052 93.2479H441.949Z" fill="#232323"></path>
  <path d="M459.56 94.5229C459.56 97.498 459.56 99.9153 459.72 101.217C459.799 102.12 459.985 102.784 460.915 102.917C461.34 102.97 462.031 103.05 462.296 103.05C462.482 103.05 462.535 103.156 462.535 103.236C462.535 103.395 462.376 103.475 462.031 103.475C460.33 103.475 458.391 103.395 458.232 103.395C458.073 103.395 456.133 103.475 455.204 103.475C454.858 103.475 454.699 103.422 454.699 103.236C454.699 103.156 454.752 103.05 454.938 103.05C455.204 103.05 455.576 102.997 455.868 102.917C456.479 102.784 456.638 102.12 456.771 101.217C456.93 99.9153 456.93 97.4715 456.93 94.5229V81.4804L452.361 81.5335C450.449 81.56 449.705 81.7725 449.227 82.5163C448.882 83.0476 448.802 83.2601 448.696 83.4726C448.616 83.7117 448.51 83.7914 448.377 83.7914C448.271 83.7914 448.218 83.6851 448.218 83.5257C448.218 83.207 448.829 80.5506 448.908 80.3116C448.961 80.1256 449.094 79.7272 449.227 79.7272C449.44 79.7272 449.758 80.0459 450.582 80.0991C451.485 80.1787 452.654 80.2584 453.026 80.2584H464.607C466.573 80.2584 467.423 79.9397 467.662 79.9397C467.821 79.9397 467.821 80.1256 467.821 80.3116C467.821 81.2413 467.742 83.3663 467.742 83.7117C467.742 83.9773 467.635 84.1101 467.529 84.1101C467.37 84.1101 467.317 84.0039 467.29 83.5789V83.2335C467.131 82.3038 466.413 81.5866 463.465 81.5335L459.587 81.4804V94.5229H459.56Z" fill="#232323"></path>
  <path d="M476.136 94.523C476.136 97.4981 476.136 99.9153 476.295 101.217C476.375 102.12 476.561 102.784 477.49 102.917C477.915 102.97 478.606 103.05 478.872 103.05C479.058 103.05 479.111 103.156 479.111 103.236C479.111 103.395 478.951 103.475 478.606 103.475C476.906 103.475 474.967 103.395 474.808 103.395C474.648 103.395 472.709 103.475 471.779 103.475C471.434 103.475 471.275 103.422 471.275 103.236C471.275 103.156 471.328 103.05 471.514 103.05C471.779 103.05 472.151 102.997 472.443 102.917C473.054 102.784 473.214 102.12 473.347 101.217C473.506 99.9153 473.506 97.4715 473.506 94.523V89.1041C473.506 84.2961 473.506 83.4195 473.453 82.4367C473.4 81.3741 473.081 80.8694 472.39 80.71C472.045 80.6038 471.646 80.5772 471.434 80.5772C471.301 80.5772 471.195 80.5241 471.195 80.3913C471.195 80.2053 471.354 80.1522 471.7 80.1522C472.709 80.1522 474.648 80.2585 474.808 80.2585C474.967 80.2585 476.906 80.1522 477.836 80.1522C478.181 80.1522 478.34 80.2053 478.34 80.3913C478.34 80.5241 478.208 80.5772 478.101 80.5772C477.889 80.5772 477.703 80.6038 477.331 80.6569C476.508 80.8163 476.242 81.3476 476.189 82.4101C476.136 83.3929 476.136 84.2695 476.136 89.0775V94.4964V94.523Z" fill="#232323"></path>
  <path d="M494.225 79.7006C501.158 79.7006 506.365 84.0835 506.365 91.2822C506.365 98.4808 501.477 103.9 494.039 103.9C485.592 103.9 482.059 97.312 482.059 91.7603C482.059 86.7664 485.698 79.7006 494.225 79.7006ZM494.863 102.731C497.652 102.731 503.39 101.137 503.39 92.1322C503.39 84.721 498.874 80.7365 494.013 80.7365C488.86 80.7365 485.008 84.1366 485.008 90.8837C485.008 98.0824 489.338 102.704 494.889 102.704" fill="#232323"></path>
  <path d="M513.749 99.2777C513.802 101.801 514.121 102.625 514.945 102.864C515.529 103.023 516.22 103.05 516.485 103.05C516.645 103.05 516.724 103.103 516.724 103.236C516.724 103.422 516.538 103.475 516.167 103.475C514.413 103.475 513.165 103.368 512.899 103.368C512.634 103.368 511.332 103.475 509.951 103.475C509.632 103.475 509.446 103.448 509.446 103.236C509.446 103.103 509.552 103.05 509.685 103.05C509.924 103.05 510.482 103.023 510.96 102.864C511.73 102.651 511.89 101.748 511.89 98.9324V81.2412C511.916 80.0459 512.023 79.7006 512.262 79.7006C512.501 79.7006 513.032 80.3646 513.351 80.6834C513.802 81.2147 518.398 86.182 523.153 91.2822C526.207 94.5495 529.581 98.3215 530.564 99.3309L530.219 83.6585C530.192 81.6397 529.98 80.9756 529.023 80.7365C528.465 80.6037 527.748 80.5772 527.509 80.5772C527.297 80.5772 527.27 80.4709 527.27 80.3646C527.27 80.1787 527.509 80.1521 527.881 80.1521C529.262 80.1521 530.75 80.2584 531.095 80.2584C531.44 80.2584 532.45 80.1521 533.725 80.1521C534.07 80.1521 534.283 80.1787 534.283 80.3646C534.283 80.4975 534.15 80.5772 533.937 80.5772C533.778 80.5772 533.566 80.5772 533.194 80.6568C532.184 80.8693 532.051 81.56 532.051 83.3929L531.998 101.482C531.998 103.528 531.945 103.661 531.706 103.661C531.467 103.661 531.095 103.315 529.448 101.695C529.103 101.376 524.667 96.8605 521.4 93.3275C517.813 89.4759 514.334 85.5711 513.351 84.4554L513.749 99.2512V99.2777Z" fill="#232323"></path>
</svg>
