<?xml version="1.0" encoding="UTF-8"?>
<svg xmlns="http://www.w3.org/2000/svg" width="464" height="127" viewBox="0 0 464 127" fill="none">
  <path fill-rule="evenodd" clip-rule="evenodd" d="M158.712 17.9357H14.9357V108.23H158.712V17.9357ZM160.648 16V110.165H13V16H160.648Z" fill="#232323"></path>
  <path d="M41.4278 52.8784C41.4278 49.5513 41.4278 46.9931 41.4278 45.1897C41.4278 43.3864 41.4418 42.0444 41.4559 41.1357C41.4699 40.241 41.5119 39.4582 41.554 38.8291C41.596 37.6968 41.8063 36.844 42.1567 36.2429C42.5072 35.6558 43.124 35.2783 43.993 35.1246C44.3715 35.0547 44.6939 35.0127 44.9462 34.9848C45.1986 34.9568 45.4228 34.9289 45.6471 34.9289C45.7873 34.9289 45.8994 34.9009 46.0116 34.831C46.1237 34.7611 46.1798 34.6633 46.1798 34.5374C46.1798 34.3417 46.0957 34.2159 45.9275 34.132C45.7452 34.0482 45.4789 34.0202 45.1285 34.0202C44.4276 34.0202 43.6005 34.0342 42.6474 34.0761C41.6942 34.1041 40.8251 34.132 40.0541 34.16C39.2831 34.188 38.8205 34.2019 38.6804 34.2159C38.414 34.2159 37.5029 34.174 35.9469 34.1181C34.405 34.0621 32.835 34.0342 31.251 34.0202C30.8866 34.0202 30.6202 34.0482 30.452 34.132C30.2838 34.2159 30.1997 34.3417 30.1997 34.5374C30.1997 34.6633 30.2558 34.7611 30.3679 34.831C30.466 34.9009 30.5922 34.9289 30.7324 34.9289C31.0548 34.9289 31.4332 34.9428 31.8678 34.9848C32.3163 35.0127 32.6808 35.0687 32.9612 35.1246C34.0265 35.3343 34.7554 35.7397 35.1479 36.3128C35.5404 36.9 35.7507 37.7387 35.7927 38.8291C35.8348 39.4722 35.8628 40.241 35.8908 41.1357C35.9049 42.0444 35.9189 43.3864 35.9189 45.1897C35.9189 46.9931 35.9189 49.5513 35.9189 52.8784V71.6947C35.9189 77.2026 35.6946 81.4943 35.232 84.5558C34.7694 87.6312 34.0826 90.0077 33.1434 91.6852C32.2042 93.3628 31.0267 94.8865 29.6109 96.2286C29.3026 96.5361 28.9521 96.8436 28.5316 97.1792C28.1251 97.5147 27.7045 97.8082 27.3121 98.0319C27.0177 98.2276 26.7794 98.3814 26.6252 98.5212C26.471 98.661 26.3869 98.8147 26.3869 99.0105C26.3869 99.1363 26.443 99.2341 26.5411 99.304C26.6392 99.3739 26.7373 99.4019 26.8495 99.4019C27.0317 99.4019 27.1859 99.346 27.3121 99.2761C27.6485 99.1083 28.055 98.8567 28.5176 98.5631C28.9801 98.2556 29.4427 97.962 29.8773 97.6545C32.5266 95.8371 34.6152 94.1316 36.1572 92.524C37.6991 90.9164 38.8065 89.2948 39.4794 87.6871C40.1242 86.1913 40.5868 84.6256 40.8671 82.9901C41.1475 81.3684 41.3157 79.4113 41.3858 77.1187C41.4418 74.8261 41.4699 71.9463 41.4559 68.4794V52.8505" fill="#232323"></path>
  <path fill-rule="evenodd" clip-rule="evenodd" d="M55.922 61.0558C54.0296 61.0139 52.4737 60.3568 51.2401 59.0847C50.0066 57.8126 49.3758 56.135 49.3337 54.0521C49.3477 52.752 49.6281 51.6616 50.1748 50.753C50.7215 49.8583 51.4224 49.1314 52.2915 48.5862C52.7961 49.2991 53.4549 50.1099 54.2539 51.0186C55.0529 51.9272 55.6977 52.6262 56.1743 53.1435C56.4827 53.465 56.9874 53.9682 57.6882 54.6393C58.3891 55.3103 59.1461 56.0232 59.9591 56.7501C60.7721 57.4911 61.487 58.1201 62.1318 58.6374C61.5711 59.2385 60.7861 59.7837 59.7488 60.273C58.7115 60.7622 57.4359 61.0278 55.908 61.0558M54.7586 62.7753C56.3846 62.7473 57.7583 62.4957 58.8938 62.0344C60.0292 61.573 60.9263 61.0558 61.5992 60.5106C62.272 59.9654 62.7346 59.546 62.9869 59.2664C64.1644 60.1891 65.1176 60.8741 65.8325 61.3214C66.5474 61.7548 67.1922 62.0344 67.7809 62.1602C68.3697 62.286 69.0425 62.3419 69.8275 62.3279H73.0516C73.2058 62.3279 73.3319 62.3 73.4441 62.258C73.5562 62.2161 73.6123 62.1602 73.6123 62.0903C73.6123 61.9924 73.5702 61.9365 73.4861 61.9085C73.416 61.8806 73.2899 61.8666 73.1497 61.8666C72.5329 61.8666 71.8601 61.7128 71.1452 61.4612C70.4163 61.2096 69.7855 60.916 69.2388 60.5945C68.7762 60.3428 68.1875 59.9654 67.4305 59.4761C66.6876 58.9729 65.7764 58.2739 64.6971 57.3652C65.468 56.4426 66.197 55.2683 66.8698 53.8564C67.5426 52.4445 67.9071 51.0465 67.9632 49.6905C67.9632 49.5228 67.9351 49.383 67.851 49.2712C67.7669 49.1593 67.6127 49.0754 67.3744 49.0335C66.4493 48.9496 65.6643 48.8797 65.0055 48.8518C64.3466 48.8238 63.828 48.8098 63.4215 48.8098C63.2813 48.8098 63.1691 48.8238 63.057 48.8658C62.9589 48.8937 62.9028 48.9496 62.8888 49.0335C62.8888 49.1174 62.9308 49.1733 63.0149 49.2013C63.085 49.2432 63.1832 49.2572 63.2813 49.2572C63.5336 49.2572 63.814 49.2851 64.1083 49.355C64.4027 49.4249 64.669 49.5647 64.8933 49.7744C65.1316 50.0261 65.2998 50.2917 65.3839 50.5712C65.468 50.8508 65.5241 51.1164 65.5101 51.3681C65.5101 52.3886 65.3279 53.3811 65.0195 54.3597C64.6971 55.3382 64.3046 56.1351 63.828 56.7781C63.4355 56.4566 62.8327 55.9114 61.9917 55.1425C61.1506 54.3736 60.3236 53.5908 59.4825 52.794C58.6414 51.9971 58.0106 51.3821 57.6041 50.9487C55.894 49.1453 54.5903 47.6216 53.7212 46.3495C52.8522 45.0913 52.4036 43.8332 52.4036 42.617C52.4597 41.0932 52.9082 40.0028 53.7633 39.3318C54.6044 38.6608 55.5576 38.3393 56.5949 38.3532C57.3238 38.3532 57.9546 38.507 58.5153 38.7866C59.062 39.0662 59.5246 39.4017 59.889 39.7791C60.2955 40.2125 60.5619 40.6738 60.702 41.1631C60.8422 41.6524 60.9123 42.1137 60.9123 42.5471C60.9123 42.7847 60.9123 42.9525 60.9544 43.0363C60.9824 43.1342 61.0385 43.1761 61.1085 43.1622C61.1786 43.1622 61.2347 43.1342 61.2768 43.0643C61.3328 42.9944 61.3889 42.8406 61.431 42.603C61.459 42.4213 61.501 42.0997 61.5291 41.6384C61.5571 41.1771 61.5851 40.6738 61.6132 40.1566C61.6412 39.6394 61.6552 39.206 61.6552 38.8565C61.6552 38.6608 61.6552 38.507 61.5851 38.3952C61.5291 38.2834 61.4169 38.1575 61.2207 38.0457C60.7721 37.7941 60.2114 37.5984 59.5246 37.4586C58.8377 37.3048 58.0807 37.2349 57.2397 37.2349C55.7678 37.2629 54.4922 37.5844 53.4409 38.2135C52.3896 38.8425 51.5766 39.6114 51.0158 40.5201C50.4551 41.4287 50.1748 42.3234 50.1608 43.2181C50.1608 43.945 50.2729 44.658 50.5112 45.3709C50.7495 46.0978 51.17 46.8667 51.7728 47.7055C50.4411 48.4464 49.2777 49.4669 48.2964 50.753C47.3152 52.0391 46.7965 53.6327 46.7405 55.5339C46.7405 56.5125 46.9928 57.5609 47.5395 58.6653C48.0721 59.7697 48.9412 60.7063 50.1047 61.5031C51.2822 62.286 52.8241 62.7054 54.7305 62.7333" fill="#232323"></path>
  <path fill-rule="evenodd" clip-rule="evenodd" d="M80.0463 61.6706C79.9482 61.6706 79.8781 61.6287 79.822 61.5588C79.7799 61.4889 79.7799 61.3771 79.85 61.2093L85.6393 43.6372C85.9617 42.6586 86.2981 42.6586 86.6205 43.6372L92.8724 61.2093C92.9145 61.3351 92.9145 61.447 92.8864 61.5308C92.8584 61.6147 92.7603 61.6566 92.6061 61.6566H80.0323M70.8227 76.0415C70.262 77.705 69.5751 79.075 68.7481 80.1794C67.921 81.2698 66.7716 81.9408 65.2997 82.1644C65.0194 82.1924 64.697 82.2204 64.3185 82.2623C63.94 82.2903 63.6316 82.3042 63.3933 82.3042C63.2251 82.3042 63.0849 82.3322 62.9728 82.4021C62.8606 82.458 62.8046 82.5559 62.8046 82.6957C62.8046 82.8914 62.9027 83.0172 63.113 83.1011C63.3092 83.1849 63.6316 83.2129 64.0521 83.2129C65.6782 83.2129 67.2061 83.1849 68.6639 83.129C70.1078 83.0731 71.061 83.0451 71.4955 83.0312C71.9301 83.0312 72.673 83.0731 73.7383 83.129C74.8037 83.1849 75.7709 83.2129 76.626 83.2129C76.9203 83.2129 77.1586 83.1849 77.3409 83.1011C77.5231 83.0312 77.6072 82.8914 77.6072 82.6957C77.6072 82.43 77.3969 82.3042 76.9484 82.3042H76.2895C75.7008 82.3042 75.1401 82.1505 74.6214 81.8429C74.1028 81.5354 73.8224 81.0601 73.7944 80.417C73.7944 79.8159 73.8785 79.1589 74.0327 78.404C74.1869 77.6491 74.4252 76.8662 74.7196 76.0415L78.6725 64.5224C78.7426 64.3547 78.8267 64.2289 78.9249 64.145C79.037 64.0471 79.1632 64.0052 79.3314 64.0052H93.4752C93.6294 64.0052 93.7695 64.0331 93.8396 64.103C93.9378 64.159 94.0078 64.2708 94.0639 64.3966L100.19 80.417C100.372 80.9343 100.4 81.3397 100.288 81.6332C100.176 81.9268 100.007 82.1085 99.7971 82.1644C99.657 82.1924 99.5588 82.2483 99.4747 82.3182C99.3906 82.3881 99.3345 82.486 99.3345 82.6118C99.3345 82.7935 99.5168 82.9053 99.8532 82.9613C100.19 83.0172 100.68 83.0451 101.311 83.0731C103.666 83.129 105.839 83.171 107.815 83.1849C109.792 83.1989 111.067 83.1989 111.642 83.1989C112.006 83.1989 112.329 83.171 112.567 83.0871C112.82 83.0172 112.946 82.8774 112.96 82.6817C112.96 82.5279 112.89 82.4161 112.777 82.3601C112.665 82.3182 112.497 82.2902 112.301 82.2902C111.964 82.2902 111.572 82.2623 111.109 82.2203C110.647 82.1644 110.17 82.0666 109.68 81.8988C108.979 81.787 108.166 81.2558 107.226 80.3052C106.287 79.3686 105.208 77.4813 104.03 74.6715C102.979 72.0853 101.675 68.7722 100.077 64.7181C98.4935 60.6641 96.8674 56.5122 95.2274 52.2765C93.5873 48.0407 92.1575 44.3501 90.938 41.2188C89.7325 38.0874 88.9755 36.1582 88.6952 35.4453C88.3027 34.4667 88.0223 33.8237 87.8261 33.5161C87.6298 33.2225 87.4336 33.0688 87.2513 33.0967C87.0691 33.0688 86.8729 33.2225 86.6766 33.558C86.4804 33.8935 86.186 34.5925 85.8075 35.627L70.8787 76.0415H70.8227Z" fill="#232323"></path>
  <path d="M119.927 64.3262C119.927 67.4856 119.927 70.2815 119.885 72.7139C119.857 75.1463 119.758 77.0615 119.604 78.4594C119.492 79.41 119.296 80.2208 119.043 80.8499C118.777 81.4929 118.329 81.8844 117.698 82.0242C117.389 82.0941 117.067 82.164 116.703 82.2059C116.352 82.2618 116.016 82.2898 115.721 82.2898C115.525 82.2898 115.385 82.3317 115.301 82.4156C115.217 82.4855 115.189 82.5833 115.189 82.6812C115.189 82.8769 115.273 83.0027 115.441 83.0866C115.609 83.1705 115.875 83.2124 116.24 83.1984C116.745 83.1984 117.347 83.1705 118.02 83.1285C118.707 83.0866 119.38 83.0726 120.053 83.0726C120.754 83.0447 121.356 83.0167 121.833 83.0167C122.324 83.0167 122.604 83.0027 122.674 83.0027C123.165 83.0027 123.823 83.0307 124.651 83.0586C125.478 83.0866 126.543 83.1425 127.819 83.1984C129.108 83.2404 130.65 83.2823 132.486 83.3242C134.323 83.3662 136.467 83.3941 138.935 83.3941C140.168 83.4221 141.023 83.3662 141.5 83.1845C141.962 83.0027 142.299 82.5134 142.481 81.7166C142.593 81.2134 142.719 80.5004 142.845 79.5918C142.972 78.6691 143.098 77.8024 143.182 76.9636C143.266 76.1388 143.322 75.6216 143.336 75.3979C143.336 75.1603 143.336 74.9366 143.28 74.7409C143.238 74.5452 143.126 74.4333 142.93 74.4194C142.775 74.4194 142.649 74.4893 142.551 74.643C142.467 74.7968 142.397 75.0484 142.341 75.3979C142.117 76.726 141.78 77.7465 141.332 78.4734C140.869 79.2143 140.224 79.7455 139.383 80.081C138.472 80.4165 137.421 80.6402 136.229 80.7101C135.024 80.78 133.972 80.8219 133.061 80.794C129.935 80.8499 127.875 80.5284 126.893 79.8014C125.912 79.0885 125.422 77.6346 125.422 75.4538C125.393 74.9226 125.393 73.9301 125.393 72.4483C125.393 70.9665 125.393 69.4427 125.393 67.877C125.393 66.3113 125.393 65.1231 125.407 64.3123V58.5807C125.407 58.4409 125.436 58.3431 125.506 58.2592C125.576 58.1753 125.702 58.1334 125.87 58.1194C126.305 58.1194 127.146 58.1334 128.407 58.1613C129.669 58.1893 130.958 58.2312 132.29 58.2732C133.622 58.3151 134.617 58.371 135.276 58.4409C136.523 58.5947 137.393 58.8883 137.855 59.3356C138.318 59.7829 138.612 60.2443 138.696 60.7196C138.822 61.1389 138.906 61.5164 138.935 61.8659C138.963 62.2154 138.977 62.5369 138.977 62.8584C138.977 63.0262 139.005 63.166 139.075 63.2778C139.145 63.3896 139.257 63.4455 139.425 63.4455C139.649 63.4455 139.776 63.2918 139.832 63.0262C139.874 62.7605 139.902 62.4949 139.888 62.2154C139.888 61.9218 139.916 61.3346 139.972 60.4539C140.028 59.5732 140.084 58.7624 140.154 58.0495C140.266 56.9871 140.378 56.1623 140.49 55.5751C140.603 54.988 140.673 54.5966 140.673 54.4148C140.673 54.2191 140.645 54.0793 140.589 54.0094C140.519 53.9256 140.448 53.8976 140.35 53.8976C140.224 53.8976 140.084 53.9815 139.93 54.1213C139.776 54.275 139.593 54.4708 139.369 54.7364C139.089 55.0579 138.682 55.2676 138.206 55.3934C137.701 55.5192 137.07 55.6031 136.285 55.645C135.696 55.687 134.631 55.7149 133.089 55.7429C131.547 55.7569 130.047 55.7708 128.575 55.7848C127.118 55.7848 126.192 55.7848 125.828 55.7848C125.66 55.7848 125.562 55.7289 125.506 55.6311C125.45 55.5332 125.422 55.3654 125.436 55.1418V37.1643C125.436 36.9406 125.464 36.7728 125.534 36.661C125.604 36.5631 125.702 36.5072 125.828 36.5072C126.15 36.5072 126.949 36.5072 128.239 36.5352C129.529 36.5492 130.846 36.5631 132.178 36.6051C133.51 36.633 134.407 36.675 134.855 36.7169C136.58 36.9126 137.743 37.2062 138.36 37.5836C138.977 37.9611 139.355 38.4084 139.523 38.9257C139.691 39.3311 139.79 39.7644 139.846 40.2258C139.902 40.6731 139.916 41.0226 139.916 41.2742C139.916 41.5398 139.958 41.7355 140.028 41.8893C140.112 42.0431 140.238 42.113 140.448 42.113C140.575 42.113 140.673 42.0291 140.757 41.8753C140.827 41.7215 140.883 41.5678 140.911 41.386C140.981 40.9107 141.037 40.1838 141.107 39.1913C141.163 38.2127 141.205 37.4998 141.247 37.0944C141.36 36.1997 141.472 35.5147 141.584 35.0534C141.696 34.5921 141.766 34.2426 141.78 34.0329C141.78 33.8651 141.752 33.7253 141.724 33.6135C141.682 33.5017 141.612 33.4457 141.514 33.4457C141.36 33.4457 141.205 33.5017 141.051 33.5855C140.911 33.6694 140.757 33.7253 140.589 33.7673C140.322 33.8372 139.944 33.8931 139.453 33.963C138.963 34.0189 138.402 34.0748 137.771 34.1028C137.322 34.1028 136.355 34.1307 134.841 34.1447C133.341 34.1447 131.673 34.1587 129.837 34.1587C128.015 34.1587 126.417 34.1587 125.029 34.1587C123.655 34.1587 122.884 34.1587 122.688 34.1587L119.997 34.0329C119.254 34.0049 118.483 33.977 117.642 33.977C116.815 33.977 116.03 33.977 115.245 33.977C114.88 33.977 114.614 34.0189 114.446 34.0888C114.263 34.1727 114.179 34.2985 114.179 34.4942C114.179 34.62 114.235 34.7179 114.348 34.7878C114.446 34.8577 114.572 34.8856 114.712 34.8856C115.034 34.8856 115.413 34.8996 115.861 34.9415C116.31 34.9695 116.675 35.0254 116.955 35.0813C118.02 35.291 118.749 35.6964 119.142 36.2836C119.534 36.8707 119.758 37.7095 119.786 38.7999C119.828 39.4429 119.857 40.2118 119.871 41.1204C119.899 42.0151 119.913 43.3711 119.913 45.1745C119.913 46.9778 119.913 49.536 119.913 52.8771V64.3262" fill="#232323"></path>
  <path d="M190.043 40.6167C190.043 45.3697 190.043 47.187 189.034 49.256C188.333 50.7238 186.861 52.0938 184.156 53.7294C183.721 53.995 183.188 54.3165 182.852 54.4563C182.782 54.4843 182.712 54.5122 182.614 54.5122C182.515 54.5122 182.375 54.4563 182.375 54.3305C182.375 54.1628 182.543 54.0649 182.852 53.8972C183.244 53.7014 183.721 53.338 184.015 53.0724C186.188 51.1432 187.225 49.5915 187.225 42.0286V33.5711C187.225 28.9998 187.225 28.1751 187.155 27.2384C187.085 26.2459 186.819 25.7706 185.726 25.5749C185.459 25.519 184.884 25.491 184.59 25.491C184.45 25.491 184.324 25.4351 184.324 25.3233C184.324 25.1415 184.492 25.0856 184.856 25.0856C186.356 25.0856 188.459 25.1695 188.627 25.1695C188.795 25.1695 190.898 25.0856 191.907 25.0856C192.272 25.0856 192.44 25.1415 192.44 25.3233C192.44 25.4351 192.3 25.491 192.174 25.491C191.935 25.491 191.739 25.519 191.333 25.5749C190.435 25.7147 190.169 26.2179 190.099 27.2384C190.029 28.1751 190.029 28.9998 190.029 33.5711V40.6027L190.043 40.6167Z" fill="#232323"></path>
  <path d="M205.883 25.8146C206.289 24.85 206.415 24.6682 206.612 24.6682C206.808 24.6682 206.948 24.822 207.34 25.7167C207.845 26.8351 213.088 38.9272 215.12 43.3867C216.326 45.9868 217.293 46.4621 217.994 46.6439C218.498 46.7976 218.989 46.8256 219.326 46.8256C219.522 46.8256 219.662 46.8536 219.662 46.9934C219.662 47.1751 219.354 47.231 218.989 47.231C218.484 47.231 216.045 47.231 213.746 47.1751C213.116 47.1471 212.751 47.1471 212.751 46.9654C212.751 46.8536 212.849 46.7976 212.99 46.7557C213.186 46.6998 213.396 46.4342 213.186 45.9589L210.088 38.7595C210.018 38.6476 209.948 38.5777 209.794 38.5777H202.616C202.448 38.5777 202.35 38.6756 202.28 38.8154L200.276 44.0018C199.981 44.7287 199.813 45.4416 199.813 45.9589C199.813 46.546 200.514 46.8116 201.089 46.8116H201.425C201.663 46.8116 201.761 46.8675 201.761 46.9794C201.761 47.1611 201.565 47.217 201.257 47.217C200.458 47.217 199.014 47.1331 198.649 47.1331C198.285 47.1331 196.449 47.217 194.879 47.217C194.444 47.217 194.248 47.1611 194.248 46.9794C194.248 46.8675 194.388 46.8116 194.542 46.8116C194.781 46.8116 195.243 46.7837 195.51 46.7557C197.051 46.574 197.71 45.4696 198.313 44.0018L205.897 25.8146H205.883ZM209.359 37.5293C209.527 37.5293 209.527 37.4454 209.485 37.3196L206.317 29.4073C206.149 28.9599 205.981 28.9599 205.813 29.4073L202.869 37.3196C202.799 37.4594 202.869 37.5293 202.967 37.5293H209.345H209.359Z" fill="#232323"></path>
  <path d="M225.353 43.2469C225.423 45.6513 225.746 46.4062 226.657 46.6439C227.288 46.7976 228.031 46.8256 228.325 46.8256C228.493 46.8256 228.591 46.8815 228.591 46.9934C228.591 47.1751 228.395 47.231 227.989 47.231C226.082 47.231 224.751 47.1471 224.456 47.1471C224.162 47.1471 222.746 47.231 221.246 47.231C220.91 47.231 220.713 47.203 220.713 46.9934C220.713 46.8815 220.812 46.8256 220.98 46.8256C221.246 46.8256 221.849 46.7976 222.34 46.6439C223.181 46.4342 223.349 45.5814 223.349 42.9253L223.377 26.1361C223.377 24.9898 223.475 24.6682 223.741 24.6682C224.008 24.6682 224.582 25.3113 224.905 25.6049C225.409 26.1081 230.386 30.8192 235.53 35.6561C238.838 38.7595 242.483 42.3382 243.548 43.3028L243.184 28.4147C243.156 26.5135 242.917 25.8705 241.88 25.6328C241.277 25.521 240.506 25.479 240.24 25.479C240.002 25.479 239.974 25.3952 239.974 25.2694C239.974 25.0876 240.24 25.0597 240.647 25.0597C242.146 25.0597 243.758 25.1575 244.123 25.1575C244.487 25.1575 245.595 25.0597 246.969 25.0597C247.333 25.0597 247.571 25.0876 247.571 25.2694C247.571 25.3812 247.431 25.479 247.207 25.479C247.039 25.479 246.8 25.479 246.408 25.5629C245.3 25.7726 245.174 26.4157 245.174 28.1771L245.104 45.3438C245.104 47.2729 245.034 47.4267 244.81 47.4267C244.543 47.4267 244.137 47.1052 242.371 45.5535C242.006 45.2599 237.198 40.9543 233.652 37.6132C229.783 33.9506 226.012 30.26 224.933 29.1976L225.367 43.2329L225.353 43.2469Z" fill="#232323"></path>
  <path d="M256.08 33.5846C256.08 29.0133 256.08 28.1886 256.01 27.2519C255.94 26.2594 255.673 25.7841 254.58 25.5744C254.314 25.5185 253.739 25.4905 253.445 25.4905C253.304 25.4905 253.178 25.4346 253.178 25.3228C253.178 25.141 253.347 25.0851 253.711 25.0851C255.211 25.0851 257.314 25.169 257.482 25.169C257.72 25.169 264.364 25.169 265.135 25.141C265.766 25.1131 266.299 25.0572 266.565 24.9873C266.733 24.9593 266.874 24.8475 267.028 24.8475C267.126 24.8475 267.168 24.9593 267.168 25.1131C267.168 25.3228 267 25.6723 266.902 26.4831C266.874 26.7766 266.803 28.0627 266.733 28.4122C266.705 28.566 266.635 28.7337 266.495 28.7337C266.299 28.7337 266.229 28.594 266.229 28.3563C266.229 28.1466 266.201 27.6573 266.032 27.3078C265.794 26.8325 265.458 26.4831 263.664 26.3153C263.103 26.2594 259.458 26.2314 259.08 26.2314C258.94 26.2314 258.884 26.3153 258.884 26.525V34.6051C258.884 34.8148 258.912 34.8987 259.08 34.8987C259.514 34.8987 263.621 34.8987 264.392 34.8427C265.191 34.7868 265.668 34.7309 265.962 34.4373C266.201 34.1997 266.327 34.0599 266.467 34.0599C266.565 34.0599 266.635 34.1158 266.635 34.2976C266.635 34.4793 266.467 34.9686 266.369 35.9331C266.299 36.5203 266.229 37.5967 266.229 37.8064C266.229 38.044 266.229 38.3656 265.99 38.3656C265.822 38.3656 265.752 38.2537 265.752 38.0999C265.752 37.8064 265.752 37.5128 265.612 37.1354C265.472 36.73 265.177 36.2267 263.874 36.1149C262.977 36.031 259.668 35.9751 259.094 35.9751C258.926 35.9751 258.855 36.059 258.855 36.1708V38.743C258.855 39.7355 258.827 43.1325 258.855 43.7476C258.954 45.7746 259.458 46.1521 262.724 46.1521C263.593 46.1521 265.065 46.1521 265.934 45.8306C266.803 45.509 267.196 44.9219 267.434 43.7197C267.504 43.3981 267.56 43.2863 267.729 43.2863C267.925 43.2863 267.925 43.524 267.925 43.7197C267.925 43.9573 267.659 45.9424 267.49 46.5715C267.252 47.3264 266.986 47.3264 265.682 47.3264C260.636 47.3264 258.407 47.1446 257.44 47.1446C257.271 47.1446 255.169 47.2285 254.16 47.2285C253.795 47.2285 253.627 47.1726 253.627 46.9909C253.627 46.907 253.697 46.8231 253.893 46.8231C254.188 46.8231 254.594 46.7672 254.888 46.6973C255.561 46.5854 255.73 45.9424 255.856 45.0896C256.024 43.8595 256.024 41.5529 256.024 38.729V33.5706L256.08 33.5846Z" fill="#232323"></path>
  <path d="M290.115 40.6167C290.115 45.3697 290.115 47.187 289.105 49.256C288.405 50.7238 286.933 52.0938 284.227 53.7294C283.793 53.995 283.26 54.3165 282.924 54.4563C282.854 54.4843 282.783 54.5122 282.685 54.5122C282.587 54.5122 282.447 54.4563 282.447 54.3305C282.447 54.1628 282.615 54.0649 282.91 53.8972C283.316 53.7014 283.779 53.338 284.073 53.0724C286.246 51.1432 287.283 49.5915 287.283 42.0286V33.5711C287.283 28.9998 287.283 28.1751 287.213 27.2384C287.143 26.2459 286.877 25.7706 285.783 25.5749C285.517 25.519 284.942 25.491 284.648 25.491C284.508 25.491 284.381 25.4351 284.381 25.3233C284.381 25.1415 284.55 25.0856 284.914 25.0856C286.414 25.0856 288.517 25.1695 288.685 25.1695C288.853 25.1695 290.956 25.0856 291.965 25.0856C292.329 25.0856 292.498 25.1415 292.498 25.3233C292.498 25.4351 292.357 25.491 292.231 25.491C291.993 25.491 291.797 25.519 291.39 25.5749C290.479 25.7147 290.213 26.2179 290.157 27.2384C290.087 28.1751 290.087 28.9998 290.087 33.5711V40.6027L290.115 40.6167Z" fill="#232323"></path>
  <path d="M305.941 25.8146C306.347 24.85 306.473 24.6682 306.67 24.6682C306.866 24.6682 307.006 24.822 307.398 25.7167C307.903 26.8351 313.146 38.9272 315.178 43.3867C316.384 45.9868 317.351 46.4621 318.052 46.6439C318.542 46.7976 319.047 46.8256 319.384 46.8256C319.58 46.8256 319.72 46.8536 319.72 46.9934C319.72 47.1751 319.412 47.231 319.047 47.231C318.542 47.231 316.103 47.231 313.804 47.1751C313.174 47.1471 312.809 47.1471 312.809 46.9654C312.809 46.8536 312.907 46.7976 313.048 46.7557C313.244 46.6998 313.454 46.4342 313.244 45.9589L310.146 38.7595C310.076 38.6476 310.006 38.5777 309.852 38.5777H302.674C302.506 38.5777 302.408 38.6756 302.338 38.8154L300.334 44.0018C300.039 44.7287 299.871 45.4416 299.871 45.9589C299.871 46.546 300.572 46.8116 301.133 46.8116H301.469C301.707 46.8116 301.805 46.8675 301.805 46.9794C301.805 47.1611 301.609 47.217 301.301 47.217C300.502 47.217 299.058 47.1331 298.693 47.1331C298.329 47.1331 296.493 47.217 294.923 47.217C294.488 47.217 294.292 47.1611 294.292 46.9794C294.292 46.8675 294.432 46.8116 294.586 46.8116C294.825 46.8116 295.287 46.7837 295.554 46.7557C297.095 46.574 297.754 45.4696 298.357 44.0018L305.941 25.8146ZM309.417 37.5293C309.585 37.5293 309.585 37.4454 309.543 37.3196L306.375 29.4073C306.207 28.9599 306.039 28.9599 305.87 29.4073L302.927 37.3196C302.857 37.4594 302.927 37.5293 303.025 37.5293H309.403H309.417Z" fill="#232323"></path>
  <path d="M340.186 25.8146C340.592 24.85 340.718 24.6682 340.915 24.6682C341.111 24.6682 341.251 24.822 341.643 25.7167C342.148 26.8351 347.391 38.9272 349.423 43.3867C350.629 45.9868 351.596 46.4621 352.297 46.6439C352.801 46.7976 353.306 46.8256 353.643 46.8256C353.839 46.8256 353.979 46.8536 353.979 46.9934C353.979 47.1751 353.671 47.231 353.306 47.231C352.801 47.231 350.362 47.231 348.064 47.1751C347.433 47.1471 347.054 47.1471 347.054 46.9654C347.054 46.8536 347.152 46.7976 347.293 46.7557C347.489 46.6998 347.699 46.4342 347.489 45.9589L344.391 38.7595C344.321 38.6476 344.251 38.5777 344.083 38.5777H336.905C336.737 38.5777 336.639 38.6756 336.569 38.8154L334.565 44.0018C334.27 44.7287 334.102 45.4416 334.102 45.9589C334.102 46.546 334.803 46.8116 335.364 46.8116H335.7C335.938 46.8116 336.036 46.8675 336.036 46.9794C336.036 47.1611 335.84 47.217 335.532 47.217C334.733 47.217 333.289 47.1331 332.924 47.1331C332.56 47.1331 330.724 47.217 329.154 47.217C328.719 47.217 328.523 47.1611 328.523 46.9794C328.523 46.8675 328.663 46.8116 328.831 46.8116C329.07 46.8116 329.532 46.7837 329.799 46.7557C331.326 46.574 331.999 45.4696 332.602 44.0018L340.186 25.8146ZM343.662 37.5293C343.83 37.5293 343.83 37.4454 343.788 37.3196L340.62 29.4073C340.452 28.9599 340.284 28.9599 340.116 29.4073L337.172 37.3196C337.102 37.4594 337.172 37.5293 337.27 37.5293H343.648H343.662Z" fill="#232323"></path>
  <path d="M363.567 25.8146C363.974 24.85 364.1 24.6682 364.296 24.6682C364.492 24.6682 364.632 24.822 365.025 25.7167C365.53 26.8351 370.772 38.9272 372.805 43.3867C374.01 45.9868 374.977 46.4621 375.678 46.6439C376.183 46.7976 376.674 46.8256 377.01 46.8256C377.206 46.8256 377.346 46.8536 377.346 46.9934C377.346 47.1751 377.038 47.231 376.674 47.231C376.169 47.231 373.73 47.231 371.431 47.1751C370.8 47.1471 370.422 47.1471 370.422 46.9654C370.422 46.8536 370.52 46.7976 370.66 46.7557C370.856 46.6998 371.052 46.4342 370.856 45.9589L367.744 38.7595C367.674 38.6476 367.604 38.5777 367.45 38.5777H360.273C360.105 38.5777 360.007 38.6756 359.936 38.8154L357.932 44.0018C357.638 44.7287 357.469 45.4416 357.469 45.9589C357.469 46.546 358.17 46.8116 358.731 46.8116H359.067C359.306 46.8116 359.404 46.8675 359.404 46.9794C359.404 47.1611 359.208 47.217 358.899 47.217C358.1 47.217 356.656 47.1331 356.292 47.1331C355.927 47.1331 354.091 47.217 352.521 47.217C352.087 47.217 351.89 47.1611 351.89 46.9794C351.89 46.8675 352.031 46.8116 352.185 46.8116C352.423 46.8116 352.886 46.7837 353.152 46.7557C354.68 46.574 355.367 45.4696 355.955 44.0018L363.539 25.8146H363.567ZM367.043 37.5293C367.212 37.5293 367.212 37.4454 367.184 37.3196L364.016 29.4073C363.847 28.9599 363.679 28.9599 363.511 29.4073L360.581 37.3196C360.511 37.4594 360.581 37.5293 360.679 37.5293H367.057H367.043Z" fill="#232323"></path>
  <path d="M386.907 38.7455C386.907 41.5554 386.907 43.8759 387.075 45.1061C387.173 45.9589 387.369 46.6019 388.378 46.7277C388.841 46.7837 389.584 46.8396 389.878 46.8396C390.075 46.8396 390.145 46.9235 390.145 47.0073C390.145 47.1611 389.976 47.245 389.612 47.245C387.776 47.245 385.673 47.1611 385.505 47.1611C385.337 47.1611 383.234 47.245 382.225 47.245C381.86 47.245 381.692 47.1891 381.692 47.0073C381.692 46.9235 381.762 46.8396 381.958 46.8396C382.253 46.8396 382.659 46.7837 382.954 46.7277C383.612 46.6019 383.795 45.9589 383.921 45.1061C384.089 43.8759 384.089 41.5693 384.089 38.7455V26.3458L379.155 26.4017C377.08 26.4296 376.281 26.6393 375.749 27.3383C375.384 27.8416 375.286 28.0373 375.174 28.247C375.076 28.4846 374.978 28.5405 374.837 28.5405C374.739 28.5405 374.669 28.4567 374.669 28.2749C374.669 27.9814 375.342 25.4651 375.412 25.2274C375.482 25.0597 375.608 24.6682 375.749 24.6682C375.987 24.6682 376.323 24.9618 377.22 25.0177C378.188 25.1016 379.449 25.1715 379.856 25.1715H392.374C394.504 25.1715 395.415 24.8779 395.682 24.8779C395.85 24.8779 395.85 25.0597 395.85 25.2274C395.85 26.1081 395.752 28.1212 395.752 28.4567C395.752 28.7223 395.654 28.8341 395.513 28.8341C395.345 28.8341 395.275 28.7502 395.247 28.3308L395.205 28.0093C395.065 27.1286 394.308 26.4576 391.098 26.4017L386.893 26.3458V38.7315L386.907 38.7455Z" fill="#232323"></path>
  <path d="M411.255 24.6818C418.769 24.6818 424.376 28.8336 424.376 35.6696C424.376 42.5055 419.091 47.6499 411.059 47.6499C401.905 47.6499 398.093 41.4151 398.093 36.1309C398.093 31.3779 402.032 24.6818 411.255 24.6818ZM411.956 46.5316C414.956 46.5316 421.166 45.0078 421.166 36.4804C421.166 29.4487 416.288 25.6743 411.017 25.6743C405.438 25.6743 401.261 28.8896 401.261 35.3201C401.261 42.142 405.943 46.5455 411.956 46.5455" fill="#232323"></path>
  <path d="M430.333 46.8531C429.871 46.6434 429.829 46.5316 429.829 45.7347C429.829 44.2669 429.969 43.0926 429.997 42.6313C430.025 42.3098 430.095 42.17 430.263 42.17C430.473 42.17 430.501 42.2539 430.501 42.4915C430.501 42.7571 430.501 43.1625 430.6 43.5819C431.104 45.7487 433.305 46.5735 435.548 46.5735C438.744 46.5735 440.314 44.5465 440.314 42.6733C440.314 40.6462 439.347 39.472 436.473 37.403L434.973 36.3126C431.427 33.7684 430.628 31.9511 430.628 29.952C430.628 26.8206 433.305 24.6818 437.538 24.6818C438.842 24.6818 439.809 24.7936 440.636 24.9753C441.267 25.0872 441.533 25.1291 441.814 25.1291C442.094 25.1291 442.15 25.185 442.15 25.3388C442.15 25.4926 442.01 26.4571 442.01 28.4422C442.01 28.9175 441.94 29.1132 441.772 29.1132C441.575 29.1132 441.533 28.9734 441.505 28.7358C441.463 28.3863 441.267 27.5895 441.071 27.268C440.874 26.9464 439.963 25.7162 436.893 25.7162C434.581 25.7162 432.786 26.9744 432.786 29.1132C432.786 30.7908 433.725 31.7833 436.851 34.034L437.791 34.677C441.73 37.403 442.669 39.2203 442.669 41.5689C442.669 42.7711 442.136 44.9938 439.823 46.4337C438.393 47.3144 436.585 47.6639 434.777 47.6639C433.207 47.6639 431.665 47.4542 430.305 46.8671" fill="#232323"></path>
  <path d="M182.305 87.8833C182.305 83.312 182.305 82.4873 182.235 81.5506C182.165 80.5581 181.899 80.0828 180.805 79.8871C180.539 79.8312 179.964 79.8032 179.67 79.8032C179.53 79.8032 179.403 79.7473 179.403 79.6355C179.403 79.4537 179.572 79.3978 179.936 79.3978C181.436 79.3978 183.539 79.4817 183.707 79.4817C183.945 79.4817 190.59 79.4817 191.361 79.4537C191.991 79.4258 192.524 79.3699 192.79 79.3C192.959 79.272 193.099 79.1462 193.253 79.1462C193.351 79.1462 193.393 79.258 193.393 79.4118C193.393 79.6215 193.225 79.971 193.127 80.7818C193.099 81.0753 193.029 82.3614 192.959 82.7249C192.931 82.8647 192.86 83.0464 192.72 83.0464C192.524 83.0464 192.454 82.8927 192.454 82.669C192.454 82.4593 192.426 81.97 192.258 81.6205C192.019 81.1452 191.683 80.7958 189.889 80.628C189.328 80.5721 185.683 80.5441 185.305 80.5441C185.165 80.5441 185.109 80.628 185.109 80.8377V88.9178C185.109 89.1275 185.137 89.2114 185.305 89.2114C185.739 89.2114 189.847 89.2114 190.618 89.1554C191.417 89.0995 191.893 89.0296 192.188 88.75C192.426 88.5124 192.552 88.3726 192.692 88.3726C192.79 88.3726 192.86 88.4285 192.86 88.6102C192.86 88.792 192.692 89.2813 192.594 90.2458C192.524 90.833 192.454 91.9094 192.454 92.1191C192.454 92.3567 192.454 92.6782 192.216 92.6782C192.047 92.6782 191.977 92.5664 191.977 92.4126C191.977 92.1191 191.977 91.8255 191.837 91.4481C191.697 91.0287 191.403 90.5394 190.099 90.4276C189.202 90.3437 185.894 90.2878 185.333 90.2878C185.165 90.2878 185.095 90.3716 185.095 90.4835V93.0557C185.095 94.0482 185.067 97.4452 185.095 98.0603C185.193 100.087 185.697 100.465 188.964 100.465C189.833 100.465 191.304 100.465 192.174 100.143C193.043 99.8217 193.435 99.2346 193.673 98.0324C193.744 97.7108 193.814 97.599 193.968 97.599C194.164 97.599 194.164 97.8366 194.164 98.0324C194.164 98.27 193.898 100.255 193.729 100.884C193.491 101.639 193.225 101.639 191.921 101.639C186.875 101.639 184.646 101.457 183.679 101.457C183.511 101.457 181.408 101.541 180.399 101.541C180.034 101.541 179.866 101.485 179.866 101.304C179.866 101.22 179.936 101.136 180.132 101.136C180.427 101.136 180.833 101.08 181.128 101.024C181.8 100.898 181.969 100.255 182.095 99.4163C182.263 98.1861 182.263 95.8795 182.263 93.0557V87.8973L182.305 87.8833Z" fill="#232323"></path>
  <path d="M202.378 87.8809C202.378 83.3096 202.378 82.4848 202.308 81.5482C202.238 80.5557 201.972 80.0804 200.878 79.8847C200.612 79.8288 200.037 79.8008 199.743 79.8008C199.603 79.8008 199.477 79.7449 199.477 79.633C199.477 79.4513 199.645 79.3954 200.009 79.3954C201.509 79.3954 203.612 79.4793 203.78 79.4793C204.144 79.4793 206.682 79.3954 207.719 79.3954C209.822 79.3954 212.064 79.5771 213.831 80.6815C214.672 81.2127 216.13 82.6386 216.13 84.6656C216.13 86.8324 215.092 88.9992 212.092 91.4317C214.84 94.5071 217.097 97.1213 219.045 98.9386C220.853 100.616 222.283 100.938 223.124 101.049C223.755 101.133 224.232 101.133 224.428 101.133C224.596 101.133 224.722 101.217 224.722 101.301C224.722 101.483 224.526 101.539 223.923 101.539H221.554C219.69 101.539 218.849 101.399 217.98 100.98C216.55 100.309 215.373 98.8687 213.48 96.6739C212.078 95.0663 210.508 93.0952 209.836 92.3403C209.709 92.2285 209.597 92.1586 209.401 92.1586L205.294 92.1027C205.126 92.1027 205.056 92.1865 205.056 92.3403V93.0393C205.056 95.8491 205.056 98.1697 205.224 99.3999C205.322 100.253 205.518 100.896 206.527 101.008C206.99 101.063 207.733 101.119 208.027 101.119C208.224 101.119 208.294 101.203 208.294 101.287C208.294 101.427 208.125 101.525 207.761 101.525C205.925 101.525 203.822 101.441 203.654 101.441C203.626 101.441 201.509 101.525 200.514 101.525C200.149 101.525 199.981 101.469 199.981 101.287C199.981 101.203 200.051 101.119 200.248 101.119C200.542 101.119 200.948 101.063 201.257 101.008C201.93 100.882 202.084 100.239 202.224 99.3999C202.392 98.1697 202.392 95.8631 202.392 93.0393V87.8809H202.378ZM205.042 90.4251C205.042 90.5789 205.112 90.6907 205.28 90.7746C205.785 91.0402 207.312 91.2499 208.784 91.2499C209.583 91.2499 210.522 91.166 211.293 90.6907C212.457 89.9918 213.326 88.3981 213.326 86.1754C213.326 82.5128 211.125 80.318 207.551 80.318C206.541 80.318 205.644 80.4019 205.308 80.4998C205.14 80.5557 205.042 80.6675 205.042 80.8492V90.4251Z" fill="#232323"></path>
  <path d="M227.26 87.8838C227.26 83.3125 227.26 82.4878 227.19 81.5511C227.12 80.5586 226.853 80.0833 225.76 79.8876C225.494 79.8317 224.919 79.8037 224.624 79.8037C224.484 79.8037 224.358 79.7478 224.358 79.636C224.358 79.4542 224.526 79.3983 224.891 79.3983C226.391 79.3983 228.367 79.4822 228.563 79.4822C228.858 79.4822 230.806 79.3983 231.801 79.3983C232.166 79.3983 232.334 79.4542 232.334 79.636C232.334 79.7478 232.194 79.8037 232.068 79.8037C231.829 79.8037 231.633 79.8317 231.227 79.8876C230.33 80.0274 230.063 80.5306 229.993 81.5511C229.923 82.4878 229.923 83.3125 229.923 87.8838V89.6452H230.063C230.624 89.086 236.68 83.704 237.871 82.5577C238.81 81.7049 239.679 80.95 239.679 80.4468C239.679 80.0973 239.511 79.9156 239.245 79.8317C239.077 79.7758 238.95 79.7198 238.95 79.594C238.95 79.4403 239.119 79.3843 239.357 79.3843C240.03 79.3843 241.067 79.4682 241.866 79.4682C242.034 79.4682 244.235 79.3843 245.076 79.3843C245.441 79.3843 245.581 79.4403 245.581 79.594C245.581 79.7478 245.511 79.8037 245.244 79.8037C244.74 79.8037 244.039 79.9435 243.38 80.2091C242.006 80.7403 241.277 81.4673 239.777 82.7254C238.936 83.4244 233.133 88.4011 232.432 89.142C233.301 89.9947 240.24 96.2854 241.614 97.4038C244.417 99.6824 244.992 100.158 246.59 100.745C247.459 101.066 248.426 101.122 248.665 101.122C248.903 101.122 249.099 101.178 249.099 101.29C249.099 101.43 248.931 101.528 248.37 101.528H246.66C245.721 101.528 245.09 101.528 244.361 101.472C242.595 101.332 241.754 100.675 240.324 99.6824C238.824 98.606 231.745 91.8959 230.133 90.1625H229.965V93.0282C229.965 95.8381 229.965 98.1587 230.133 99.3889C230.231 100.242 230.428 100.885 231.437 100.996C231.9 101.052 232.432 101.108 232.741 101.108C232.937 101.108 233.007 101.192 233.007 101.276C233.007 101.416 232.839 101.514 232.474 101.514C230.834 101.514 228.9 101.43 228.633 101.43C228.367 101.43 226.433 101.514 225.423 101.514C225.059 101.514 224.891 101.458 224.891 101.276C224.891 101.192 224.961 101.108 225.157 101.108C225.451 101.108 225.858 101.052 226.152 100.996C226.825 100.871 226.993 100.228 227.12 99.3889C227.288 98.1587 227.288 95.8521 227.288 93.0282V87.8698L227.26 87.8838Z" fill="#232323"></path>
  <path d="M261.491 78.978C269.004 78.978 274.611 83.1299 274.611 89.9658C274.611 96.8018 269.34 101.946 261.28 101.946C252.127 101.946 248.328 95.7114 248.328 90.4272C248.328 85.6742 252.267 78.978 261.491 78.978ZM262.191 100.828C265.191 100.828 271.415 99.3041 271.415 90.7766C271.415 83.745 266.537 79.9706 261.266 79.9706C255.687 79.9706 251.51 83.1858 251.51 89.6164C251.51 96.4383 256.192 100.842 262.191 100.842" fill="#232323"></path>
  <path d="M283.134 97.5407C283.204 99.9452 283.527 100.7 284.438 100.938C285.068 101.078 285.811 101.119 286.106 101.119C286.274 101.119 286.372 101.175 286.372 101.287C286.372 101.469 286.176 101.525 285.769 101.525C283.863 101.525 282.531 101.441 282.237 101.441C281.943 101.441 280.527 101.525 279.027 101.525C278.69 101.525 278.494 101.497 278.494 101.287C278.494 101.175 278.592 101.119 278.761 101.119C279.027 101.119 279.63 101.091 280.12 100.938C280.961 100.728 281.129 99.8753 281.129 97.2192L281.158 80.4299C281.158 79.2836 281.256 78.9621 281.522 78.9621C281.788 78.9621 282.363 79.6051 282.685 79.8987C283.19 80.402 288.166 85.113 293.311 89.9499C296.619 93.0533 300.25 96.6321 301.329 97.5966L300.964 82.7086C300.936 80.8074 300.698 80.1643 299.661 79.9267C299.058 79.8148 298.287 79.7869 298.021 79.7869C297.782 79.7869 297.754 79.703 297.754 79.5772C297.754 79.3955 298.021 79.3675 298.427 79.3675C299.927 79.3675 301.539 79.4654 301.904 79.4654C302.268 79.4654 303.375 79.3675 304.749 79.3675C305.114 79.3675 305.352 79.3955 305.352 79.5772C305.352 79.689 305.212 79.7869 304.988 79.7869C304.819 79.7869 304.581 79.7869 304.189 79.8708C303.081 80.0804 302.955 80.7235 302.955 82.4849L302.885 99.6516C302.885 101.581 302.815 101.735 302.59 101.735C302.324 101.735 301.918 101.413 300.151 99.8613C299.787 99.5677 294.979 95.2621 291.432 91.921C287.564 88.2584 283.793 84.5678 282.713 83.5054L283.148 97.5407H283.134Z" fill="#232323"></path>
  <path d="M321.977 101.149C321.514 100.954 321.472 100.828 321.472 100.031C321.472 98.5632 321.612 97.3889 321.64 96.9276C321.668 96.6061 321.738 96.4663 321.907 96.4663C322.117 96.4663 322.145 96.5501 322.145 96.7878C322.145 97.0534 322.145 97.4588 322.243 97.8782C322.748 100.045 324.949 100.87 327.191 100.87C330.401 100.87 331.971 98.8428 331.971 96.9695C331.971 94.9425 331.004 93.7682 328.131 91.6993L326.631 90.6089C323.084 88.0646 322.285 86.2473 322.285 84.2483C322.285 81.1169 324.963 78.978 329.196 78.978C330.5 78.978 331.467 79.0899 332.294 79.2716C332.925 79.3834 333.191 79.4254 333.471 79.4254C333.752 79.4254 333.808 79.4813 333.808 79.6351C333.808 79.7888 333.667 80.7534 333.667 82.7385C333.667 83.1998 333.597 83.4095 333.429 83.4095C333.233 83.4095 333.191 83.2697 333.163 83.0321C333.121 82.6826 332.925 81.8857 332.728 81.5642C332.532 81.2427 331.621 80.0125 328.551 80.0125C326.238 80.0125 324.444 81.2707 324.444 83.4095C324.444 85.073 325.383 86.0796 328.509 88.3303L329.448 88.9733C333.387 91.6993 334.326 93.5166 334.326 95.8651C334.326 97.0674 333.794 99.2901 331.481 100.73C330.051 101.611 328.243 101.96 326.448 101.96C324.878 101.96 323.336 101.764 321.977 101.163" fill="#232323"></path>
  <path d="M347.671 80.1235C348.078 79.159 348.204 78.9772 348.4 78.9772C348.596 78.9772 348.736 79.131 349.129 80.0257C349.634 81.144 354.876 93.2362 356.909 97.6957C358.114 100.31 359.081 100.771 359.782 100.953C360.287 101.093 360.778 101.135 361.114 101.135C361.31 101.135 361.45 101.163 361.45 101.302C361.45 101.484 361.142 101.54 360.778 101.54C360.273 101.54 357.834 101.54 355.535 101.484C354.904 101.456 354.54 101.456 354.54 101.274C354.54 101.163 354.638 101.107 354.778 101.065C354.974 101.009 355.185 100.743 354.974 100.268L351.862 93.0685C351.792 92.9427 351.722 92.8867 351.554 92.8867H344.377C344.209 92.8867 344.111 92.9846 344.041 93.1244L342.036 98.3108C341.742 99.0377 341.573 99.7506 341.573 100.268C341.573 100.855 342.274 101.121 342.835 101.121H343.171C343.41 101.121 343.508 101.177 343.508 101.288C343.508 101.47 343.312 101.526 343.003 101.526C342.204 101.526 340.76 101.442 340.396 101.442C340.031 101.442 338.195 101.526 336.625 101.526C336.191 101.526 335.994 101.47 335.994 101.288C335.994 101.177 336.135 101.121 336.303 101.121C336.541 101.121 337.004 101.093 337.27 101.065C338.798 100.883 339.471 99.7786 340.074 98.3108L347.657 80.1235H347.671ZM343.83 75.8738C343.83 75.3426 344.237 74.6157 345.274 74.6157C346.073 74.6157 346.718 75.049 346.718 75.7899C346.718 76.5308 346.157 77.1459 345.246 77.1459C344.237 77.1459 343.844 76.447 343.844 75.8878M351.161 91.8523C351.33 91.8523 351.33 91.7684 351.302 91.6426L348.12 83.7302C347.951 83.2829 347.783 83.2829 347.615 83.7302L344.671 91.6426C344.601 91.7824 344.671 91.8523 344.769 91.8523H351.147H351.161ZM350.559 75.8878C350.559 75.3566 350.965 74.6296 351.989 74.6296C352.788 74.6296 353.432 75.063 353.432 75.8039C353.432 76.5448 352.858 77.1599 351.96 77.1599C350.951 77.1599 350.559 76.4609 350.559 75.9018" fill="#232323"></path>
  <path d="M370.716 80.1235C371.123 79.159 371.249 78.9772 371.445 78.9772C371.642 78.9772 371.782 79.131 372.174 80.0257C372.679 81.144 377.921 93.2362 379.954 97.6957C381.16 100.31 382.127 100.771 382.828 100.953C383.332 101.093 383.837 101.135 384.159 101.135C384.356 101.135 384.496 101.163 384.496 101.302C384.496 101.484 384.201 101.54 383.837 101.54C383.332 101.54 380.893 101.54 378.594 101.484C377.963 101.456 377.585 101.456 377.585 101.274C377.585 101.163 377.683 101.107 377.823 101.065C378.034 101.009 378.23 100.743 378.034 100.268L374.922 93.0685C374.866 92.9427 374.796 92.8867 374.627 92.8867H367.45C367.282 92.8867 367.184 92.9846 367.114 93.1244L365.109 98.3108C364.815 99.0377 364.647 99.7506 364.647 100.268C364.647 100.855 365.348 101.121 365.908 101.121H366.245C366.483 101.121 366.581 101.177 366.581 101.288C366.581 101.47 366.371 101.526 366.077 101.526C365.278 101.526 363.834 101.442 363.469 101.442C363.105 101.442 361.268 101.526 359.699 101.526C359.264 101.526 359.068 101.47 359.068 101.288C359.068 101.177 359.194 101.121 359.362 101.121C359.6 101.121 360.063 101.093 360.329 101.065C361.871 100.883 362.544 99.7786 363.133 98.3108L370.716 80.1235ZM366.876 75.8738C366.876 75.3426 367.282 74.6157 368.305 74.6157C369.104 74.6157 369.749 75.049 369.749 75.7899C369.749 76.5308 369.174 77.1459 368.277 77.1459C367.268 77.1459 366.876 76.447 366.876 75.8878M374.193 91.8523C374.361 91.8523 374.361 91.7684 374.333 91.6426L371.165 83.7302C370.997 83.2829 370.829 83.2829 370.66 83.7302L367.731 91.6426C367.661 91.7824 367.731 91.8523 367.829 91.8523H374.207H374.193ZM373.59 75.8878C373.59 75.3566 373.997 74.6296 375.02 74.6296C375.819 74.6296 376.45 75.063 376.45 75.8039C376.45 76.5448 375.889 77.1599 374.978 77.1599C373.982 77.1599 373.576 76.4609 373.576 75.9018" fill="#232323"></path>
  <path d="M396.06 93.0394C396.06 95.8492 396.06 98.1698 396.228 99.4C396.326 100.253 396.523 100.896 397.532 101.022C397.995 101.078 398.737 101.133 399.032 101.133C399.228 101.133 399.298 101.217 399.298 101.301C399.298 101.455 399.13 101.539 398.765 101.539C396.929 101.539 394.827 101.455 394.658 101.455C394.49 101.455 392.387 101.539 391.392 101.539C391.028 101.539 390.86 101.483 390.86 101.301C390.86 101.217 390.93 101.133 391.126 101.133C391.434 101.133 391.827 101.078 392.135 101.022C392.808 100.896 392.976 100.253 393.102 99.4C393.271 98.1698 393.271 95.8632 393.271 93.0394V80.6396L388.322 80.6955C386.262 80.7235 385.449 80.9332 384.916 81.6322C384.552 82.1354 384.453 82.3451 384.355 82.5408C384.257 82.7785 384.159 82.8344 384.019 82.8344C383.921 82.8344 383.851 82.7505 383.851 82.5688C383.851 82.2752 384.524 79.7589 384.58 79.5213C384.65 79.3535 384.79 78.9621 384.916 78.9621C385.154 78.9621 385.491 79.2557 386.388 79.3116C387.355 79.3955 388.617 79.4654 389.023 79.4654H401.555C403.7 79.4654 404.597 79.1718 404.863 79.1718C405.031 79.1718 405.031 79.3535 405.031 79.5213C405.031 80.402 404.933 82.415 404.933 82.7505C404.933 83.0161 404.835 83.128 404.709 83.128C404.541 83.128 404.471 83.0441 404.443 82.6247L404.415 82.3032C404.274 81.4225 403.503 80.7515 400.307 80.6955L396.102 80.6396V93.0394H396.06Z" fill="#232323"></path>
  <path d="M414.507 93.0393C414.507 95.8491 414.507 98.1697 414.676 99.3999C414.774 100.253 414.97 100.896 415.979 101.022C416.442 101.077 417.185 101.133 417.479 101.133C417.675 101.133 417.745 101.217 417.745 101.301C417.745 101.455 417.577 101.539 417.213 101.539C415.376 101.539 413.274 101.455 413.106 101.455C412.937 101.455 410.835 101.539 409.839 101.539C409.475 101.539 409.307 101.483 409.307 101.301C409.307 101.217 409.377 101.133 409.573 101.133C409.867 101.133 410.274 101.077 410.568 101.022C411.227 100.896 411.395 100.253 411.536 99.3999C411.704 98.1697 411.704 95.8631 411.704 93.0393V87.8809C411.704 83.3096 411.704 82.4848 411.634 81.5482C411.564 80.5557 411.227 80.0524 410.498 79.9126C410.134 79.8288 409.699 79.8008 409.461 79.8008C409.335 79.8008 409.195 79.7449 409.195 79.633C409.195 79.4513 409.363 79.3954 409.727 79.3954C410.821 79.3954 412.923 79.4932 413.092 79.4932C413.26 79.4932 415.362 79.3954 416.372 79.3954C416.736 79.3954 416.904 79.4513 416.904 79.633C416.904 79.7449 416.764 79.8008 416.638 79.8008C416.4 79.8008 416.203 79.8288 415.811 79.8847C414.914 80.0245 414.647 80.5277 414.577 81.5482C414.507 82.4848 414.507 83.3096 414.507 87.8809V93.0393Z" fill="#232323"></path>
  <path d="M435.45 78.9772C442.963 78.9772 448.57 83.1291 448.57 89.965C448.57 96.801 443.3 101.945 435.253 101.945C426.1 101.945 422.301 95.7106 422.301 90.4264C422.301 85.6874 426.24 78.9772 435.464 78.9772M436.165 100.827C439.178 100.827 445.388 99.3033 445.388 90.7759C445.388 83.7442 440.51 79.9698 435.239 79.9698C429.66 79.9698 425.483 83.185 425.483 89.6016C425.483 96.4235 430.151 100.827 436.165 100.827ZM430.656 75.8738C430.656 75.3426 431.062 74.6157 432.099 74.6157C432.898 74.6157 433.529 75.049 433.529 75.7899C433.529 76.5308 432.954 77.1459 432.057 77.1459C431.048 77.1459 430.656 76.447 430.656 75.8878M437.37 75.8878C437.37 75.3566 437.777 74.6296 438.8 74.6296C439.599 74.6296 440.244 75.063 440.244 75.8039C440.244 76.5448 439.683 77.1599 438.772 77.1599C437.763 77.1599 437.37 76.4609 437.37 75.9018" fill="#232323"></path>
  <path fill-rule="evenodd" clip-rule="evenodd" d="M450 63.6877H179.88V61.752H450V63.6877Z" fill="#232323"></path>
</svg>
