<svg width="453.543" height="264.567" viewBox="0 0 120 70" xml:space="preserve" xmlns="http://www.w3.org/2000/svg">
    <path d="M0 0h14.5v27.7h26.9V41H14.5v15.7h30.6V70H0Zm50.329 0h42.8v13.3h-28.3V70h-14.5zm44.819 0h14.6l5.1 15.2h24.1l5.2-15.2h15l-25.1 70.4h-13.8zm24.1 28 7.7 22.8 7.6-22.8zm41.91-28h14.1v44.5l16.4-28.7h.3l16.5 28.9V0h14.2v70h-15.3l-15.4-28.4-15.6 28.4h-15.2zm67.618 0h45.5v13.1h-31.099v15.6h27v13.1h-27v15.1h30.699V70h-45.1z" style="fill:#231f20;fill-opacity:1;fill-rule:nonzero;stroke:none" transform="matrix(.35278 0 0 -.35278 11.797 52.096)"/>
    <path d="M1.125 0h2.309v-4.558h3.68V.001h2.32v-11.203h-2.32v4.5h-3.68v-4.5h-2.31Zm9.803 0h7.277v-2.097h-4.98v-2.496h4.324V-6.69h-4.324v-2.415h4.91v-2.097h-7.207zm8.381 0h6.844v-2.132h-4.535v-9.07H19.31Zm11.166.142c2.18 0 3.761-1.278 3.761-3.352v-.035c0-1.746-1.054-2.578-3-3.34-1.746-.727-2.133-1.031-2.133-1.664v-.023c0-.575.493-.973 1.301-.973.856 0 1.676.469 2.38 1.043l1.3-1.758c-1.031-.937-2.309-1.383-3.621-1.383-2.156 0-3.656 1.336-3.656 3.281v.036c0 1.921 1.23 2.671 3.21 3.433 1.594.61 1.922.961 1.922 1.524v.011c0 .657-.55 1.102-1.441 1.102-1.125 0-2.04-.598-2.79-1.254l-1.37 1.71A6.011 6.011 0 0 0 30.475.143zM35.188 0h2.32v-11.203h-2.32zm3.827 0h2.261v-6.762l4.43 6.762h1.992v-11.203h-2.273v6.527l-4.29-6.527h-2.12zm10.169 0h2.308v-3.293l1.043-1.313 2.8 4.606h2.72L54.14-6.444l3.75-4.758h-2.73l-3.669 4.84v-4.84h-2.308zm9.354 0h2.32v-11.203h-2.32Zm10.564.176c2.59 0 4.29-1.489 4.29-4.57v-6.81h-2.31v6.915c0 1.558-.75 2.32-1.944 2.32-1.207 0-1.957-.785-1.957-2.367v-6.867h-2.32v6.855c0 3.024 1.663 4.524 4.241 4.524zM74.774 0h2.262v-6.762l4.43 6.762h1.992v-11.203h-2.273v6.527l-4.29-6.527h-2.12zm10.199 0h2.32v-11.203h-2.32Zm6.63.059h2.144l3.773-11.262h-2.437l-2.367 7.71-2.367-7.71h-2.52ZM98.047 0h7.277v-2.097h-4.98v-2.496h4.324V-6.69h-4.324v-2.415h4.91v-2.097h-7.207zm8.385 0h2.308v-3.679h1.465l2.062 3.68h2.649l-2.379-4.16c1.23-.54 2.074-1.617 2.074-3.305v-.07c0-1.102-.328-1.98-.937-2.59-.703-.703-1.746-1.078-3.035-1.078h-4.207zm2.308-5.73v-3.375h1.664c1.184 0 1.875.563 1.875 1.688v.012c0 1.008-.633 1.675-1.816 1.675zm10.17 5.872c2.179 0 3.76-1.278 3.76-3.352v-.035c0-1.746-1.054-2.578-3-3.34-1.745-.727-2.132-1.031-2.132-1.664v-.023c0-.575.492-.973 1.3-.973.856 0 1.677.469 2.38 1.043l1.3-1.758c-1.03-.937-2.308-1.383-3.62-1.383-2.157 0-3.657 1.336-3.657 3.281v.036c0 1.921 1.23 2.671 3.211 3.433 1.594.61 1.922.961 1.922 1.524v.011c0 .657-.55 1.102-1.441 1.102-1.125 0-2.04-.598-2.79-1.254l-1.37 1.71A6.011 6.011 0 0 0 118.91.143zM123.626 0h2.32v-11.203h-2.32zm5.754 0h2.308v-9.059h2.813v-2.144h-7.934v2.144h2.813zm8.874 0h2.32V-4.44l3.645-6.762h-2.555l-2.227 4.406-2.203-4.406h-2.625l3.645 6.785zm9.047 0h2.25v-7.113l2.625 4.582h.047l2.636-4.617V0h2.274v-11.203h-2.45l-2.46 4.547-2.497-4.547h-2.425zm15.448.176c2.59 0 4.289-1.489 4.289-4.57v-6.81h-2.309v6.915c0 1.558-.75 2.32-1.945 2.32-1.207 0-1.957-.785-1.957-2.367v-6.867h-2.32v6.855c0 3.024 1.664 4.524 4.242 4.524zm8.845-.035c2.18 0 3.761-1.278 3.761-3.352v-.035c0-1.746-1.054-2.578-3-3.34-1.746-.727-2.132-1.031-2.132-1.664v-.023c0-.575.492-.973 1.3-.973.856 0 1.676.469 2.38 1.043l1.3-1.758c-1.031-.937-2.309-1.383-3.621-1.383-2.156 0-3.656 1.336-3.656 3.281v.036c0 1.921 1.23 2.671 3.21 3.433 1.594.61 1.922.961 1.922 1.524v.011c0 .657-.55 1.102-1.44 1.102-1.126 0-2.04-.598-2.79-1.254l-1.371 1.71a6.011 6.011 0 0 0 4.137 1.642zM176.288 0h7.277v-2.098h-4.98v-2.496h4.324V-6.69h-4.324v-2.415h4.91v-2.097h-7.207zm12.387.176c2.59 0 4.289-1.489 4.289-4.57v-6.81h-2.309v6.915c0 1.558-.75 2.32-1.945 2.32-1.207 0-1.957-.785-1.957-2.367v-6.867h-2.32v6.855c0 3.024 1.664 4.524 4.242 4.524zM194.347 0h2.25v-7.113l2.625 4.582h.047l2.636-4.617V0h2.274v-11.203h-2.45l-2.46 4.547-2.497-4.547h-2.425zm0 0" style="fill:#231f20;fill-opacity:1;fill-rule:nonzero;stroke:none" aria-label="HELSINKI UNIVERSITY MUSEUM" transform="matrix(.35278 0 0 .35278 11.444 22.296)"/>
</svg>
